  0
SECTION
  2
HEADER
  9
$ACADVER
  1
AC1032
  9
$ACADMAINTVER
 90
      327
  9
$DWGCODEPAGE
  3
ANSI_1251
  9
$LASTSAVEDBY
  1
Mihai
  9
$REQUIREDVERSIONS
160
                 0
  9
$INSBASE
 10
0.0
 20
0.0
 30
0.0
  9
$EXTMIN
 10
40.71170686586174
 20
3.755836042580426
 30
0.0
  9
$EXTMAX
 10
460.7117068658617
 20
300.7558360425804
 30
0.0
  9
$LIMMIN
 10
0.0
 20
0.0
  9
$LIMMAX
 10
420.0
 20
297.0
  9
$ORTHOMODE
 70
     0
  9
$REGENMODE
 70
     1
  9
$FILLMODE
 70
     1
  9
$QTEXTMODE
 70
     0
  9
$MIRRTEXT
 70
     1
  9
$LTSCALE
 40
1.0
  9
$ATTMODE
 70
     1
  9
$TEXTSIZE
 40
2.5
  9
$TRACEWID
 40
1.0
  9
$TEXTSTYLE
  7
Standard
  9
$CLAYER
  8
0
  9
$CELTYPE
  6
ByLayer
  9
$CECOLOR
 62
     2
  9
$CELTSCALE
 40
1.0
  9
$DISPSILH
 70
     0
  9
$DIMSCALE
 40
1.0
  9
$DIMASZ
 40
2.5
  9
$DIMEXO
 40
0.625
  9
$DIMDLI
 40
3.75
  9
$DIMRND
 40
0.0
  9
$DIMDLE
 40
0.0
  9
$DIMEXE
 40
1.25
  9
$DIMTP
 40
0.0
  9
$DIMTM
 40
0.0
  9
$DIMTXT
 40
2.5
  9
$DIMCEN
 40
2.5
  9
$DIMTSZ
 40
0.0
  9
$DIMTOL
 70
     0
  9
$DIMLIM
 70
     0
  9
$DIMTIH
 70
     0
  9
$DIMTOH
 70
     0
  9
$DIMSE1
 70
     0
  9
$DIMSE2
 70
     0
  9
$DIMTAD
 70
     1
  9
$DIMZIN
 70
     8
  9
$DIMBLK
  1

  9
$DIMASO
 70
     1
  9
$DIMSHO
 70
     1
  9
$DIMPOST
  1

  9
$DIMAPOST
  1

  9
$DIMALT
 70
     0
  9
$DIMALTD
 70
     3
  9
$DIMALTF
 40
0.03937007874016
  9
$DIMLFAC
 40
1.0
  9
$DIMTOFL
 70
     1
  9
$DIMTVP
 40
0.0
  9
$DIMTIX
 70
     0
  9
$DIMSOXD
 70
     0
  9
$DIMSAH
 70
     0
  9
$DIMBLK1
  1

  9
$DIMBLK2
  1

  9
$DIMSTYLE
  2
ISO-25
  9
$DIMCLRD
 70
     0
  9
$DIMCLRE
 70
     0
  9
$DIMCLRT
 70
     0
  9
$DIMTFAC
 40
1.0
  9
$DIMGAP
 40
0.625
  9
$DIMJUST
 70
     0
  9
$DIMSD1
 70
     0
  9
$DIMSD2
 70
     0
  9
$DIMTOLJ
 70
     0
  9
$DIMTZIN
 70
     8
  9
$DIMALTZ
 70
     0
  9
$DIMALTTZ
 70
     0
  9
$DIMUPT
 70
     0
  9
$DIMDEC
 70
     2
  9
$DIMTDEC
 70
     2
  9
$DIMALTU
 70
     2
  9
$DIMALTTD
 70
     3
  9
$DIMTXSTY
  7
Standard
  9
$DIMAUNIT
 70
     0
  9
$DIMADEC
 70
     0
  9
$DIMALTRND
 40
0.0
  9
$DIMAZIN
 70
     0
  9
$DIMDSEP
 70
    44
  9
$DIMATFIT
 70
     3
  9
$DIMFRAC
 70
     0
  9
$DIMLDRBLK
  1

  9
$DIMLUNIT
 70
     2
  9
$DIMLWD
 70
    -2
  9
$DIMLWE
 70
    -2
  9
$DIMTMOVE
 70
     0
  9
$DIMFXL
 40
1.0
  9
$DIMFXLON
 70
     0
  9
$DIMJOGANG
 40
0.7853981633974483
  9
$DIMTFILL
 70
     0
  9
$DIMTFILLCLR
 70
     0
  9
$DIMARCSYM
 70
     0
  9
$DIMLTYPE
  6

  9
$DIMLTEX1
  6

  9
$DIMLTEX2
  6

  9
$DIMTXTDIRECTION
 70
     0
  9
$LUNITS
 70
     2
  9
$LUPREC
 70
     4
  9
$SKETCHINC
 40
1.0
  9
$FILLETRAD
 40
10.0
  9
$AUNITS
 70
     0
  9
$AUPREC
 70
     0
  9
$MENU
  1
.
  9
$ELEVATION
 40
0.0
  9
$PELEVATION
 40
0.0
  9
$THICKNESS
 40
0.0
  9
$LIMCHECK
 70
     0
  9
$CHAMFERA
 40
10.0
  9
$CHAMFERB
 40
10.0
  9
$CHAMFERC
 40
20.0
  9
$CHAMFERD
 40
0.0
  9
$SKPOLY
 70
     0
  9
$TDCREATE
 40
2454091.384837963
  9
$TDUCREATE
 40
2454091.301511319
  9
$TDUPDATE
 40
2460611.724108797
  9
$TDUUPDATE
 40
2460611.640775463
  9
$TDINDWG
 40
0.0969985301
  9
$TDUSRTIMER
 40
0.0969972569
  9
$USRTIMER
 70
     1
  9
$ANGBASE
 50
0.0
  9
$ANGDIR
 70
     0
  9
$PDMODE
 70
     0
  9
$PDSIZE
 40
0.0
  9
$PLINEWID
 40
0.0
  9
$SPLFRAME
 70
     0
  9
$SPLINETYPE
 70
     6
  9
$SPLINESEGS
 70
     8
  9
$HANDSEED
  5
2BD
  9
$SURFTAB1
 70
     6
  9
$SURFTAB2
 70
     6
  9
$SURFTYPE
 70
     6
  9
$SURFU
 70
     6
  9
$SURFV
 70
     6
  9
$UCSBASE
  2

  9
$UCSNAME
  2

  9
$UCSORG
 10
0.0
 20
0.0
 30
0.0
  9
$UCSXDIR
 10
1.0
 20
0.0
 30
0.0
  9
$UCSYDIR
 10
0.0
 20
1.0
 30
0.0
  9
$UCSORTHOREF
  2

  9
$UCSORTHOVIEW
 70
     0
  9
$UCSORGTOP
 10
0.0
 20
0.0
 30
0.0
  9
$UCSORGBOTTOM
 10
0.0
 20
0.0
 30
0.0
  9
$UCSORGLEFT
 10
0.0
 20
0.0
 30
0.0
  9
$UCSORGRIGHT
 10
0.0
 20
0.0
 30
0.0
  9
$UCSORGFRONT
 10
0.0
 20
0.0
 30
0.0
  9
$UCSORGBACK
 10
0.0
 20
0.0
 30
0.0
  9
$PUCSBASE
  2

  9
$PUCSNAME
  2

  9
$PUCSORG
 10
0.0
 20
0.0
 30
0.0
  9
$PUCSXDIR
 10
1.0
 20
0.0
 30
0.0
  9
$PUCSYDIR
 10
0.0
 20
1.0
 30
0.0
  9
$PUCSORTHOREF
  2

  9
$PUCSORTHOVIEW
 70
     0
  9
$PUCSORGTOP
 10
0.0
 20
0.0
 30
0.0
  9
$PUCSORGBOTTOM
 10
0.0
 20
0.0
 30
0.0
  9
$PUCSORGLEFT
 10
0.0
 20
0.0
 30
0.0
  9
$PUCSORGRIGHT
 10
0.0
 20
0.0
 30
0.0
  9
$PUCSORGFRONT
 10
0.0
 20
0.0
 30
0.0
  9
$PUCSORGBACK
 10
0.0
 20
0.0
 30
0.0
  9
$USERI1
 70
     0
  9
$USERI2
 70
     0
  9
$USERI3
 70
     0
  9
$USERI4
 70
     0
  9
$USERI5
 70
     0
  9
$USERR1
 40
0.0
  9
$USERR2
 40
0.0
  9
$USERR3
 40
0.0
  9
$USERR4
 40
0.0
  9
$USERR5
 40
0.0
  9
$WORLDVIEW
 70
     1
  9
$SHADEDGE
 70
     3
  9
$SHADEDIF
 70
    70
  9
$TILEMODE
 70
     1
  9
$MAXACTVP
 70
    64
  9
$PINSBASE
 10
0.0
 20
0.0
 30
0.0
  9
$PLIMCHECK
 70
     0
  9
$PEXTMIN
 10
1.000000000000000E+20
 20
1.000000000000000E+20
 30
1.000000000000000E+20
  9
$PEXTMAX
 10
-1.000000000000000E+20
 20
-1.000000000000000E+20
 30
-1.000000000000000E+20
  9
$PLIMMIN
 10
0.0
 20
0.0
  9
$PLIMMAX
 10
420.0
 20
297.0
  9
$UNITMODE
 70
     0
  9
$VISRETAIN
 70
     1
  9
$PLINEGEN
 70
     0
  9
$PSLTSCALE
 70
     1
  9
$TREEDEPTH
 70
  3020
  9
$CMLSTYLE
  2
Standard
  9
$CMLJUST
 70
     0
  9
$CMLSCALE
 40
20.0
  9
$PROXYGRAPHICS
 70
     1
  9
$MEASUREMENT
 70
     1
  9
$CELWEIGHT
370
    -1
  9
$ENDCAPS
280
     0
  9
$JOINSTYLE
280
     0
  9
$LWDISPLAY
290
     0
  9
$INSUNITS
 70
     4
  9
$HYPERLINKBASE
  1

  9
$STYLESHEET
  1
Normale.ctb
  9
$XEDIT
290
     1
  9
$CEPSNTYPE
380
     0
  9
$PSTYLEMODE
290
     1
  9
$FINGERPRINTGUID
  2
{8CAD0900-BCC7-482F-85CC-A7BA699F7725}
  9
$VERSIONGUID
  2
{D92AAEB1-9F23-7246-8516-EFA7F34C83F8}
  9
$EXTNAMES
290
     1
  9
$PSVPSCALE
 40
0.0
  9
$OLESTARTUP
290
     0
  9
$SORTENTS
280
   127
  9
$INDEXCTL
280
     0
  9
$HIDETEXT
280
     1
  9
$XCLIPFRAME
280
     2
  9
$HALOGAP
280
     0
  9
$OBSCOLOR
 70
   257
  9
$OBSLTYPE
280
     0
  9
$INTERSECTIONDISPLAY
280
     0
  9
$INTERSECTIONCOLOR
 70
   257
  9
$DIMASSOC
280
     2
  9
$PROJECTNAME
  1

  9
$CAMERADISPLAY
290
     0
  9
$LENSLENGTH
 40
50.0
  9
$CAMERAHEIGHT
 40
0.0
  9
$STEPSPERSEC
 40
2.0
  9
$STEPSIZE
 40
6.0
  9
$3DDWFPREC
 40
2.0
  9
$PSOLWIDTH
 40
0.25
  9
$PSOLHEIGHT
 40
4.0
  9
$LOFTANG1
 40
1.570796326794896
  9
$LOFTANG2
 40
1.570796326794896
  9
$LOFTMAG1
 40
0.0
  9
$LOFTMAG2
 40
0.0
  9
$LOFTPARAM
 70
     7
  9
$LOFTNORMALS
280
     1
  9
$LATITUDE
 40
37.795
  9
$LONGITUDE
 40
-122.394
  9
$NORTHDIRECTION
 40
0.0
  9
$TIMEZONE
 70
 -8000
  9
$LIGHTGLYPHDISPLAY
280
     1
  9
$TILEMODELIGHTSYNCH
280
     1
  9
$CMATERIAL
347
248
  9
$SOLIDHIST
280
     0
  9
$SHOWHIST
280
     1
  9
$DWFFRAME
280
     2
  9
$DGNFRAME
280
     0
  9
$REALWORLDSCALE
290
     1
  9
$INTERFERECOLOR
 62
     1
  9
$INTERFEREOBJVS
345
26A
  9
$INTERFEREVPVS
346
267
  9
$CSHADOW
280
     0
  9
$SHADOWPLANELOCATION
 40
0.0
  0
ENDSEC
  0
SECTION
  2
CLASSES
  0
CLASS
  1
ACDBDICTIONARYWDFLT
  2
AcDbDictionaryWithDefault
  3
ObjectDBX Classes
 90
        0
 91
        1
280
     0
281
     0
  0
CLASS
  1
DICTIONARYVAR
  2
AcDbDictionaryVar
  3
ObjectDBX Classes
 90
        0
 91
       20
280
     0
281
     0
  0
CLASS
  1
MATERIAL
  2
AcDbMaterial
  3
ObjectDBX Classes
 90
     1153
 91
        3
280
     0
281
     0
  0
CLASS
  1
VISUALSTYLE
  2
AcDbVisualStyle
  3
ObjectDBX Classes
 90
     4095
 91
       24
280
     0
281
     0
  0
CLASS
  1
TABLESTYLE
  2
AcDbTableStyle
  3
ObjectDBX Classes
 90
     4095
 91
        1
280
     0
281
     0
  0
CLASS
  1
SCALE
  2
AcDbScale
  3
ObjectDBX Classes
 90
     1153
 91
       17
280
     0
281
     0
  0
CLASS
  1
MLEADERSTYLE
  2
AcDbMLeaderStyle
  3
ACDB_MLEADERSTYLE_CLASS
 90
     4095
 91
        1
280
     0
281
     0
  0
CLASS
  1
ACDBSECTIONVIEWSTYLE
  2
AcDbSectionViewStyle
  3
ObjectDBX Classes
 90
     1025
 91
        1
280
     0
281
     0
  0
CLASS
  1
ACDBDETAILVIEWSTYLE
  2
AcDbDetailViewStyle
  3
ObjectDBX Classes
 90
     1025
 91
        1
280
     0
281
     0
  0
CLASS
  1
CELLSTYLEMAP
  2
AcDbCellStyleMap
  3
ObjectDBX Classes
 90
     1152
 91
        1
280
     0
281
     0
  0
ENDSEC
  0
SECTION
  2
TABLES
  0
TABLE
  2
VPORT
  5
8
330
0
100
AcDbSymbolTable
 70
     1
  0
VPORT
  5
245
330
8
100
AcDbSymbolTableRecord
100
AcDbViewportTableRecord
  2
*Active
 70
     0
 10
0.0
 20
0.0
 11
1.0
 21
1.0
 12
297.093027544737
 22
148.9510847405229
 13
0.0
 23
0.0
 14
10.0
 24
10.0
 15
10.0
 25
10.0
 16
0.0
 26
0.0
 36
1.0
 17
0.0
 27
0.0
 37
0.0
 40
339.1348240635036
 41
2.303330333033303
 42
50.0
 43
0.0
 44
0.0
 50
0.0
 51
0.0
 71
     0
 72
   100
 73
     1
 74
     3
 75
     0
 76
     0
 77
     0
 78
     0
281
     0
 65
     1
110
0.0
120
0.0
130
0.0
111
1.0
121
0.0
131
0.0
112
0.0
122
1.0
132
0.0
 79
     0
146
0.0
348
266
 60
     3
 61
     5
292
     1
282
     1
141
0.0
142
0.0
 63
   250
421
  3355443
1001
ACAD_NAV_VCDISPLAY
1070
     3
  0
ENDTAB
  0
TABLE
  2
LTYPE
  5
5
330
0
100
AcDbSymbolTable
 70
     2
  0
LTYPE
  5
14
330
5
100
AcDbSymbolTableRecord
100
AcDbLinetypeTableRecord
  2
ByBlock
 70
     0
  3

 72
    65
 73
     0
 40
0.0
  0
LTYPE
  5
15
330
5
100
AcDbSymbolTableRecord
100
AcDbLinetypeTableRecord
  2
ByLayer
 70
     0
  3

 72
    65
 73
     0
 40
0.0
  0
LTYPE
  5
16
330
5
100
AcDbSymbolTableRecord
100
AcDbLinetypeTableRecord
  2
Continuous
 70
     0
  3
Solid line
 72
    65
 73
     0
 40
0.0
  0
ENDTAB
  0
TABLE
  2
LAYER
  5
2
102
{ACAD_XDICTIONARY
360
2A1
102
}
330
0
100
AcDbSymbolTable
 70
     2
  0
LAYER
  5
10
102
{ACAD_XDICTIONARY
360
29A
102
}
330
2
100
AcDbSymbolTableRecord
100
AcDbLayerTableRecord
  2
0
 70
     0
 62
     7
  6
Continuous
370
    -3
390
F
347
258
348
0
  0
LAYER
  5
31
102
{ACAD_XDICTIONARY
360
29C
102
}
330
2
100
AcDbSymbolTableRecord
100
AcDbLayerTableRecord
  2
AME_FRZ
 70
     0
 62
     7
  6
Continuous
370
    -3
390
F
347
258
348
0
  0
ENDTAB
  0
TABLE
  2
STYLE
  5
3
330
0
100
AcDbSymbolTable
 70
     2
  0
STYLE
  5
11
330
3
100
AcDbSymbolTableRecord
100
AcDbTextStyleTableRecord
  2
Standard
 70
     0
 40
0.0
 41
1.0
 50
0.0
 71
     0
 42
2.5
  3
txt
  4

  0
STYLE
  5
32
330
3
100
AcDbSymbolTableRecord
100
AcDbTextStyleTableRecord
  2
ISO
 70
     0
 40
0.0
 41
1.0
 50
0.0
 71
     0
 42
2.5
  3
SIMPLEX.SHX
  4

  0
ENDTAB
  0
TABLE
  2
VIEW
  5
6
330
0
100
AcDbSymbolTable
 70
     1
  0
ENDTAB
  0
TABLE
  2
UCS
  5
7
330
0
100
AcDbSymbolTable
 70
     0
  0
ENDTAB
  0
TABLE
  2
APPID
  5
9
330
0
100
AcDbSymbolTable
 70
     4
  0
APPID
  5
12
330
9
100
AcDbSymbolTableRecord
100
AcDbRegAppTableRecord
  2
ACAD
 70
     0
  0
APPID
  5
34
330
9
100
AcDbSymbolTableRecord
100
AcDbRegAppTableRecord
  2
AME_SOL
 70
     0
  0
APPID
  5
297
330
9
100
AcDbSymbolTableRecord
100
AcDbRegAppTableRecord
  2
ACAD_EXEMPT_FROM_CAD_STANDARDS
 70
     0
  0
APPID
  5
2A7
330
9
100
AcDbSymbolTableRecord
100
AcDbRegAppTableRecord
  2
ACAD_NAV_VCDISPLAY
 70
     0
  0
ENDTAB
  0
TABLE
  2
DIMSTYLE
  5
A
330
0
100
AcDbSymbolTable
 70
     2
100
AcDbDimStyleTable
 71
     0
  0
DIMSTYLE
105
27
330
A
100
AcDbSymbolTableRecord
100
AcDbDimStyleTableRecord
  2
ISO-25
 70
     0
 41
2.5
 42
0.625
 43
3.75
 44
1.25
 73
     0
 74
     0
 77
     1
 78
     8
140
2.5
141
2.5
143
0.03937007874016
147
0.625
171
     3
172
     1
271
     2
272
     2
274
     3
278
    44
283
     0
284
     8
340
11
  0
DIMSTYLE
105
33
330
A
100
AcDbSymbolTableRecord
100
AcDbDimStyleTableRecord
  2
Standard
 70
     0
340
11
  0
ENDTAB
  0
TABLE
  2
BLOCK_RECORD
  5
1
330
0
100
AcDbSymbolTable
 70
     4
  0
BLOCK_RECORD
  5
1F
330
1
100
AcDbSymbolTableRecord
100
AcDbBlockTableRecord
  2
*Model_Space
340
22
 70
     0
280
     1
281
     0
  0
BLOCK_RECORD
  5
1B
330
1
100
AcDbSymbolTableRecord
100
AcDbBlockTableRecord
  2
*Paper_Space
340
1E
 70
     0
280
     1
281
     0
  0
BLOCK_RECORD
  5
23
330
1
100
AcDbSymbolTableRecord
100
AcDbBlockTableRecord
  2
*Paper_Space0
340
26
 70
     0
280
     1
281
     0
  0
BLOCK_RECORD
  5
2B
330
1
100
AcDbSymbolTableRecord
100
AcDbBlockTableRecord
  2
AME_NIL
340
0
102
{BLKREFS
331
36
102
}
 70
     0
280
     1
281
     0
  0
BLOCK_RECORD
  5
2E
330
1
100
AcDbSymbolTableRecord
100
AcDbBlockTableRecord
  2
AME_SOL
340
0
102
{BLKREFS
331
37
102
}
 70
     0
280
     1
281
     0
  0
BLOCK_RECORD
  5
35
330
1
100
AcDbSymbolTableRecord
100
AcDbBlockTableRecord
  2
a4
340
0
102
{BLKREFS
331
6C
331
154
102
}
 70
     0
280
     1
281
     0
  0
ENDTAB
  0
ENDSEC
  0
SECTION
  2
BLOCKS
  0
BLOCK
  5
20
330
1F
100
AcDbEntity
  8
0
100
AcDbBlockBegin
  2
*Model_Space
 70
     0
 10
0.0
 20
0.0
 30
0.0
  3
*Model_Space
  1

  0
ENDBLK
  5
21
330
1F
100
AcDbEntity
  8
0
100
AcDbBlockEnd
  0
BLOCK
  5
1C
330
1B
100
AcDbEntity
 67
     1
  8
0
100
AcDbBlockBegin
  2
*Paper_Space
 70
     0
 10
0.0
 20
0.0
 30
0.0
  3
*Paper_Space
  1

  0
ENDBLK
  5
1D
330
1B
100
AcDbEntity
 67
     1
  8
0
100
AcDbBlockEnd
  0
BLOCK
  5
24
330
23
100
AcDbEntity
 67
     1
  8
0
100
AcDbBlockBegin
  2
*Paper_Space0
 70
     0
 10
0.0
 20
0.0
 30
0.0
  3
*Paper_Space0
  1

  0
ENDBLK
  5
25
330
23
100
AcDbEntity
 67
     1
  8
0
100
AcDbBlockEnd
  0
BLOCK
  5
2C
330
2B
100
AcDbEntity
  8
0
100
AcDbBlockBegin
  2
AME_NIL
 70
     0
 10
0.0
 20
0.0
 30
0.0
  3
AME_NIL
  1
AME_NIL
  0
ENDBLK
  5
2D
330
2B
100
AcDbEntity
  8
0
100
AcDbBlockEnd
  0
BLOCK
  5
2F
330
2E
100
AcDbEntity
  8
0
100
AcDbBlockBegin
  2
AME_SOL
 70
     0
 10
0.0
 20
0.0
 30
0.0
  3
AME_SOL
  1
AME_SOL
  0
ENDBLK
  5
30
330
2E
100
AcDbEntity
  8
0
100
AcDbBlockEnd
  0
BLOCK
  5
6A
330
35
100
AcDbEntity
  8
0
100
AcDbBlockBegin
  2
a4
 70
     0
 10
0.0
 20
0.0
 30
0.0
  3
a4
  1

  0
INSERT
  5
36
330
35
100
AcDbEntity
  8
AME_FRZ
  6
Continuous
100
AcDbBlockReference
  2
AME_NIL
 10
-271.8317021406137
 20
-1.946628958635101
 30
0.0
  0
INSERT
  5
37
330
35
100
AcDbEntity
  8
AME_FRZ
  6
Continuous
100
AcDbBlockReference
  2
AME_SOL
 10
-271.8317021406137
 20
-1.946628958635101
 30
0.0
1001
AME_SOL
1000
R2.1
1000
AME2
1000
sq mm
1070
     3
1070
     0
1070
     3
1000
wire
1040
45.0
1000
U
1040
1.0
1000
mm
1000
kg
1000
MILD_STEEL
1070
    25
1000
CSG
1070
     1
1070
     3
1070
     3
1070
     8
1070
     0
1000
cu mm
1070
    12
1070
     0
1005
36
  0
LWPOLYLINE
  5
38
330
35
100
AcDbEntity
  8
0
 62
    70
100
AcDbPolyline
 90
        4
 70
     1
 43
0.0
 10
-200.0
 20
287.0
 10
-200.0
 20
10.0
 10
-10.0
 20
10.0
 10
-10.0
 20
287.0
  0
LWPOLYLINE
  5
39
330
35
100
AcDbEntity
  8
0
 62
   240
100
AcDbPolyline
 90
        4
 70
     1
 43
0.0
 10
-5.0
 20
5.0
 10
-5.0
 20
292.0
 10
-205.0
 20
292.0
 10
-205.0
 20
5.0
  0
LWPOLYLINE
  5
3A
330
35
100
AcDbEntity
  8
0
 62
   240
100
AcDbPolyline
 90
        4
 70
     1
 43
0.0
 10
0.0
 20
0.0
 10
0.0
 20
297.0
 10
-210.0
 20
297.0
 10
-210.0
 20
0.0
  0
TEXT
  5
3B
330
35
100
AcDbEntity
  8
0
 62
    50
100
AcDbText
 10
-8.583333333333333
 20
31.75
 30
0.0
 40
3.5
  1
F
  7
ISO
 72
     4
 11
-7.5
 21
33.5
 31
0.0
100
AcDbText
  0
LINE
  5
3C
330
35
100
AcDbEntity
  8
0
 62
    70
100
AcDbLine
 10
-5.0
 20
56.5
 30
0.0
 11
-10.0
 21
56.5
 31
0.0
  0
TEXT
  5
3D
330
35
100
AcDbEntity
  8
0
 62
    50
100
AcDbText
 10
-8.583333333333333
 20
77.75
 30
0.0
 40
3.5
  1
E
  7
ISO
 72
     4
 11
-7.5
 21
79.5
 31
0.0
100
AcDbText
  0
LINE
  5
3E
330
35
100
AcDbEntity
  8
0
 62
    70
100
AcDbLine
 10
-5.0
 20
102.5
 30
0.0
 11
-10.0
 21
102.5
 31
0.0
  0
TEXT
  5
3F
330
35
100
AcDbEntity
  8
0
 62
    50
100
AcDbText
 10
-8.666666666666666
 20
123.75
 30
0.0
 40
3.5
  1
D
  7
ISO
 72
     4
 11
-7.5
 21
125.5
 31
0.0
100
AcDbText
  0
TEXT
  5
40
330
35
100
AcDbEntity
  8
0
 62
    50
100
AcDbText
 10
-8.75
 20
169.75
 30
0.0
 40
3.5
  1
C
  7
ISO
 72
     4
 11
-7.5
 21
171.5
 31
0.0
100
AcDbText
  0
LINE
  5
41
330
35
100
AcDbEntity
  8
0
 62
    70
100
AcDbLine
 10
-5.0
 20
194.5
 30
0.0
 11
-10.0
 21
194.5
 31
0.0
  0
TEXT
  5
42
330
35
100
AcDbEntity
  8
0
 62
    50
100
AcDbText
 10
-8.666666666666666
 20
215.75
 30
0.0
 40
3.5
  1
B
  7
ISO
 72
     4
 11
-7.5
 21
217.5
 31
0.0
100
AcDbText
  0
LINE
  5
43
330
35
100
AcDbEntity
  8
0
 62
    70
100
AcDbLine
 10
-5.0
 20
240.5
 30
0.0
 11
-10.0
 21
240.5
 31
0.0
  0
TEXT
  5
44
330
35
100
AcDbEntity
  8
0
 62
    50
100
AcDbText
 10
-8.833333333333333
 20
261.75
 30
0.0
 40
3.5
  1
A
  7
ISO
 72
     4
 11
-7.5
 21
263.5
 31
0.0
100
AcDbText
  0
LINE
  5
45
330
35
100
AcDbEntity
  8
0
 62
    70
100
AcDbLine
 10
-200.0
 20
56.5
 30
0.0
 11
-205.0
 21
56.5
 31
0.0
  0
LINE
  5
46
330
35
100
AcDbEntity
  8
0
 62
    70
100
AcDbLine
 10
-200.0
 20
102.5
 30
0.0
 11
-205.0
 21
102.5
 31
0.0
  0
LINE
  5
47
330
35
100
AcDbEntity
  8
0
 62
    70
100
AcDbLine
 10
-200.0
 20
240.5
 30
0.0
 11
-205.0
 21
240.5
 31
0.0
  0
LINE
  5
48
330
35
100
AcDbEntity
  8
0
 62
    70
100
AcDbLine
 10
-200.0
 20
194.5
 30
0.0
 11
-205.0
 21
194.5
 31
0.0
  0
TEXT
  5
49
330
35
100
AcDbEntity
  8
0
 62
    50
100
AcDbText
 10
-35.0
 20
287.75
 30
0.0
 40
3.5
  1
4
  7
ISO
 72
     4
 11
-33.75
 21
289.5
 31
0.0
100
AcDbText
  0
TEXT
  5
4A
330
35
100
AcDbEntity
  8
0
 62
    50
100
AcDbText
 10
-82.41666666666667
 20
287.75
 30
0.0
 40
3.5
  1
3
  7
ISO
 72
     4
 11
-81.25
 21
289.5
 31
0.0
100
AcDbText
  0
TEXT
  5
4B
330
35
100
AcDbEntity
  8
0
 62
    50
100
AcDbText
 10
-129.9166666666666
 20
287.75
 30
0.0
 40
3.5
  1
2
  7
ISO
 72
     4
 11
-128.75
 21
289.5
 31
0.0
100
AcDbText
  0
TEXT
  5
4C
330
35
100
AcDbEntity
  8
0
 62
    50
100
AcDbText
 10
-176.6666666666666
 20
287.75
 30
0.0
 40
3.5
  1
1
  7
ISO
 72
     4
 11
-176.25
 21
289.5
 31
0.0
100
AcDbText
  0
LINE
  5
4D
330
35
100
AcDbEntity
  8
0
 62
    70
100
AcDbLine
 10
-57.5
 20
287.0
 30
0.0
 11
-57.5
 21
292.0
 31
0.0
  0
LINE
  5
4E
330
35
100
AcDbEntity
  8
0
 62
    70
100
AcDbLine
 10
-152.5
 20
287.0
 30
0.0
 11
-152.5
 21
292.0
 31
0.0
  0
LINE
  5
4F
330
35
100
AcDbEntity
  8
0
 62
    70
100
AcDbLine
 10
-103.75
 20
10.0
 30
0.0
 11
-105.0
 21
7.499999999999999
 31
0.0
  0
LINE
  5
50
330
35
100
AcDbEntity
  8
0
 62
    70
100
AcDbLine
 10
-105.0
 20
7.499999999999999
 30
0.0
 11
-106.25
 21
10.0
 31
0.0
  0
LINE
  5
51
330
35
100
AcDbEntity
  8
0
 62
    70
100
AcDbLine
 10
-202.5
 20
148.5
 30
0.0
 11
-197.5
 21
151.0
 31
0.0
  0
LINE
  5
52
330
35
100
AcDbEntity
  8
0
 62
    70
100
AcDbLine
 10
-197.5
 20
146.0
 30
0.0
 11
-202.5
 21
148.5
 31
0.0
  0
LINE
  5
53
330
35
100
AcDbEntity
  8
0
 62
    70
100
AcDbLine
 10
-197.5
 20
151.0
 30
0.0
 11
-197.5
 21
146.0
 31
0.0
  0
LINE
  5
54
330
35
100
AcDbEntity
  8
0
 62
    70
100
AcDbLine
 10
-105.0
 20
282.0
 30
0.0
 11
-105.0
 21
292.0
 31
0.0
  0
LINE
  5
55
330
35
100
AcDbEntity
  8
0
 62
    70
100
AcDbLine
 10
-15.0
 20
148.5
 30
0.0
 11
-5.0
 21
148.5
 31
0.0
  0
LINE
  5
56
330
35
100
AcDbEntity
  8
0
 62
    70
100
AcDbLine
 10
-205.0
 20
148.5
 30
0.0
 11
-195.0
 21
148.5
 31
0.0
  0
LINE
  5
57
330
35
100
AcDbEntity
  8
0
 62
    70
100
AcDbLine
 10
-65.0
 20
5.0
 30
0.0
 11
-65.0
 21
10.0
 31
0.0
  0
LINE
  5
58
330
35
100
AcDbEntity
  8
0
 62
    70
100
AcDbLine
 10
-75.0
 20
5.0
 30
0.0
 11
-75.0
 21
10.0
 31
0.0
  0
LINE
  5
59
330
35
100
AcDbEntity
  8
0
 62
    70
100
AcDbLine
 10
-85.0
 20
5.0
 30
0.0
 11
-85.0
 21
10.0
 31
0.0
  0
LINE
  5
5A
330
35
100
AcDbEntity
  8
0
 62
    70
100
AcDbLine
 10
-95.0
 20
5.0
 30
0.0
 11
-95.0
 21
10.0
 31
0.0
  0
LINE
  5
5B
330
35
100
AcDbEntity
  8
0
 62
    70
100
AcDbLine
 10
-115.0
 20
5.0
 30
0.0
 11
-115.0
 21
10.0
 31
0.0
  0
LINE
  5
5C
330
35
100
AcDbEntity
  8
0
 62
    70
100
AcDbLine
 10
-125.0
 20
5.0
 30
0.0
 11
-125.0
 21
10.0
 31
0.0
  0
LINE
  5
5D
330
35
100
AcDbEntity
  8
0
 62
    70
100
AcDbLine
 10
-135.0
 20
5.0
 30
0.0
 11
-135.0
 21
10.0
 31
0.0
  0
LINE
  5
5E
330
35
100
AcDbEntity
  8
0
 62
    70
100
AcDbLine
 10
-145.0
 20
5.0
 30
0.0
 11
-145.0
 21
10.0
 31
0.0
  0
LINE
  5
5F
330
35
100
AcDbEntity
  8
0
 62
    70
100
AcDbLine
 10
-55.0
 20
5.0
 30
0.0
 11
-55.0
 21
10.0
 31
0.0
  0
LINE
  5
60
330
35
100
AcDbEntity
  8
0
 62
    70
100
AcDbLine
 10
-155.0
 20
5.0
 30
0.0
 11
-155.0
 21
10.0
 31
0.0
  0
LINE
  5
61
330
35
100
AcDbEntity
  8
0
 62
    70
100
AcDbLine
 10
-105.0
 20
10.0
 30
0.0
 11
-105.0
 21
5.0
 31
0.0
  0
TEXT
  5
62
330
35
100
AcDbEntity
  8
0
 62
    50
100
AcDbText
 10
-203.8333333333333
 20
261.75
 30
0.0
 40
3.5
  1
A
  7
ISO
 72
     4
 11
-202.5
 21
263.5
 31
0.0
100
AcDbText
  0
TEXT
  5
63
330
35
100
AcDbEntity
  8
0
 62
    50
100
AcDbText
 10
-203.6666666666667
 20
215.75
 30
0.0
 40
3.5
  1
B
  7
ISO
 72
     4
 11
-202.5
 21
217.5
 31
0.0
100
AcDbText
  0
TEXT
  5
64
330
35
100
AcDbEntity
  8
0
 62
    50
100
AcDbText
 10
-203.75
 20
169.75
 30
0.0
 40
3.5
  1
C
  7
ISO
 72
     4
 11
-202.5
 21
171.5
 31
0.0
100
AcDbText
  0
TEXT
  5
65
330
35
100
AcDbEntity
  8
0
 62
    50
100
AcDbText
 10
-203.6666666666667
 20
123.75
 30
0.0
 40
3.5
  1
D
  7
ISO
 72
     4
 11
-202.5
 21
125.5
 31
0.0
100
AcDbText
  0
TEXT
  5
66
330
35
100
AcDbEntity
  8
0
 62
    50
100
AcDbText
 10
-203.5833333333334
 20
77.75
 30
0.0
 40
3.5
  1
E
  7
ISO
 72
     4
 11
-202.5
 21
79.5
 31
0.0
100
AcDbText
  0
TEXT
  5
67
330
35
100
AcDbEntity
  8
0
 62
    50
100
AcDbText
 10
-203.5833333333334
 20
31.75
 30
0.0
 40
3.5
  1
F
  7
ISO
 72
     4
 11
-202.5
 21
33.5
 31
0.0
100
AcDbText
  0
TEXT
  5
68
330
35
100
AcDbEntity
  8
0
 62
    50
100
AcDbText
 10
-176.6666666666666
 20
5.749999999999972
 30
0.0
 40
3.5
  1
1
  7
ISO
 72
     4
 11
-176.25
 21
7.499999999999972
 31
0.0
100
AcDbText
  0
TEXT
  5
69
330
35
100
AcDbEntity
  8
0
 62
    50
100
AcDbText
 10
-35.0
 20
5.749999999999972
 30
0.0
 40
3.5
  1
4
  7
ISO
 72
     4
 11
-33.75
 21
7.499999999999972
 31
0.0
100
AcDbText
  0
ENDBLK
  5
6B
330
35
100
AcDbEntity
  8
0
100
AcDbBlockEnd
  0
ENDSEC
  0
SECTION
  2
ENTITIES
  0
INSERT
  5
6C
330
1F
100
AcDbEntity
  8
0
100
AcDbBlockReference
  2
a4
 10
250.7117068658617
 20
3.755836042580426
 30
0.0
  0
TEXT
  5
74
330
1F
100
AcDbEntity
  8
0
 62
     2
100
AcDbText
 10
79.51084885763612
 20
279.376459610976
 30
0.0
 40
2.5
  1
BORDEROU DESENE - PARTE ELECTRICA VAGON V3A-93-2S-Pag.1/2
100
AcDbText
  0
LINE
  5
75
330
1F
100
AcDbEntity
  8
0
 62
     2
100
AcDbLine
 10
57.5451312131197
 20
275.9095335063207
 30
0.0
 11
233.9397585534978
 21
275.9095335063207
 31
0.0
  0
LINE
  5
76
330
1F
100
AcDbEntity
  8
0
 62
     2
100
AcDbLine
 10
233.9397585534978
 20
275.9095335063207
 30
0.0
 11
233.9397585534978
 21
17.27056245998267
 31
0.0
  0
LINE
  5
77
330
1F
100
AcDbEntity
  8
0
 62
     2
100
AcDbLine
 10
57.5451312131197
 20
275.9095335063207
 30
0.0
 11
57.5451312131197
 21
17.27056245998267
 31
0.0
  0
TEXT
  5
78
330
1F
100
AcDbEntity
  8
0
 62
     2
100
AcDbText
 10
59.12835678208148
 20
272.4689984896017
 30
0.0
 40
2.5
  1
Nr.
100
AcDbText
  0
TEXT
  5
79
330
1F
100
AcDbEntity
  8
0
 62
     2
100
AcDbText
 10
59.59365404490563
 20
269.2148599848334
 30
0.0
 40
2.5
  1
crt.
100
AcDbText
  0
TEXT
  5
7A
330
1F
100
AcDbEntity
  8
0
 62
     2
100
AcDbText
 10
77.9273420194163
 20
271.0359970070841
 30
0.0
 40
2.5
  1
Denumire document
100
AcDbText
  0
TEXT
  5
7B
330
1F
100
AcDbEntity
  8
0
 62
     2
100
AcDbText
 10
156.8614413878501
 20
271.0320650935106
 30
0.0
 40
2.5
  1
Numar desen 
100
AcDbText
  0
TEXT
  5
7C
330
1F
100
AcDbEntity
  8
0
 62
     2
100
AcDbText
 10
219.8826774333809
 20
271.3331299302029
 30
0.0
 40
2.5
  1
Obs.
100
AcDbText
  0
LINE
  5
7D
330
1F
100
AcDbEntity
  8
0
 62
     2
100
AcDbLine
 10
68.78060030041365
 20
275.9095335063207
 30
0.0
 11
68.78060030041364
 21
17.27056245998267
 31
0.0
  0
LINE
  5
7E
330
1F
100
AcDbEntity
  8
0
 62
     2
100
AcDbLine
 10
213.0023536267008
 20
275.9095335063207
 30
0.0
 11
213.0023536267008
 21
17.27056245998267
 31
0.0
  0
LINE
  5
7F
330
1F
100
AcDbEntity
  8
0
 62
     2
100
AcDbLine
 10
149.1585437634592
 20
275.9095335063207
 30
0.0
 11
149.1585437634592
 21
17.27056245998267
 31
0.0
  0
LINE
  5
80
330
1F
100
AcDbEntity
  8
0
 62
     2
100
AcDbLine
 10
57.5451312131197
 20
267.5663406208574
 30
0.0
 11
233.9397585534978
 21
267.5663406208574
 31
0.0
  0
TEXT
  5
81
330
1F
100
AcDbEntity
  8
0
 62
     2
100
AcDbText
 10
62.50526352185966
 20
264.0839011389428
 30
0.0
 40
2.5
  1
1
100
AcDbText
  0
TEXT
  5
83
330
1F
100
AcDbEntity
  8
0
 62
     2
100
AcDbText
 10
70.41168412064826
 20
263.9197292170191
 30
0.0
 40
2.5
  1
Schema de tractiune
100
AcDbText
  0
LINE
  5
84
330
1F
100
AcDbEntity
  8
0
 62
     2
100
AcDbLine
 10
57.5451312131197
 20
262.3518452425059
 30
0.0
 11
233.9397585534978
 21
262.3518452425059
 31
0.0
  0
LINE
  5
85
330
1F
100
AcDbEntity
  8
0
 62
     2
100
AcDbLine
 10
57.5451312131197
 20
257.1373498641543
 30
0.0
 11
233.9397585534978
 21
257.1373498641543
 31
0.0
  0
LINE
  5
86
330
1F
100
AcDbEntity
  8
0
 62
     2
100
AcDbLine
 10
57.5451312131197
 20
246.7083591074512
 30
0.0
 11
233.9397585534978
 21
246.7083591074512
 31
0.0
  0
LINE
  5
87
330
1F
100
AcDbEntity
  8
0
 62
     2
100
AcDbLine
 10
57.5451312131197
 20
251.9228544858028
 30
0.0
 11
233.9397585534978
 21
251.9228544858028
 31
0.0
  0
LINE
  5
88
330
1F
100
AcDbEntity
  8
0
 62
     2
100
AcDbLine
 10
57.5451312131197
 20
231.0648729723965
 30
0.0
 11
233.9397585534978
 21
231.0648729723965
 31
0.0
  0
LINE
  5
89
330
1F
100
AcDbEntity
  8
0
 62
     2
100
AcDbLine
 10
57.5451312131197
 20
225.850377594045
 30
0.0
 11
233.9397585534978
 21
225.850377594045
 31
0.0
  0
LINE
  5
8A
330
1F
100
AcDbEntity
  8
0
 62
     2
100
AcDbLine
 10
57.5451312131197
 20
236.2793683507481
 30
0.0
 11
233.9397585534978
 21
236.2793683507481
 31
0.0
  0
LINE
  5
8B
330
1F
100
AcDbEntity
  8
0
 62
     2
100
AcDbLine
 10
57.5451312131197
 20
241.4938637290997
 30
0.0
 11
233.9397585534978
 21
241.4938637290997
 31
0.0
  0
LINE
  5
8C
330
1F
100
AcDbEntity
  8
0
 62
     2
100
AcDbLine
 10
57.5451312131197
 20
199.7779007022872
 30
0.0
 11
233.9397585534978
 21
199.7779007022872
 31
0.0
  0
LINE
  5
8D
330
1F
100
AcDbEntity
  8
0
 62
     2
100
AcDbLine
 10
57.5451312131197
 20
194.5634053239356
 30
0.0
 11
233.9397585534978
 21
194.5634053239356
 31
0.0
  0
LINE
  5
8E
330
1F
100
AcDbEntity
  8
0
 62
     2
100
AcDbLine
 10
57.5451312131197
 20
184.1344145672325
 30
0.0
 11
233.9397585534978
 21
184.1344145672325
 31
0.0
  0
LINE
  5
8F
330
1F
100
AcDbEntity
  8
0
 62
     2
100
AcDbLine
 10
57.5451312131197
 20
189.348909945584
 30
0.0
 11
233.9397585534978
 21
189.348909945584
 31
0.0
  0
LINE
  5
90
330
1F
100
AcDbEntity
  8
0
 62
     2
100
AcDbLine
 10
57.5451312131197
 20
210.2068914589903
 30
0.0
 11
233.9397585534978
 21
210.2068914589903
 31
0.0
  0
LINE
  5
91
330
1F
100
AcDbEntity
  8
0
 62
     2
100
AcDbLine
 10
57.5451312131197
 20
204.9923960806387
 30
0.0
 11
233.9397585534978
 21
204.9923960806387
 31
0.0
  0
LINE
  5
92
330
1F
100
AcDbEntity
  8
0
 62
     2
100
AcDbLine
 10
57.5451312131197
 20
215.4213868373418
 30
0.0
 11
233.9397585534978
 21
215.4213868373418
 31
0.0
  0
LINE
  5
93
330
1F
100
AcDbEntity
  8
0
 62
     2
100
AcDbLine
 10
57.5451312131197
 20
220.6358822156934
 30
0.0
 11
233.9397585534978
 21
220.6358822156934
 31
0.0
  0
LINE
  5
94
330
1F
100
AcDbEntity
  8
0
 62
     2
100
AcDbLine
 10
57.5451312131197
 20
137.2039561620685
 30
0.0
 11
233.9397585534978
 21
137.2039561620685
 31
0.0
  0
LINE
  5
95
330
1F
100
AcDbEntity
  8
0
 62
     2
100
AcDbLine
 10
57.5451312131197
 20
131.9894607837169
 30
0.0
 11
233.9397585534978
 21
131.9894607837169
 31
0.0
  0
LINE
  5
96
330
1F
100
AcDbEntity
  8
0
 62
     2
100
AcDbLine
 10
57.5451312131197
 20
121.5604700270138
 30
0.0
 11
233.9397585534978
 21
121.5604700270138
 31
0.0
  0
LINE
  5
97
330
1F
100
AcDbEntity
  8
0
 62
     2
100
AcDbLine
 10
57.5451312131197
 20
126.7749654053654
 30
0.0
 11
233.9397585534978
 21
126.7749654053654
 31
0.0
  0
LINE
  5
98
330
1F
100
AcDbEntity
  8
0
 62
     2
100
AcDbLine
 10
57.5451312131197
 20
105.9169838919591
 30
0.0
 11
233.9397585534978
 21
105.9169838919591
 31
0.0
  0
LINE
  5
99
330
1F
100
AcDbEntity
  8
0
 62
     2
100
AcDbLine
 10
57.5451312131197
 20
100.7024885136076
 30
0.0
 11
233.9397585534978
 21
100.7024885136076
 31
0.0
  0
LINE
  5
9A
330
1F
100
AcDbEntity
  8
0
 62
     2
100
AcDbLine
 10
57.5451312131197
 20
111.1314792703107
 30
0.0
 11
233.9397585534978
 21
111.1314792703107
 31
0.0
  0
LINE
  5
9B
330
1F
100
AcDbEntity
  8
0
 62
     2
100
AcDbLine
 10
57.5451312131197
 20
116.3459746486622
 30
0.0
 11
233.9397585534978
 21
116.3459746486622
 31
0.0
  0
LINE
  5
9C
330
1F
100
AcDbEntity
  8
0
 62
     2
100
AcDbLine
 10
57.5451312131197
 20
158.0619376754747
 30
0.0
 11
233.9397585534978
 21
158.0619376754747
 31
0.0
  0
LINE
  5
9D
330
1F
100
AcDbEntity
  8
0
 62
     2
100
AcDbLine
 10
57.5451312131197
 20
152.8474422971231
 30
0.0
 11
233.9397585534978
 21
152.8474422971231
 31
0.0
  0
LINE
  5
9E
330
1F
100
AcDbEntity
  8
0
 62
     2
100
AcDbLine
 10
57.5451312131197
 20
142.41845154042
 30
0.0
 11
233.9397585534978
 21
142.41845154042
 31
0.0
  0
LINE
  5
9F
330
1F
100
AcDbEntity
  8
0
 62
     2
100
AcDbLine
 10
57.5451312131197
 20
147.6329469187716
 30
0.0
 11
233.9397585534978
 21
147.6329469187716
 31
0.0
  0
LINE
  5
A0
330
1F
100
AcDbEntity
  8
0
 62
     2
100
AcDbLine
 10
57.5451312131197
 20
168.4909284321778
 30
0.0
 11
233.9397585534978
 21
168.4909284321778
 31
0.0
  0
LINE
  5
A1
330
1F
100
AcDbEntity
  8
0
 62
     2
100
AcDbLine
 10
57.5451312131197
 20
163.2764330538263
 30
0.0
 11
233.9397585534978
 21
163.2764330538263
 31
0.0
  0
LINE
  5
A2
330
1F
100
AcDbEntity
  8
0
 62
     2
100
AcDbLine
 10
57.5451312131197
 20
173.7054238105294
 30
0.0
 11
233.9397585534978
 21
173.7054238105294
 31
0.0
  0
LINE
  5
A3
330
1F
100
AcDbEntity
  8
0
 62
     2
100
AcDbLine
 10
57.5451312131197
 20
178.9199191888809
 30
0.0
 11
233.9397585534978
 21
178.9199191888809
 31
0.0
  0
LINE
  5
A4
330
1F
100
AcDbEntity
  8
0
 62
     2
100
AcDbLine
 10
57.5451312131197
 20
79.84450700020136
 30
0.0
 11
233.9397585534978
 21
79.84450700020136
 31
0.0
  0
LINE
  5
A5
330
1F
100
AcDbEntity
  8
0
 62
     2
100
AcDbLine
 10
57.5451312131197
 20
74.6300116218498
 30
0.0
 11
233.9397585534978
 21
74.6300116218498
 31
0.0
  0
LINE
  5
A6
330
1F
100
AcDbEntity
  8
0
 62
     2
100
AcDbLine
 10
57.5451312131197
 20
64.20102086514669
 30
0.0
 11
233.9397585534978
 21
64.20102086514669
 31
0.0
  0
LINE
  5
A7
330
1F
100
AcDbEntity
  8
0
 62
     2
100
AcDbLine
 10
57.5451312131197
 20
69.41551624349824
 30
0.0
 11
233.9397585534978
 21
69.41551624349824
 31
0.0
  0
LINE
  5
A8
330
1F
100
AcDbEntity
  8
0
 62
     2
100
AcDbLine
 10
57.5451312131197
 20
48.55753473009201
 30
0.0
 11
233.9397585534978
 21
48.55753473009201
 31
0.0
  0
LINE
  5
A9
330
1F
100
AcDbEntity
  8
0
 62
     2
100
AcDbLine
 10
57.5451312131197
 20
43.34303935174045
 30
0.0
 11
233.9397585534978
 21
43.34303935174045
 31
0.0
  0
LINE
  5
AA
330
1F
100
AcDbEntity
  8
0
 62
     2
100
AcDbLine
 10
57.5451312131197
 20
53.77203010844358
 30
0.0
 11
233.9397585534978
 21
53.77203010844358
 31
0.0
  0
LINE
  5
AB
330
1F
100
AcDbEntity
  8
0
 62
     2
100
AcDbLine
 10
57.5451312131197
 20
58.98652548679513
 30
0.0
 11
233.9397585534978
 21
58.98652548679513
 31
0.0
  0
LINE
  5
AC
330
1F
100
AcDbEntity
  8
0
 62
     2
100
AcDbLine
 10
57.5451312131197
 20
17.27056245998267
 30
0.0
 11
233.9397585534978
 21
17.27056245998267
 31
0.0
  0
LINE
  5
B0
330
1F
100
AcDbEntity
  8
0
 62
     2
100
AcDbLine
 10
57.5451312131197
 20
27.69955321668579
 30
0.0
 11
233.9397585534978
 21
27.69955321668579
 31
0.0
  0
LINE
  5
B1
330
1F
100
AcDbEntity
  8
0
 62
     2
100
AcDbLine
 10
57.5451312131197
 20
22.48505783833423
 30
0.0
 11
233.9397585534978
 21
22.48505783833423
 31
0.0
  0
LINE
  5
B2
330
1F
100
AcDbEntity
  8
0
 62
     2
100
AcDbLine
 10
57.5451312131197
 20
32.91404859503734
 30
0.0
 11
233.9397585534978
 21
32.91404859503734
 31
0.0
  0
LINE
  5
B3
330
1F
100
AcDbEntity
  8
0
 62
     2
100
AcDbLine
 10
57.5451312131197
 20
38.1285439733889
 30
0.0
 11
233.9397585534978
 21
38.1285439733889
 31
0.0
  0
LINE
  5
B4
330
1F
100
AcDbEntity
  8
0
 62
     2
100
AcDbLine
 10
57.5451312131197
 20
90.27349775690447
 30
0.0
 11
233.9397585534978
 21
90.27349775690447
 31
0.0
  0
LINE
  5
B5
330
1F
100
AcDbEntity
  8
0
 62
     2
100
AcDbLine
 10
57.5451312131197
 20
85.05900237855291
 30
0.0
 11
233.9397585534978
 21
85.05900237855291
 31
0.0
  0
LINE
  5
B6
330
1F
100
AcDbEntity
  8
0
 62
     2
100
AcDbLine
 10
57.5451312131197
 20
95.48799313525604
 30
0.0
 11
233.9397585534978
 21
95.48799313525604
 31
0.0
  0
TEXT
  5
B7
330
1F
100
AcDbEntity
  8
0
 62
     2
100
AcDbText
 10
150.7896275836938
 20
263.9197292170191
 30
0.0
 40
2.5
  1
V3A-93-2S-E-01
100
AcDbText
  0
TEXT
  5
B8
330
1F
100
AcDbEntity
  8
0
 62
     2
100
AcDbText
 10
214.6334374469354
 20
263.9197292170191
 30
0.0
 40
2.5
  1
Pl.1/2
100
AcDbText
  0
TEXT
  5
B9
330
1F
100
AcDbEntity
  8
0
 62
     2
100
AcDbText
 10
62.50526352185966
 20
258.8694057605912
 30
0.0
 40
2.5
  1
2
100
AcDbText
  0
TEXT
  5
BA
330
1F
100
AcDbEntity
  8
0
 62
     2
100
AcDbText
 10
70.41168412064826
 20
258.7052338386676
 30
0.0
 40
2.5
  1
Schema desfasurata controler
100
AcDbText
  0
TEXT
  5
BB
330
1F
100
AcDbEntity
  8
0
 62
     2
100
AcDbText
 10
150.7896275836938
 20
258.7052338386676
 30
0.0
 40
2.5
  1
V3A-93-2S-E-01
100
AcDbText
  0
TEXT
  5
BC
330
1F
100
AcDbEntity
  8
0
 62
     2
100
AcDbText
 10
214.6334374469354
 20
258.7052338386676
 30
0.0
 40
2.5
  1
Pl.2/2
100
AcDbText
  0
TEXT
  5
BD
330
1F
100
AcDbEntity
  8
0
 62
     2
100
AcDbText
 10
62.50526352185966
 20
253.6549103822397
 30
0.0
 40
2.5
  1
3
100
AcDbText
  0
TEXT
  5
BE
330
1F
100
AcDbEntity
  8
0
 62
     2
100
AcDbText
 10
70.41168412064826
 20
253.490738460316
 30
0.0
 40
2.5
  1
Schema servicii auxiliare 1
100
AcDbText
  0
TEXT
  5
BF
330
1F
100
AcDbEntity
  8
0
 62
     2
100
AcDbText
 10
150.7896275836938
 20
253.490738460316
 30
0.0
 40
2.5
  1
V3A-93-2S-E-02-01
100
AcDbText
  0
TEXT
  5
C2
330
1F
100
AcDbEntity
  8
0
 62
     2
100
AcDbText
 10
150.7896275836938
 20
248.2762430819645
 30
0.0
 40
2.5
  1
V3A-93-2S-E-02-02
100
AcDbText
  0
TEXT
  5
C3
330
1F
100
AcDbEntity
  8
0
 62
     2
100
AcDbText
 10
70.41168412064826
 20
248.2762430819645
 30
0.0
 40
2.5
  1
Schema de vitezometru
100
AcDbText
  0
TEXT
  5
C4
330
1F
100
AcDbEntity
  8
0
 62
     2
100
AcDbText
 10
62.50526352185966
 20
248.4404150038881
 30
0.0
 40
2.5
  1
4
100
AcDbText
  0
TEXT
  5
C5
330
1F
100
AcDbEntity
  8
0
 62
     2
100
AcDbText
 10
70.41168412064826
 20
243.0617477036129
 30
0.0
 40
2.5
  1
Schema frana cu patina
100
AcDbText
  0
TEXT
  5
C6
330
1F
100
AcDbEntity
  8
0
 62
     2
100
AcDbText
 10
150.7896275836938
 20
243.0617477036129
 30
0.0
 40
2.5
  1
V3A-93-2S-E-03-01
100
AcDbText
  0
TEXT
  5
C7
330
1F
100
AcDbEntity
  8
0
 62
     2
100
AcDbText
 10
62.50526352185966
 20
243.2259196255365
 30
0.0
 40
2.5
  1
5
100
AcDbText
  0
TEXT
  5
C8
330
1F
100
AcDbEntity
  8
0
 62
     2
100
AcDbText
 10
62.50526352185966
 20
238.011424247185
 30
0.0
 40
2.5
  1
6
100
AcDbText
  0
TEXT
  5
C9
330
1F
100
AcDbEntity
  8
0
 62
     2
100
AcDbText
 10
70.41168412064826
 20
237.8472523252614
 30
0.0
 40
2.5
  1
Schema frana Hanning & Kahl
100
AcDbText
  0
TEXT
  5
CA
330
1F
100
AcDbEntity
  8
0
 62
     2
100
AcDbText
 10
150.7896275836938
 20
237.8472523252614
 30
0.0
 40
2.5
  1
V3A-93-2S-E-03-02
100
AcDbText
  0
TEXT
  5
CB
330
1F
100
AcDbEntity
  8
0
 62
     2
100
AcDbText
 10
70.41168412064826
 20
232.6327569469098
 30
0.0
 40
2.5
  1
Schema frana cu solenoid-nisipare
100
AcDbText
  0
TEXT
  5
CC
330
1F
100
AcDbEntity
  8
0
 62
     2
100
AcDbText
 10
62.50526352185966
 20
232.7969288688334
 30
0.0
 40
2.5
  1
7
100
AcDbText
  0
TEXT
  5
CD
330
1F
100
AcDbEntity
  8
0
 62
     2
100
AcDbText
 10
150.7896275836938
 20
232.6327569469098
 30
0.0
 40
2.5
  1
V3A-93-2S-E-03-03
100
AcDbText
  0
TEXT
  5
CE
330
1F
100
AcDbEntity
  8
0
 62
     2
100
AcDbText
 10
62.50526352185966
 20
227.5824334904819
 30
0.0
 40
2.5
  1
8
100
AcDbText
  0
TEXT
  5
CF
330
1F
100
AcDbEntity
  8
0
 62
     2
100
AcDbText
 10
70.41168412064826
 20
227.4182615685583
 30
0.0
 40
2.5
  1
Schema de climatizare
100
AcDbText
  0
TEXT
  5
D0
330
1F
100
AcDbEntity
  8
0
 62
     2
100
AcDbText
 10
150.7896275836938
 20
227.4182615685583
 30
0.0
 40
2.5
  1
V3A-93-2S-E-04
100
AcDbText
  0
TEXT
  5
D1
330
1F
100
AcDbEntity
  8
0
 62
     2
100
AcDbText
 10
62.50526352185966
 20
222.3679381121304
 30
0.0
 40
2.5
  1
9
100
AcDbText
  0
TEXT
  5
D2
330
1F
100
AcDbEntity
  8
0
 62
     2
100
AcDbText
 10
70.41168412064826
 20
222.2037661902067
 30
0.0
 40
2.5
  1
Schema de semnalizari
100
AcDbText
  0
TEXT
  5
D3
330
1F
100
AcDbEntity
  8
0
 62
     2
100
AcDbText
 10
150.7896275836938
 20
222.2037661902067
 30
0.0
 40
2.5
  1
V3A-93-2S-E-05
100
AcDbText
  0
TEXT
  5
D4
330
1F
100
AcDbEntity
  8
0
 62
     2
100
AcDbText
 10
62.50526352185966
 20
217.1534427337788
 30
0.0
 40
2.5
  1
10
100
AcDbText
  0
TEXT
  5
D5
330
1F
100
AcDbEntity
  8
0
 62
     2
100
AcDbText
 10
70.41168412064826
 20
216.9892708118551
 30
0.0
 40
2.5
  1
Schema de iluminat
100
AcDbText
  0
TEXT
  5
D6
330
1F
100
AcDbEntity
  8
0
 62
     2
100
AcDbText
 10
150.7896275836938
 20
216.9892708118551
 30
0.0
 40
2.5
  1
V3A-93-2S-E-06
100
AcDbText
  0
TEXT
  5
D7
330
1F
100
AcDbEntity
  8
0
 62
     2
100
AcDbText
 10
62.50526352185966
 20
211.9389473554272
 30
0.0
 40
2.5
  1
11
100
AcDbText
  0
TEXT
  5
D8
330
1F
100
AcDbEntity
  8
0
 62
     2
100
AcDbText
 10
70.41168412064826
 20
211.7747754335036
 30
0.0
 40
2.5
  1
Schema de actionare usi IFE
100
AcDbText
  0
TEXT
  5
D9
330
1F
100
AcDbEntity
  8
0
 62
     2
100
AcDbText
 10
150.7896275836938
 20
211.7747754335036
 30
0.0
 40
2.5
  1
V3A-93-2S-E-07
100
AcDbText
  0
TEXT
  5
DA
330
1F
100
AcDbEntity
  8
0
 62
     2
100
AcDbText
 10
70.41168412064826
 20
206.560280055152
 30
0.0
 40
2.5
  1
Schema de impamantare
100
AcDbText
  0
TEXT
  5
DB
330
1F
100
AcDbEntity
  8
0
 62
     2
100
AcDbText
 10
62.50526352185966
 20
206.3064808110499
 30
0.0
 40
2.5
  1
12
100
AcDbText
  0
TEXT
  5
DC
330
1F
100
AcDbEntity
  8
0
 62
     2
100
AcDbText
 10
150.7896275836938
 20
206.560280055152
 30
0.0
 40
2.5
  1
V3A-93-2S-E-09
100
AcDbText
  0
TEXT
  5
DF
330
1F
100
AcDbEntity
  8
0
 62
     2
100
AcDbText
 10
62.29608941756215
 20
200.8829994995597
 30
0.0
 40
2.5
  1
13
100
AcDbText
  0
TEXT
  5
E0
330
1F
100
AcDbEntity
  8
0
 62
     2
100
AcDbText
 10
70.41168412064826
 20
201.3457846768005
 30
0.0
 40
2.5
  1
Amplasare panouri aparate
100
AcDbText
  0
TEXT
  5
E1
330
1F
100
AcDbEntity
  8
0
 62
     2
100
AcDbText
 10
150.7896275836938
 20
201.3457846768005
 30
0.0
 40
2.5
  1
V3A-93-2S-E-APA
100
AcDbText
  0
TEXT
  5
E6
330
1F
100
AcDbEntity
  8
0
 62
     2
100
AcDbText
 10
62.29608941756215
 20
195.6685041212081
 30
0.0
 40
2.5
  1
14
100
AcDbText
  0
TEXT
  5
E7
330
1F
100
AcDbEntity
  8
0
 62
     2
100
AcDbText
 10
70.41168412064826
 20
196.1312892984489
 30
0.0
 40
2.5
  1
Montaj aparataj dulap cabina
100
AcDbText
  0
TEXT
  5
E8
330
1F
100
AcDbEntity
  8
0
 62
     2
100
AcDbText
 10
150.7896275836938
 20
196.1312892984489
 30
0.0
 40
2.5
  1
V3A-93-2S-E-MA-DC
100
AcDbText
  0
TEXT
  5
E9
330
1F
100
AcDbEntity
  8
0
 62
     2
100
AcDbText
 10
62.29608941756215
 20
190.4540087428565
 30
0.0
 40
2.5
  1
15
100
AcDbText
  0
TEXT
  5
EA
330
1F
100
AcDbEntity
  8
0
 62
     2
100
AcDbText
 10
70.41168412064826
 20
190.9167939200973
 30
0.0
 40
2.5
  1
Tablou bord
100
AcDbText
  0
TEXT
  5
EB
330
1F
100
AcDbEntity
  8
0
 62
     2
100
AcDbText
 10
150.7896275836938
 20
190.9167939200973
 30
0.0
 40
2.5
  1
V3A-93-2S-E-TB 1;2
100
AcDbText
  0
TEXT
  5
EC
330
1F
100
AcDbEntity
  8
0
 62
     2
100
AcDbText
 10
62.29608941756215
 20
185.239513364505
 30
0.0
 40
2.5
  1
16
100
AcDbText
  0
TEXT
  5
ED
330
1F
100
AcDbEntity
  8
0
 62
     2
100
AcDbText
 10
70.41168412064826
 20
185.7022985417458
 30
0.0
 40
2.5
  1
Panou contactor linie
100
AcDbText
  0
TEXT
  5
EE
330
1F
100
AcDbEntity
  8
0
 62
     2
100
AcDbText
 10
150.7896275836938
 20
185.7022985417458
 30
0.0
 40
2.5
  1
V3A-93-2S-E-PCL 1;2
100
AcDbText
  0
TEXT
  5
EF
330
1F
100
AcDbEntity
  8
0
 62
     2
100
AcDbText
 10
70.41168412064826
 20
180.4878031633942
 30
0.0
 40
2.5
  1
Panou aparate I.T.1;I.T.2
100
AcDbText
  0
TEXT
  5
F0
330
1F
100
AcDbEntity
  8
0
 62
     2
100
AcDbText
 10
150.7896275836938
 20
180.4878031633942
 30
0.0
 40
2.5
  1
V3A-93-2S-E-PA-I.T.1;I.T.2
100
AcDbText
  0
TEXT
  5
F1
330
1F
100
AcDbEntity
  8
0
 62
     2
100
AcDbText
 10
62.29608941756215
 20
180.0250179861534
 30
0.0
 40
2.5
  1
17
100
AcDbText
  0
TEXT
  5
F2
330
1F
100
AcDbEntity
  8
0
 62
     2
100
AcDbText
 10
62.29608941756215
 20
174.8105226078019
 30
0.0
 40
2.5
  1
18
100
AcDbText
  0
TEXT
  5
F3
330
1F
100
AcDbEntity
  8
0
 62
     2
100
AcDbText
 10
70.41168412064826
 20
175.2733077850427
 30
0.0
 40
2.5
  1
Panou aparate J.T.
100
AcDbText
  0
TEXT
  5
F4
330
1F
100
AcDbEntity
  8
0
 62
     2
100
AcDbText
 10
150.7896275836938
 20
175.2733077850427
 30
0.0
 40
2.5
  1
V3A-93-2S-E-PA-J.T.
100
AcDbText
  0
TEXT
  5
F5
330
1F
100
AcDbEntity
  8
0
 62
     2
100
AcDbText
 10
62.29608941756215
 20
169.5960272294503
 30
0.0
 40
2.5
  1
19
100
AcDbText
  0
TEXT
  5
F6
330
1F
100
AcDbEntity
  8
0
 62
     2
100
AcDbText
 10
70.41168412064826
 20
170.0588124066911
 30
0.0
 40
2.5
  1
Panou monopolari 1;2
100
AcDbText
  0
TEXT
  5
F7
330
1F
100
AcDbEntity
  8
0
 62
     2
100
AcDbText
 10
150.7896275836938
 20
170.0588124066911
 30
0.0
 40
2.5
  1
V3A-93-2S-E-PM-1;2
100
AcDbText
  0
TEXT
  5
F8
330
1F
100
AcDbEntity
  8
0
 62
     2
100
AcDbText
 10
62.29608941756215
 20
164.3815318510988
 30
0.0
 40
2.5
  1
20
100
AcDbText
  0
TEXT
  5
F9
330
1F
100
AcDbEntity
  8
0
 62
     2
100
AcDbText
 10
70.41168412064826
 20
164.8443170283395
 30
0.0
 40
2.5
  1
Panou aparate P0.1;P0.2
100
AcDbText
  0
TEXT
  5
FA
330
1F
100
AcDbEntity
  8
0
 62
     2
100
AcDbText
 10
150.7896275836938
 20
164.8443170283395
 30
0.0
 40
2.5
  1
V3A-93-2S-E-PA-0.1;0.2
100
AcDbText
  0
TEXT
  5
FB
330
1F
100
AcDbEntity
  8
0
 62
     2
100
AcDbText
 10
62.29608941756215
 20
159.1670364727472
 30
0.0
 40
2.5
  1
21
100
AcDbText
  0
TEXT
  5
FC
330
1F
100
AcDbEntity
  8
0
 62
     2
100
AcDbText
 10
70.41168412064826
 20
159.629821649988
 30
0.0
 40
2.5
  1
Panou aparate P1.1
100
AcDbText
  0
TEXT
  5
FD
330
1F
100
AcDbEntity
  8
0
 62
     2
100
AcDbText
 10
150.7896275836938
 20
159.629821649988
 30
0.0
 40
2.5
  1
V3A-93-2S-E-PA-1.1
100
AcDbText
  0
TEXT
  5
FE
330
1F
100
AcDbEntity
  8
0
 62
     2
100
AcDbText
 10
62.29608941756215
 20
153.9525410943956
 30
0.0
 40
2.5
  1
22
100
AcDbText
  0
TEXT
  5
FF
330
1F
100
AcDbEntity
  8
0
 62
     2
100
AcDbText
 10
70.41168412064826
 20
154.4153262716364
 30
0.0
 40
2.5
  1
Panou aparate P1.2
100
AcDbText
  0
TEXT
  5
100
330
1F
100
AcDbEntity
  8
0
 62
     2
100
AcDbText
 10
150.7896275836938
 20
154.4153262716364
 30
0.0
 40
2.5
  1
V3A-93-2S-E-PA-1.2
100
AcDbText
  0
TEXT
  5
101
330
1F
100
AcDbEntity
  8
0
 62
     2
100
AcDbText
 10
70.41168412064826
 20
149.2008308932849
 30
0.0
 40
2.5
  1
Panou aparate P2.1;P5.1
100
AcDbText
  0
TEXT
  5
102
330
1F
100
AcDbEntity
  8
0
 62
     2
100
AcDbText
 10
62.29608941756215
 20
148.7380457160441
 30
0.0
 40
2.5
  1
23
100
AcDbText
  0
TEXT
  5
103
330
1F
100
AcDbEntity
  8
0
 62
     2
100
AcDbText
 10
150.7896275836938
 20
149.2008308932849
 30
0.0
 40
2.5
  1
V3A-93-2S-E-PA-2.1;5.1
100
AcDbText
  0
TEXT
  5
104
330
1F
100
AcDbEntity
  8
0
 62
     2
100
AcDbText
 10
62.29608941756215
 20
143.5235503376925
 30
0.0
 40
2.5
  1
24
100
AcDbText
  0
TEXT
  5
105
330
1F
100
AcDbEntity
  8
0
 62
     2
100
AcDbText
 10
70.41168412064826
 20
143.9863355149333
 30
0.0
 40
2.5
  1
Panou aparate P2.2;P5.2
100
AcDbText
  0
TEXT
  5
106
330
1F
100
AcDbEntity
  8
0
 62
     2
100
AcDbText
 10
150.7896275836938
 20
143.9863355149333
 30
0.0
 40
2.5
  1
V3A-93-2S-E-PA-2.2;5.2
100
AcDbText
  0
TEXT
  5
107
330
1F
100
AcDbEntity
  8
0
 62
     2
100
AcDbText
 10
70.41168412064826
 20
138.7718401365817
 30
0.0
 40
2.5
  1
Panou aparate P3.1;P3.2
100
AcDbText
  0
TEXT
  5
108
330
1F
100
AcDbEntity
  8
0
 62
     2
100
AcDbText
 10
62.29608941756215
 20
138.309054959341
 30
0.0
 40
2.5
  1
24
100
AcDbText
  0
TEXT
  5
109
330
1F
100
AcDbEntity
  8
0
 62
     2
100
AcDbText
 10
150.7896275836938
 20
138.7718401365817
 30
0.0
 40
2.5
  1
V3A-93-2S-E-PA-3.1;3.2
100
AcDbText
  0
TEXT
  5
10A
330
1F
100
AcDbEntity
  8
0
 62
     2
100
AcDbText
 10
70.41168412064826
 20
133.5573447582302
 30
0.0
 40
2.5
  1
Panou aparate P4.1
100
AcDbText
  0
TEXT
  5
10B
330
1F
100
AcDbEntity
  8
0
 62
     2
100
AcDbText
 10
70.41168412064826
 20
128.3428493798786
 30
0.0
 40
2.5
  1
Panou aparate P4.2
100
AcDbText
  0
TEXT
  5
10C
330
1F
100
AcDbEntity
  8
0
 62
     2
100
AcDbText
 10
62.29608941756215
 20
133.0945595809894
 30
0.0
 40
2.5
  1
25
100
AcDbText
  0
TEXT
  5
10D
330
1F
100
AcDbEntity
  8
0
 62
     2
100
AcDbText
 10
62.29608941756215
 20
127.8800642026378
 30
0.0
 40
2.5
  1
26
100
AcDbText
  0
TEXT
  5
10E
330
1F
100
AcDbEntity
  8
0
 62
     2
100
AcDbText
 10
150.7896275836938
 20
133.5573447582302
 30
0.0
 40
2.5
  1
V3A-93-2S-E-PA-4.1
100
AcDbText
  0
TEXT
  5
10F
330
1F
100
AcDbEntity
  8
0
 62
     2
100
AcDbText
 10
150.7896275836938
 20
128.3428493798786
 30
0.0
 40
2.5
  1
V3A-93-2S-E-PA-4.2
100
AcDbText
  0
TEXT
  5
110
330
1F
100
AcDbEntity
  8
0
 62
     2
100
AcDbText
 10
62.29608941756215
 20
122.6655688242863
 30
0.0
 40
2.5
  1
27
100
AcDbText
  0
TEXT
  5
111
330
1F
100
AcDbEntity
  8
0
 62
     2
100
AcDbText
 10
70.41168412064826
 20
123.1283540015271
 30
0.0
 40
2.5
  1
Panou aparate P6.1;P6.2
100
AcDbText
  0
TEXT
  5
112
330
1F
100
AcDbEntity
  8
0
 62
     2
100
AcDbText
 10
150.7896275836938
 20
123.1283540015271
 30
0.0
 40
2.5
  1
V3A-93-2S-E-PA-6.1;6.2
100
AcDbText
  0
TEXT
  5
113
330
1F
100
AcDbEntity
  8
0
 62
     2
100
AcDbText
 10
70.41168412064826
 20
117.9138586231755
 30
0.0
 40
2.5
  1
Panou aparate P7.1;P7.2
100
AcDbText
  0
TEXT
  5
114
330
1F
100
AcDbEntity
  8
0
 62
     2
100
AcDbText
 10
62.29608941756215
 20
117.4510734459347
 30
0.0
 40
2.5
  1
28
100
AcDbText
  0
TEXT
  5
115
330
1F
100
AcDbEntity
  8
0
 62
     2
100
AcDbText
 10
150.7896275836938
 20
117.9138586231755
 30
0.0
 40
2.5
  1
V3A-93-2S-E-PA-7.1;7.2
100
AcDbText
  0
TEXT
  5
116
330
1F
100
AcDbEntity
  8
0
 62
     2
100
AcDbText
 10
70.41168412064826
 20
112.699363244824
 30
0.0
 40
2.5
  1
Panou aparate P8
100
AcDbText
  0
TEXT
  5
117
330
1F
100
AcDbEntity
  8
0
 62
     2
100
AcDbText
 10
62.29608941756215
 20
112.2365780675832
 30
0.0
 40
2.5
  1
29
100
AcDbText
  0
TEXT
  5
118
330
1F
100
AcDbEntity
  8
0
 62
     2
100
AcDbText
 10
150.7896275836938
 20
112.699363244824
 30
0.0
 40
2.5
  1
V3A-93-2S-E-PA-8
100
AcDbText
  0
TEXT
  5
11B
330
1F
100
AcDbEntity
  8
0
 62
     2
100
AcDbText
 10
70.41168412064826
 20
107.4848678664724
 30
0.0
 40
2.5
  1
Panou aparate usa 1.1;2
100
AcDbText
  0
TEXT
  5
11C
330
1F
100
AcDbEntity
  8
0
 62
     2
100
AcDbText
 10
62.29608941756215
 20
107.0220826892316
 30
0.0
 40
2.5
  1
30
100
AcDbText
  0
TEXT
  5
11D
330
1F
100
AcDbEntity
  8
0
 62
     2
100
AcDbText
 10
150.7896275836938
 20
107.4848678664724
 30
0.0
 40
2.5
  1
V3A-93-2S-E-PU-1
100
AcDbText
  0
TEXT
  5
11E
330
1F
100
AcDbEntity
  8
0
 62
     2
100
AcDbText
 10
62.29608941756215
 20
101.8075873108801
 30
0.0
 40
2.5
  1
31
100
AcDbText
  0
TEXT
  5
11F
330
1F
100
AcDbEntity
  8
0
 62
     2
100
AcDbText
 10
70.41168412064826
 20
102.2703724881208
 30
0.0
 40
2.5
  1
Panou aparate usa 2;3;4.1;2
100
AcDbText
  0
TEXT
  5
120
330
1F
100
AcDbEntity
  8
0
 62
     2
100
AcDbText
 10
150.7896275836938
 20
102.2703724881208
 30
0.0
 40
2.5
  1
V3A-93-2S-E-PU-2;3;4
100
AcDbText
  0
LINE
  5
132
330
1F
100
AcDbEntity
  8
0
 62
     2
100
AcDbLine
 10
267.5451312131197
 20
178.9199191888809
 30
0.0
 11
443.9397585534977
 21
178.9199191888809
 31
0.0
  0
LINE
  5
133
330
1F
100
AcDbEntity
  8
0
 62
     2
100
AcDbLine
 10
267.5451312131197
 20
173.7054238105294
 30
0.0
 11
443.9397585534977
 21
173.7054238105294
 31
0.0
  0
LINE
  5
134
330
1F
100
AcDbEntity
  8
0
 62
     2
100
AcDbLine
 10
267.5451312131197
 20
163.2764330538263
 30
0.0
 11
443.9397585534977
 21
163.2764330538263
 31
0.0
  0
LINE
  5
135
330
1F
100
AcDbEntity
  8
0
 62
     2
100
AcDbLine
 10
267.5451312131197
 20
168.4909284321778
 30
0.0
 11
443.9397585534977
 21
168.4909284321778
 31
0.0
  0
LINE
  5
138
330
1F
100
AcDbEntity
  8
0
 62
     2
100
AcDbLine
 10
267.5451312131197
 20
152.8474422971231
 30
0.0
 11
443.9397585534977
 21
152.8474422971231
 31
0.0
  0
LINE
  5
139
330
1F
100
AcDbEntity
  8
0
 62
     2
100
AcDbLine
 10
267.5451312131197
 20
158.0619376754747
 30
0.0
 11
443.9397585534977
 21
158.0619376754747
 31
0.0
  0
LINE
  5
142
330
1F
100
AcDbEntity
  8
0
 62
     2
100
AcDbLine
 10
267.5451312131197
 20
220.6358822156934
 30
0.0
 11
443.9397585534977
 21
220.6358822156934
 31
0.0
  0
LINE
  5
143
330
1F
100
AcDbEntity
  8
0
 62
     2
100
AcDbLine
 10
267.5451312131197
 20
215.4213868373418
 30
0.0
 11
443.9397585534977
 21
215.4213868373418
 31
0.0
  0
LINE
  5
144
330
1F
100
AcDbEntity
  8
0
 62
     2
100
AcDbLine
 10
267.5451312131197
 20
204.9923960806387
 30
0.0
 11
443.9397585534977
 21
204.9923960806387
 31
0.0
  0
LINE
  5
145
330
1F
100
AcDbEntity
  8
0
 62
     2
100
AcDbLine
 10
267.5451312131197
 20
210.2068914589903
 30
0.0
 11
443.9397585534977
 21
210.2068914589903
 31
0.0
  0
LINE
  5
146
330
1F
100
AcDbEntity
  8
0
 62
     2
100
AcDbLine
 10
267.5451312131197
 20
189.348909945584
 30
0.0
 11
443.9397585534977
 21
189.348909945584
 31
0.0
  0
LINE
  5
147
330
1F
100
AcDbEntity
  8
0
 62
     2
100
AcDbLine
 10
267.5451312131197
 20
184.1344145672325
 30
0.0
 11
443.9397585534977
 21
184.1344145672325
 31
0.0
  0
LINE
  5
148
330
1F
100
AcDbEntity
  8
0
 62
     2
100
AcDbLine
 10
267.5451312131197
 20
194.5634053239356
 30
0.0
 11
443.9397585534977
 21
194.5634053239356
 31
0.0
  0
LINE
  5
149
330
1F
100
AcDbEntity
  8
0
 62
     2
100
AcDbLine
 10
267.5451312131197
 20
199.7779007022872
 30
0.0
 11
443.9397585534977
 21
199.7779007022872
 31
0.0
  0
LINE
  5
14A
330
1F
100
AcDbEntity
  8
0
 62
     2
100
AcDbLine
 10
267.5451312131197
 20
241.4938637290997
 30
0.0
 11
443.9397585534977
 21
241.4938637290997
 31
0.0
  0
LINE
  5
14B
330
1F
100
AcDbEntity
  8
0
 62
     2
100
AcDbLine
 10
267.5451312131197
 20
236.2793683507481
 30
0.0
 11
443.9397585534977
 21
236.2793683507481
 31
0.0
  0
LINE
  5
14C
330
1F
100
AcDbEntity
  8
0
 62
     2
100
AcDbLine
 10
267.5451312131197
 20
225.850377594045
 30
0.0
 11
443.9397585534977
 21
225.850377594045
 31
0.0
  0
LINE
  5
14D
330
1F
100
AcDbEntity
  8
0
 62
     2
100
AcDbLine
 10
267.5451312131197
 20
231.0648729723965
 30
0.0
 11
443.9397585534977
 21
231.0648729723965
 31
0.0
  0
LINE
  5
14E
330
1F
100
AcDbEntity
  8
0
 62
     2
100
AcDbLine
 10
267.5451312131197
 20
251.9228544858028
 30
0.0
 11
443.9397585534977
 21
251.9228544858028
 31
0.0
  0
LINE
  5
14F
330
1F
100
AcDbEntity
  8
0
 62
     2
100
AcDbLine
 10
267.5451312131197
 20
246.7083591074512
 30
0.0
 11
443.9397585534977
 21
246.7083591074512
 31
0.0
  0
LINE
  5
150
330
1F
100
AcDbEntity
  8
0
 62
     2
100
AcDbLine
 10
267.5451312131197
 20
257.1373498641543
 30
0.0
 11
443.9397585534977
 21
257.1373498641543
 31
0.0
  0
LINE
  5
151
330
1F
100
AcDbEntity
  8
0
 62
     2
100
AcDbLine
 10
267.5451312131197
 20
262.3518452425059
 30
0.0
 11
443.9397585534977
 21
262.3518452425059
 31
0.0
  0
LINE
  5
152
330
1F
100
AcDbEntity
  8
0
 62
     2
100
AcDbLine
 10
267.5451312131197
 20
267.5663406208574
 30
0.0
 11
443.9397585534977
 21
267.5663406208574
 31
0.0
  0
LINE
  5
153
330
1F
100
AcDbEntity
  8
0
 62
     2
100
AcDbLine
 10
267.5451312131197
 20
275.9095335063207
 30
0.0
 11
443.9397585534977
 21
275.9095335063207
 31
0.0
  0
INSERT
  5
154
330
1F
100
AcDbEntity
  8
0
100
AcDbBlockReference
  2
a4
 10
460.7117068658617
 20
3.755836042580426
 30
0.0
  0
LINE
  5
158
330
1F
100
AcDbEntity
  8
0
 62
     2
100
AcDbLine
 10
359.1585437634592
 20
275.9095335063207
 30
0.0
 11
359.1585437634592
 21
152.8474422971231
 31
0.0
  0
LINE
  5
159
330
1F
100
AcDbEntity
  8
0
 62
     2
100
AcDbLine
 10
278.7806003004137
 20
275.9095335063207
 30
0.0
 11
278.7806003004137
 21
152.8474422971231
 31
0.0
  0
LINE
  5
15A
330
1F
100
AcDbEntity
  8
0
 62
     2
100
AcDbLine
 10
267.5451312131197
 20
275.9095335063207
 30
0.0
 11
267.5451312131197
 21
152.8474422971231
 31
0.0
  0
TEXT
  5
18B
330
1F
100
AcDbEntity
  8
0
 62
     2
100
AcDbText
 10
280.4116841206483
 20
263.9197292170191
 30
0.0
 40
2.5
  1
Rigleta 2 JT CCL1
100
AcDbText
  0
TEXT
  5
18C
330
1F
100
AcDbEntity
  8
0
 62
     2
100
AcDbText
 10
287.9273420194163
 20
271.0359970070841
 30
0.0
 40
2.5
  1
Denumire document
100
AcDbText
  0
TEXT
  5
1A2
330
1F
100
AcDbEntity
  8
0
 62
     2
100
AcDbText
 10
272.5052635218597
 20
264.0839011389428
 30
0.0
 40
2.5
  1
48
100
AcDbText
  0
TEXT
  5
1A3
330
1F
100
AcDbEntity
  8
0
 62
     2
100
AcDbText
 10
269.5936540449056
 20
269.2148599848334
 30
0.0
 40
2.5
  1
crt.
100
AcDbText
  0
TEXT
  5
1A4
330
1F
100
AcDbEntity
  8
0
 62
     2
100
AcDbText
 10
269.1283567820815
 20
272.4689984896017
 30
0.0
 40
2.5
  1
Nr.
100
AcDbText
  0
TEXT
  5
1BB
330
1F
100
AcDbEntity
  8
0
 62
     2
100
AcDbText
 10
360.7896275836938
 20
263.9197292170191
 30
0.0
 40
2.5
  1
V3A-93-2S-E-SC2-JT-CCL1
100
AcDbText
  0
TEXT
  5
1BC
330
1F
100
AcDbEntity
  8
0
 62
     2
100
AcDbText
 10
366.8614413878501
 20
271.0320650935106
 30
0.0
 40
2.5
  1
Numar desen 
100
AcDbText
  0
LINE
  5
1BD
330
1F
100
AcDbEntity
  8
0
 62
     2
100
AcDbLine
 10
425.1839824089101
 20
275.9095335063207
 30
0.0
 11
425.1839824089101
 21
152.8474422971231
 31
0.0
  0
LINE
  5
1BE
330
1F
100
AcDbEntity
  8
0
 62
     2
100
AcDbLine
 10
443.9397585534977
 20
275.9095335063207
 30
0.0
 11
443.9397585534977
 21
152.8474422971231
 31
0.0
  0
TEXT
  5
1C1
330
1F
100
AcDbEntity
  8
0
 62
     2
100
AcDbText
 10
429.8826774333808
 20
271.3331299302029
 30
0.0
 40
2.5
  1
Obs.
100
AcDbText
  0
TEXT
  5
1C6
330
1F
100
AcDbEntity
  8
0
 62
     2
100
AcDbText
 10
289.5108488576361
 20
279.376459610976
 30
0.0
 40
2.5
  1
BORDEROU DESENE - PARTE ELECTRICA VAGON V3A-93-2S-Pag.2/2
100
AcDbText
  0
TEXT
  5
1C7
330
1F
100
AcDbEntity
  8
0
 62
     2
100
AcDbText
 10
70.41168412064826
 20
97.05587710976931
 30
0.0
 40
2.5
  1
Rigleta 1 IT dulap cabina
100
AcDbText
  0
TEXT
  5
1C8
330
1F
100
AcDbEntity
  8
0
 62
     2
100
AcDbText
 10
62.29608941756215
 20
96.59309193252852
 30
0.0
 40
2.5
  1
32
100
AcDbText
  0
TEXT
  5
1C9
330
1F
100
AcDbEntity
  8
0
 62
     2
100
AcDbText
 10
150.7896275836938
 20
97.05587710976931
 30
0.0
 40
2.5
  1
V3A-93-2S-E-SC1-IT-DC
100
AcDbText
  0
TEXT
  5
1CA
330
1F
100
AcDbEntity
  8
0
 62
     2
100
AcDbText
 10
62.29608941756215
 20
91.37859655417697
 30
0.0
 40
2.5
  1
33
100
AcDbText
  0
TEXT
  5
1CB
330
1F
100
AcDbEntity
  8
0
 62
     2
100
AcDbText
 10
70.41168412064826
 20
91.84138173141775
 30
0.0
 40
2.5
  1
Rigleta 1 IT tronson A
100
AcDbText
  0
TEXT
  5
1CC
330
1F
100
AcDbEntity
  8
0
 62
     2
100
AcDbText
 10
150.7896275836938
 20
91.84138173141775
 30
0.0
 40
2.5
  1
V3A-93-2S-E-SC1-IT-A
100
AcDbText
  0
TEXT
  5
1CD
330
1F
100
AcDbEntity
  8
0
 62
     2
100
AcDbText
 10
62.29608941756215
 20
86.16410117582541
 30
0.0
 40
2.5
  1
34
100
AcDbText
  0
TEXT
  5
1CE
330
1F
100
AcDbEntity
  8
0
 62
     2
100
AcDbText
 10
70.41168412064826
 20
86.6268863530662
 30
0.0
 40
2.5
  1
Rigleta 1 IT tronson B
100
AcDbText
  0
TEXT
  5
1CF
330
1F
100
AcDbEntity
  8
0
 62
     2
100
AcDbText
 10
150.7896275836938
 20
86.6268863530662
 30
0.0
 40
2.5
  1
V3A-93-2S-E-SC1-IT-B
100
AcDbText
  0
TEXT
  5
1D0
330
1F
100
AcDbEntity
  8
0
 62
     2
100
AcDbText
 10
62.29608941756215
 20
80.94960579747384
 30
0.0
 40
2.5
  1
35
100
AcDbText
  0
TEXT
  5
1D1
330
1F
100
AcDbEntity
  8
0
 62
     2
100
AcDbText
 10
70.41168412064826
 20
81.41239097471464
 30
0.0
 40
2.5
  1
Rigleta 1 IT tronson C
100
AcDbText
  0
TEXT
  5
1D2
330
1F
100
AcDbEntity
  8
0
 62
     2
100
AcDbText
 10
150.7896275836938
 20
81.41239097471464
 30
0.0
 40
2.5
  1
V3A-93-2S-E-SC1-IT-C
100
AcDbText
  0
TEXT
  5
1D3
330
1F
100
AcDbEntity
  8
0
 62
     2
100
AcDbText
 10
62.29608941756215
 20
75.7351104191223
 30
0.0
 40
2.5
  1
36
100
AcDbText
  0
TEXT
  5
1D4
330
1F
100
AcDbEntity
  8
0
 62
     2
100
AcDbText
 10
70.41168412064826
 20
76.19789559636308
 30
0.0
 40
2.5
  1
Rigleta 1 JT bord A
100
AcDbText
  0
TEXT
  5
1D5
330
1F
100
AcDbEntity
  8
0
 62
     2
100
AcDbText
 10
150.7896275836938
 20
76.19789559636308
 30
0.0
 40
2.5
  1
V3A-93-2S-E-SC1-JT-BA
100
AcDbText
  0
TEXT
  5
1D6
330
1F
100
AcDbEntity
  8
0
 62
     2
100
AcDbText
 10
62.29608941756215
 20
70.52061504077073
 30
0.0
 40
2.5
  1
37
100
AcDbText
  0
TEXT
  5
1D7
330
1F
100
AcDbEntity
  8
0
 62
     2
100
AcDbText
 10
70.41168412064826
 20
70.98340021801153
 30
0.0
 40
2.5
  1
Rigleta 1 JT bord B
100
AcDbText
  0
TEXT
  5
1D8
330
1F
100
AcDbEntity
  8
0
 62
     2
100
AcDbText
 10
150.7896275836938
 20
70.98340021801153
 30
0.0
 40
2.5
  1
V3A-93-2S-E-SC1-JT-BB
100
AcDbText
  0
TEXT
  5
1D9
330
1F
100
AcDbEntity
  8
0
 62
     2
100
AcDbText
 10
62.29608941756215
 20
65.30611966241917
 30
0.0
 40
2.5
  1
38
100
AcDbText
  0
TEXT
  5
1DA
330
1F
100
AcDbEntity
  8
0
 62
     2
100
AcDbText
 10
70.41168412064826
 20
65.76890483965996
 30
0.0
 40
2.5
  1
Rigleta 1 JT CCL1
100
AcDbText
  0
TEXT
  5
1DB
330
1F
100
AcDbEntity
  8
0
 62
     2
100
AcDbText
 10
150.7896275836938
 20
65.76890483965996
 30
0.0
 40
2.5
  1
V3A-93-2S-E-SC1-JT-CCL1
100
AcDbText
  0
TEXT
  5
1DC
330
1F
100
AcDbEntity
  8
0
 62
     2
100
AcDbText
 10
62.29608941756215
 20
60.09162428406762
 30
0.0
 40
2.5
  1
39
100
AcDbText
  0
TEXT
  5
1DD
330
1F
100
AcDbEntity
  8
0
 62
     2
100
AcDbText
 10
70.41168412064826
 20
60.55440946130841
 30
0.0
 40
2.5
  1
Rigleta 1 JT CCL2
100
AcDbText
  0
TEXT
  5
1DE
330
1F
100
AcDbEntity
  8
0
 62
     2
100
AcDbText
 10
150.7896275836938
 20
60.55440946130841
 30
0.0
 40
2.5
  1
V3A-93-2S-E-SC1-JT-CCL2
100
AcDbText
  0
TEXT
  5
1DF
330
1F
100
AcDbEntity
  8
0
 62
     2
100
AcDbText
 10
62.29608941756215
 20
54.87712890571606
 30
0.0
 40
2.5
  1
40
100
AcDbText
  0
TEXT
  5
1E0
330
1F
100
AcDbEntity
  8
0
 62
     2
100
AcDbText
 10
70.41168412064826
 20
55.33991408295685
 30
0.0
 40
2.5
  1
Rigleta 1 JT tronson A
100
AcDbText
  0
TEXT
  5
1E1
330
1F
100
AcDbEntity
  8
0
 62
     2
100
AcDbText
 10
150.7896275836938
 20
55.33991408295685
 30
0.0
 40
2.5
  1
V3A-93-2S-E-SC1-JT-A
100
AcDbText
  0
TEXT
  5
1E2
330
1F
100
AcDbEntity
  8
0
 62
     2
100
AcDbText
 10
62.29608941756215
 20
49.66263352736451
 30
0.0
 40
2.5
  1
41
100
AcDbText
  0
TEXT
  5
1E3
330
1F
100
AcDbEntity
  8
0
 62
     2
100
AcDbText
 10
70.41168412064826
 20
50.1254187046053
 30
0.0
 40
2.5
  1
Rigleta 1 JT tronson B
100
AcDbText
  0
TEXT
  5
1E4
330
1F
100
AcDbEntity
  8
0
 62
     2
100
AcDbText
 10
150.7896275836938
 20
50.1254187046053
 30
0.0
 40
2.5
  1
V3A-93-2S-E-SC1-JT-B
100
AcDbText
  0
TEXT
  5
1E5
330
1F
100
AcDbEntity
  8
0
 62
     2
100
AcDbText
 10
62.29608941756215
 20
44.44813814901294
 30
0.0
 40
2.5
  1
42
100
AcDbText
  0
TEXT
  5
1E6
330
1F
100
AcDbEntity
  8
0
 62
     2
100
AcDbText
 10
70.41168412064826
 20
44.91092332625373
 30
0.0
 40
2.5
  1
Rigleta 2 IT dulap cabina
100
AcDbText
  0
TEXT
  5
1E7
330
1F
100
AcDbEntity
  8
0
 62
     2
100
AcDbText
 10
150.7896275836938
 20
44.91092332625373
 30
0.0
 40
2.5
  1
V3A-93-2S-E-SC2-IT-DC
100
AcDbText
  0
TEXT
  5
1E8
330
1F
100
AcDbEntity
  8
0
 62
     2
100
AcDbText
 10
62.29608941756215
 20
39.23364277066139
 30
0.0
 40
2.5
  1
43
100
AcDbText
  0
TEXT
  5
1E9
330
1F
100
AcDbEntity
  8
0
 62
     2
100
AcDbText
 10
70.41168412064826
 20
39.69642794790218
 30
0.0
 40
2.5
  1
Rigleta 2 IT tronson A
100
AcDbText
  0
TEXT
  5
1EA
330
1F
100
AcDbEntity
  8
0
 62
     2
100
AcDbText
 10
150.7896275836938
 20
39.69642794790218
 30
0.0
 40
2.5
  1
V3A-93-2S-E-SC2-IT-A
100
AcDbText
  0
TEXT
  5
1EC
330
1F
100
AcDbEntity
  8
0
 62
     2
100
AcDbText
 10
62.29608941756215
 20
34.01914739230984
 30
0.0
 40
2.5
  1
44
100
AcDbText
  0
TEXT
  5
1ED
330
1F
100
AcDbEntity
  8
0
 62
     2
100
AcDbText
 10
70.41168412064826
 20
34.48193256955062
 30
0.0
 40
2.5
  1
Rigleta 2 IT tronson B
100
AcDbText
  0
TEXT
  5
1EE
330
1F
100
AcDbEntity
  8
0
 62
     2
100
AcDbText
 10
150.7896275836938
 20
34.48193256955062
 30
0.0
 40
2.5
  1
V3A-93-2S-E-SC2-IT-B
100
AcDbText
  0
TEXT
  5
1EF
330
1F
100
AcDbEntity
  8
0
 62
     2
100
AcDbText
 10
62.29608941756215
 20
28.80465201395828
 30
0.0
 40
2.5
  1
45
100
AcDbText
  0
TEXT
  5
1F0
330
1F
100
AcDbEntity
  8
0
 62
     2
100
AcDbText
 10
70.41168412064826
 20
29.26743719119907
 30
0.0
 40
2.5
  1
Rigleta 2 IT tronson C
100
AcDbText
  0
TEXT
  5
1F1
330
1F
100
AcDbEntity
  8
0
 62
     2
100
AcDbText
 10
150.7896275836938
 20
29.26743719119907
 30
0.0
 40
2.5
  1
V3A-93-2S-E-SC2-IT-C
100
AcDbText
  0
TEXT
  5
1F2
330
1F
100
AcDbEntity
  8
0
 62
     2
100
AcDbText
 10
62.29608941756215
 20
23.59015663560672
 30
0.0
 40
2.5
  1
46
100
AcDbText
  0
TEXT
  5
1F3
330
1F
100
AcDbEntity
  8
0
 62
     2
100
AcDbText
 10
70.41168412064826
 20
24.05294181284751
 30
0.0
 40
2.5
  1
Rigleta 2 JT bord A
100
AcDbText
  0
TEXT
  5
1F4
330
1F
100
AcDbEntity
  8
0
 62
     2
100
AcDbText
 10
150.7896275836938
 20
24.05294181284751
 30
0.0
 40
2.5
  1
V3A-93-2S-E-SC2-JT-BA
100
AcDbText
  0
TEXT
  5
1F5
330
1F
100
AcDbEntity
  8
0
 62
     2
100
AcDbText
 10
62.29608941756215
 20
18.37566125725516
 30
0.0
 40
2.5
  1
47
100
AcDbText
  0
TEXT
  5
1F6
330
1F
100
AcDbEntity
  8
0
 62
     2
100
AcDbText
 10
70.41168412064826
 20
18.83844643449595
 30
0.0
 40
2.5
  1
Rigleta 2 JT bord B
100
AcDbText
  0
TEXT
  5
1F7
330
1F
100
AcDbEntity
  8
0
 62
     2
100
AcDbText
 10
150.7896275836938
 20
18.83844643449595
 30
0.0
 40
2.5
  1
V3A-93-2S-E-SC2-JT-BB
100
AcDbText
  0
TEXT
  5
1F8
330
1F
100
AcDbEntity
  8
0
 62
     2
100
AcDbText
 10
272.5052635218597
 20
258.8694057605912
 30
0.0
 40
2.5
  1
49
100
AcDbText
  0
TEXT
  5
1F9
330
1F
100
AcDbEntity
  8
0
 62
     2
100
AcDbText
 10
280.4116841206483
 20
258.7052338386676
 30
0.0
 40
2.5
  1
Rigleta 2 JT CCL2
100
AcDbText
  0
TEXT
  5
1FA
330
1F
100
AcDbEntity
  8
0
 62
     2
100
AcDbText
 10
360.7896275836938
 20
258.7052338386676
 30
0.0
 40
2.5
  1
V3A-93-2S-E-SC2-JT-CCL2
100
AcDbText
  0
TEXT
  5
1FB
330
1F
100
AcDbEntity
  8
0
 62
     2
100
AcDbText
 10
280.4116841206483
 20
253.490738460316
 30
0.0
 40
2.5
  1
Rigleta 2 JT tronson A
100
AcDbText
  0
TEXT
  5
1FC
330
1F
100
AcDbEntity
  8
0
 62
     2
100
AcDbText
 10
272.5052635218597
 20
253.6549103822397
 30
0.0
 40
2.5
  1
50
100
AcDbText
  0
TEXT
  5
1FD
330
1F
100
AcDbEntity
  8
0
 62
     2
100
AcDbText
 10
360.7896275836938
 20
253.490738460316
 30
0.0
 40
2.5
  1
V3A-93-2S-E-SC2-JT-A
100
AcDbText
  0
TEXT
  5
1FE
330
1F
100
AcDbEntity
  8
0
 62
     2
100
AcDbText
 10
272.5052635218597
 20
248.4404150038881
 30
0.0
 40
2.5
  1
51
100
AcDbText
  0
TEXT
  5
1FF
330
1F
100
AcDbEntity
  8
0
 62
     2
100
AcDbText
 10
280.4116841206483
 20
248.2762430819645
 30
0.0
 40
2.5
  1
Rigleta 2 JT tronson B
100
AcDbText
  0
TEXT
  5
200
330
1F
100
AcDbEntity
  8
0
 62
     2
100
AcDbText
 10
360.7896275836938
 20
248.2762430819645
 30
0.0
 40
2.5
  1
V3A-93-2S-E-SC2-JT-B
100
AcDbText
  0
TEXT
  5
201
330
1F
100
AcDbEntity
  8
0
 62
     2
100
AcDbText
 10
272.5052635218597
 20
243.2259196255365
 30
0.0
 40
2.5
  1
52
100
AcDbText
  0
TEXT
  5
202
330
1F
100
AcDbEntity
  8
0
 62
     2
100
AcDbText
 10
280.4116841206483
 20
243.0617477036129
 30
0.0
 40
2.5
  1
Rigleta IT cutii borne motoare A;B
100
AcDbText
  0
TEXT
  5
203
330
1F
100
AcDbEntity
  8
0
 62
     2
100
AcDbText
 10
360.7896275836938
 20
243.0617477036129
 30
0.0
 40
2.5
  1
V3A-93-2S-E-SCCBM-IT-A;B
100
AcDbText
  0
TEXT
  5
204
330
1F
100
AcDbEntity
  8
0
 62
     2
100
AcDbText
 10
272.5052635218597
 20
238.011424247185
 30
0.0
 40
2.5
  1
53
100
AcDbText
  0
TEXT
  5
205
330
1F
100
AcDbEntity
  8
0
 62
     2
100
AcDbText
 10
280.4116841206483
 20
237.8472523252614
 30
0.0
 40
2.5
  1
Rigleta IT lumini tr.A;B
100
AcDbText
  0
TEXT
  5
206
330
1F
100
AcDbEntity
  8
0
 62
     2
100
AcDbText
 10
360.7896275836938
 20
237.8472523252614
 30
0.0
 40
2.5
  1
V3A-93-2S-E-SCL-IT-A;B
100
AcDbText
  0
TEXT
  5
207
330
1F
100
AcDbEntity
  8
0
 62
     2
100
AcDbText
 10
272.5052635218597
 20
232.7969288688334
 30
0.0
 40
2.5
  1
54
100
AcDbText
  0
TEXT
  5
208
330
1F
100
AcDbEntity
  8
0
 62
     2
100
AcDbText
 10
280.4116841206483
 20
232.6327569469098
 30
0.0
 40
2.5
  1
Rigleta IT lumini tr.C
100
AcDbText
  0
TEXT
  5
209
330
1F
100
AcDbEntity
  8
0
 62
     2
100
AcDbText
 10
360.7896275836938
 20
232.6327569469098
 30
0.0
 40
2.5
  1
V3A-93-2S-E-SCL-IT-C
100
AcDbText
  0
TEXT
  5
20A
330
1F
100
AcDbEntity
  8
0
 62
     2
100
AcDbText
 10
272.5052635218597
 20
227.5824334904819
 30
0.0
 40
2.5
  1
55
100
AcDbText
  0
TEXT
  5
20B
330
1F
100
AcDbEntity
  8
0
 62
     2
100
AcDbText
 10
280.4116841206483
 20
227.4182615685583
 30
0.0
 40
2.5
  1
Rigleta IT motoare tr.A;B
100
AcDbText
  0
TEXT
  5
20C
330
1F
100
AcDbEntity
  8
0
 62
     2
100
AcDbText
 10
360.7896275836938
 20
227.4182615685583
 30
0.0
 40
2.5
  1
V3A-93-2S-E-SCM-IT-A;B
100
AcDbText
  0
TEXT
  5
20D
330
1F
100
AcDbEntity
  8
0
 62
     2
100
AcDbText
 10
272.5052635218597
 20
222.3679381121304
 30
0.0
 40
2.5
  1
56
100
AcDbText
  0
TEXT
  5
20E
330
1F
100
AcDbEntity
  8
0
 62
     2
100
AcDbText
 10
280.4116841206483
 20
222.2037661902067
 30
0.0
 40
2.5
  1
Rigleta IT motoare tr.C
100
AcDbText
  0
TEXT
  5
20F
330
1F
100
AcDbEntity
  8
0
 62
     2
100
AcDbText
 10
360.7896275836938
 20
222.2037661902067
 30
0.0
 40
2.5
  1
V3A-93-2S-E-SCM-IT-C
100
AcDbText
  0
TEXT
  5
215
330
1F
100
AcDbEntity
  8
0
 62
     2
100
AcDbText
 10
272.5052635218597
 20
217.1534427337788
 30
0.0
 40
2.5
  1
57
100
AcDbText
  0
TEXT
  5
216
330
1F
100
AcDbEntity
  8
0
 62
     2
100
AcDbText
 10
280.4116841206483
 20
216.9892708118551
 30
0.0
 40
2.5
  1
Traseu 1 cabluri JT
100
AcDbText
  0
TEXT
  5
217
330
1F
100
AcDbEntity
  8
0
 62
     2
100
AcDbText
 10
360.7896275836938
 20
216.9892708118551
 30
0.0
 40
2.5
  1
V3A-93-2S-E-Tr.1 JT
100
AcDbText
  0
TEXT
  5
218
330
1F
100
AcDbEntity
  8
0
 62
     2
100
AcDbText
 10
272.5052635218597
 20
211.9389473554272
 30
0.0
 40
2.5
  1
58
100
AcDbText
  0
TEXT
  5
219
330
1F
100
AcDbEntity
  8
0
 62
     2
100
AcDbText
 10
280.4116841206483
 20
211.7747754335036
 30
0.0
 40
2.5
  1
Trasee 2;3;4;5 cabluri JT
100
AcDbText
  0
TEXT
  5
21A
330
1F
100
AcDbEntity
  8
0
 62
     2
100
AcDbText
 10
360.7896275836938
 20
211.7747754335036
 30
0.0
 40
2.5
  1
V3A-93-2S-E-Tr.2;3;4;5 JT
100
AcDbText
  0
TEXT
  5
21B
330
1F
100
AcDbEntity
  8
0
 62
     2
100
AcDbText
 10
272.5052635218597
 20
206.7244519770757
 30
0.0
 40
2.5
  1
59
100
AcDbText
  0
TEXT
  5
21C
330
1F
100
AcDbEntity
  8
0
 62
     2
100
AcDbText
 10
280.4116841206483
 20
206.560280055152
 30
0.0
 40
2.5
  1
Traseu 6 cabluri JT
100
AcDbText
  0
TEXT
  5
21D
330
1F
100
AcDbEntity
  8
0
 62
     2
100
AcDbText
 10
360.7896275836938
 20
206.560280055152
 30
0.0
 40
2.5
  1
V3A-93-2S-E-Tr.6 JT
100
AcDbText
  0
TEXT
  5
21E
330
1F
100
AcDbEntity
  8
0
 62
     2
100
AcDbText
 10
272.5052635218597
 20
201.5099565987241
 30
0.0
 40
2.5
  1
60
100
AcDbText
  0
TEXT
  5
21F
330
1F
100
AcDbEntity
  8
0
 62
     2
100
AcDbText
 10
280.4116841206483
 20
201.3457846768005
 30
0.0
 40
2.5
  1
Traseu 7 cabluri JT
100
AcDbText
  0
TEXT
  5
220
330
1F
100
AcDbEntity
  8
0
 62
     2
100
AcDbText
 10
360.7896275836938
 20
201.3457846768005
 30
0.0
 40
2.5
  1
V3A-93-2S-E-Tr.7 JT
100
AcDbText
  0
TEXT
  5
221
330
1F
100
AcDbEntity
  8
0
 62
     2
100
AcDbText
 10
272.5052635218597
 20
196.2954612203725
 30
0.0
 40
2.5
  1
61
100
AcDbText
  0
TEXT
  5
222
330
1F
100
AcDbEntity
  8
0
 62
     2
100
AcDbText
 10
280.4116841206483
 20
196.1312892984489
 30
0.0
 40
2.5
  1
Trasee 8;9;10;11 cabluri JT
100
AcDbText
  0
TEXT
  5
223
330
1F
100
AcDbEntity
  8
0
 62
     2
100
AcDbText
 10
360.7896275836938
 20
196.1312892984489
 30
0.0
 40
2.5
  1
V3A-93-2S-E-Tr.8;9;10;11 JT
100
AcDbText
  0
TEXT
  5
224
330
1F
100
AcDbEntity
  8
0
 62
     2
100
AcDbText
 10
272.5052635218597
 20
191.080965842021
 30
0.0
 40
2.5
  1
62
100
AcDbText
  0
TEXT
  5
225
330
1F
100
AcDbEntity
  8
0
 62
     2
100
AcDbText
 10
280.4116841206483
 20
190.9167939200973
 30
0.0
 40
2.5
  1
Trasee 12;13;14 cabluri JT
100
AcDbText
  0
TEXT
  5
226
330
1F
100
AcDbEntity
  8
0
 62
     2
100
AcDbText
 10
360.7896275836938
 20
190.9167939200973
 30
0.0
 40
2.5
  1
V3A-93-2S-E-Tr.12;13;14 JT
100
AcDbText
  0
TEXT
  5
227
330
1F
100
AcDbEntity
  8
0
 62
     2
100
AcDbText
 10
272.5052635218597
 20
185.8664704636694
 30
0.0
 40
2.5
  1
63
100
AcDbText
  0
TEXT
  5
228
330
1F
100
AcDbEntity
  8
0
 62
     2
100
AcDbText
 10
280.4116841206483
 20
185.7022985417458
 30
0.0
 40
2.5
  1
Trasee 15;16;17;18;19;20 cabluri JT
100
AcDbText
  0
TEXT
  5
229
330
1F
100
AcDbEntity
  8
0
 62
     2
100
AcDbText
 10
360.7896275836938
 20
185.7022985417458
 30
0.0
 40
2.5
  1
V3A-93-2S-E-Tr.15;......20 JT
100
AcDbText
  0
TEXT
  5
22A
330
1F
100
AcDbEntity
  8
0
 62
     2
100
AcDbText
 10
280.4116841206483
 20
175.2733077850427
 30
0.0
 40
2.5
  1
Traseu 1 cabluri IT
100
AcDbText
  0
TEXT
  5
22B
330
1F
100
AcDbEntity
  8
0
 62
     2
100
AcDbText
 10
272.5052635218597
 20
180.6519750853178
 30
0.0
 40
2.5
  1
64
100
AcDbText
  0
TEXT
  5
22C
330
1F
100
AcDbEntity
  8
0
 62
     2
100
AcDbText
 10
360.7896275836938
 20
175.2733077850427
 30
0.0
 40
2.5
  1
V3A-93-2S-E-Tr.1 IT
100
AcDbText
  0
TEXT
  5
22D
330
1F
100
AcDbEntity
  8
0
 62
     2
100
AcDbText
 10
272.5052635218597
 20
175.4374797069663
 30
0.0
 40
2.5
  1
65
100
AcDbText
  0
TEXT
  5
22E
330
1F
100
AcDbEntity
  8
0
 62
     2
100
AcDbText
 10
280.4116841206483
 20
170.0588124066911
 30
0.0
 40
2.5
  1
Traseu 2 cabluri IT
100
AcDbText
  0
TEXT
  5
22F
330
1F
100
AcDbEntity
  8
0
 62
     2
100
AcDbText
 10
360.7896275836938
 20
170.0588124066911
 30
0.0
 40
2.5
  1
V3A-93-2S-E-Tr.2 IT
100
AcDbText
  0
TEXT
  5
231
330
1F
100
AcDbEntity
  8
0
 62
     2
100
AcDbText
 10
280.4116841206483
 20
180.4878031633942
 30
0.0
 40
2.5
  1
Traseu 721cabluri JT
100
AcDbText
  0
TEXT
  5
232
330
1F
100
AcDbEntity
  8
0
 62
     2
100
AcDbText
 10
360.7896275836938
 20
180.4878031633942
 30
0.0
 40
2.5
  1
V3A-93-2S-E-Tr.21 JT
100
AcDbText
  0
TEXT
  5
233
330
1F
100
AcDbEntity
  8
0
 62
     2
100
AcDbText
 10
272.5052635218597
 20
170.2229843286147
 30
0.0
 40
2.5
  1
66
100
AcDbText
  0
TEXT
  5
234
330
1F
100
AcDbEntity
  8
0
 62
     2
100
AcDbText
 10
272.5052635218597
 20
165.0084889502632
 30
0.0
 40
2.5
  1
67
100
AcDbText
  0
TEXT
  5
235
330
1F
100
AcDbEntity
  8
0
 62
     2
100
AcDbText
 10
280.4116841206483
 20
164.8443170283395
 30
0.0
 40
2.5
  1
Traseu IT motoare
100
AcDbText
  0
TEXT
  5
236
330
1F
100
AcDbEntity
  8
0
 62
     2
100
AcDbText
 10
360.7896275836938
 20
164.8443170283395
 30
0.0
 40
2.5
  1
V3A-93-2S-E-Tr.M IT
100
AcDbText
  0
TEXT
  5
237
330
1F
100
AcDbEntity
  8
0
 62
     2
100
AcDbText
 10
272.5052635218597
 20
159.7939935719116
 30
0.0
 40
2.5
  1
68
100
AcDbText
  0
TEXT
  5
238
330
1F
100
AcDbEntity
  8
0
 62
     2
100
AcDbText
 10
280.4116841206483
 20
159.629821649988
 30
0.0
 40
2.5
  1
Fisiera JT ACL-CCL1
100
AcDbText
  0
TEXT
  5
239
330
1F
100
AcDbEntity
  8
0
 62
     2
100
AcDbText
 10
360.7896275836938
 20
159.629821649988
 30
0.0
 40
2.5
  1
V3A-93-2S-E-F ACL-CCL1 JT
100
AcDbText
  0
TEXT
  5
23A
330
1F
100
AcDbEntity
  8
0
 62
     2
100
AcDbText
 10
272.5052635218597
 20
154.5794981935601
 30
0.0
 40
2.5
  1
69
100
AcDbText
  0
TEXT
  5
23B
330
1F
100
AcDbEntity
  8
0
 62
     2
100
AcDbText
 10
280.4116841206483
 20
154.4153262716364
 30
0.0
 40
2.5
  1
Fisiera JT CCL2-BCL
100
AcDbText
  0
TEXT
  5
23C
330
1F
100
AcDbEntity
  8
0
 62
     2
100
AcDbText
 10
360.7896275836938
 20
154.4153262716364
 30
0.0
 40
2.5
  1
V3A-93-2S-E-F CCL2-BCL JT
100
AcDbText
  0
TEXT
  5
23D
330
1F
100
AcDbEntity
  8
0
 62
     2
100
AcDbText
 10
355.3094607252233
 20
134.0475063909515
 30
0.0
 40
2.5
  1
Intocmit:  Ing.Danciulescu Vasile
100
AcDbText
  0
ENDSEC
  0
SECTION
  2
OBJECTS
  0
DICTIONARY
  5
C
330
0
100
AcDbDictionary
281
     1
  3
ACAD_CIP_PREVIOUS_PRODUCT_INFO
350
296
  3
ACAD_COLOR
350
279
  3
ACAD_DETAILVIEWSTYLE
350
292
  3
ACAD_GROUP
350
D
  3
ACAD_LAST_SAVED_VERSION_INFO
350
299
  3
ACAD_LAYOUT
350
1A
  3
ACAD_MATERIAL
350
247
  3
ACAD_MLEADERSTYLE
350
28E
  3
ACAD_MLINESTYLE
350
17
  3
ACAD_PLOTSETTINGS
350
19
  3
ACAD_PLOTSTYLENAME
350
E
  3
ACAD_SCALELIST
350
27C
  3
ACAD_SECTIONVIEWSTYLE
350
290
  3
ACAD_TABLESTYLE
350
27A
  3
ACAD_VISUALSTYLE
350
260
  3
ACDB_RECOMPOSE_DATA
350
2BC
  3
AcDbVariableDictionary
350
6E
  0
DICTIONARY
  5
2A1
330
2
100
AcDbDictionary
280
     1
281
     1
  3
ACAD_LAYERSTATES
360
2A2
  0
DICTIONARY
  5
29A
330
10
100
AcDbDictionary
280
     1
281
     1
  3
ADSK_XREC_LAYER_RECONCILED
360
29B
  0
DICTIONARY
  5
29C
330
31
100
AcDbDictionary
280
     1
281
     1
  3
ADSK_XREC_LAYER_RECONCILED
360
29D
  0
XRECORD
  5
296
102
{ACAD_REACTORS
330
C
102
}
330
C
100
AcDbXrecord
280
     1
300
ACD
300
2025
300
87919ACD_2025_0F
  0
DICTIONARY
  5
279
102
{ACAD_REACTORS
330
C
102
}
330
C
100
AcDbDictionary
281
     1
  0
DICTIONARY
  5
292
102
{ACAD_REACTORS
330
C
102
}
330
C
100
AcDbDictionary
281
     1
  3
Metric50
350
293
  0
DICTIONARY
  5
D
102
{ACAD_REACTORS
330
C
102
}
330
C
100
AcDbDictionary
281
     1
  0
XRECORD
  5
299
102
{ACAD_REACTORS
330
C
102
}
330
C
100
AcDbXrecord
280
     1
300
{D92AAEB1-9F23-7246-8516-EFA7F34C83F8}
301

302
{D92AAEB1-9F23-7246-8516-EFA7F34C83F8}
303
C:\Users\Mihai\Downloads\V3A-93-2S\DXF\Borderou desene.dxf
  0
DICTIONARY
  5
1A
102
{ACAD_REACTORS
330
C
102
}
330
C
100
AcDbDictionary
281
     1
  3
Layout1
350
1E
  3
Layout2
350
26
  3
Model
350
22
  0
DICTIONARY
  5
247
102
{ACAD_REACTORS
330
C
102
}
330
C
100
AcDbDictionary
281
     1
  3
ByBlock
350
250
  3
ByLayer
350
248
  3
Global
350
258
  0
DICTIONARY
  5
28E
102
{ACAD_REACTORS
330
C
102
}
330
C
100
AcDbDictionary
281
     1
  3
Standard
350
28F
  0
DICTIONARY
  5
17
102
{ACAD_REACTORS
330
C
102
}
330
C
100
AcDbDictionary
281
     1
  3
Standard
350
18
  0
DICTIONARY
  5
19
102
{ACAD_REACTORS
330
C
102
}
330
C
100
AcDbDictionary
281
     1
  0
ACDBDICTIONARYWDFLT
  5
E
102
{ACAD_REACTORS
330
C
102
}
330
C
100
AcDbDictionary
281
     1
  3
Normal
350
F
100
AcDbDictionaryWithDefault
340
F
  0
DICTIONARY
  5
27C
102
{ACAD_REACTORS
330
C
102
}
330
C
100
AcDbDictionary
281
     1
  3
A0
350
27D
  3
A1
350
27E
  3
A2
350
27F
  3
A3
350
280
  3
A4
350
281
  3
A5
350
282
  3
A6
350
283
  3
A7
350
284
  3
A8
350
285
  3
A9
350
286
  3
B0
350
287
  3
B1
350
288
  3
B2
350
289
  3
B3
350
28A
  3
B4
350
28B
  3
B5
350
28C
  3
B6
350
28D
  0
DICTIONARY
  5
290
102
{ACAD_REACTORS
330
C
102
}
330
C
100
AcDbDictionary
281
     1
  3
Metric50
350
291
  0
DICTIONARY
  5
27A
102
{ACAD_REACTORS
330
C
102
}
330
C
100
AcDbDictionary
281
     1
  3
Standard
350
27B
  0
DICTIONARY
  5
260
102
{ACAD_REACTORS
330
C
102
}
330
C
100
AcDbDictionary
281
     1
  3
2dWireframe
350
266
  3
Basic
350
265
  3
Brighten
350
26C
  3
ColorChange
350
270
  3
Conceptual
350
269
  3
Dim
350
26B
  3
EdgeColorOff
350
278
  3
Facepattern
350
26F
  3
Flat
350
261
  3
FlatWithEdges
350
262
  3
Gouraud
350
263
  3
GouraudWithEdges
350
264
  3
Hidden
350
268
  3
JitterOff
350
276
  3
Linepattern
350
26E
  3
OverhangOff
350
277
  3
Realistic
350
26A
  3
Shaded
350
275
  3
Shaded with edges
350
274
  3
Shades of Gray
350
271
  3
Sketchy
350
272
  3
Thicken
350
26D
  3
Wireframe
350
267
  3
X-Ray
350
273
  0
XRECORD
  5
2BC
102
{ACAD_REACTORS
330
C
102
}
330
C
100
AcDbXrecord
280
     1
 90
        1
330
27B
  0
DICTIONARY
  5
6E
102
{ACAD_REACTORS
330
C
102
}
330
C
100
AcDbDictionary
281
     1
  3
CANNOSCALE
350
2B6
  3
CMLEADERSTYLE
350
2B2
  3
CTABLESTYLE
350
2B1
  3
CVIEWDETAILSTYLE
350
2B3
  3
CVIEWSECTIONSTYLE
350
2B4
  3
DIMASSOC
350
70
  3
HIDETEXT
350
6F
  3
LAYEREVAL
350
2B8
  3
LAYERNOTIFY
350
2B9
  3
LIGHTINGUNITS
350
2B7
  3
MSLTSCALE
350
2B5
  0
DICTIONARY
  5
2A2
102
{ACAD_REACTORS
330
2A1
102
}
330
2A1
100
AcDbDictionary
281
     1
  0
XRECORD
  5
29B
102
{ACAD_REACTORS
330
29A
102
}
330
29A
100
AcDbXrecord
280
     1
290
     1
  0
XRECORD
  5
29D
102
{ACAD_REACTORS
330
29C
102
}
330
29C
100
AcDbXrecord
280
     1
290
     1
  0
ACDBDETAILVIEWSTYLE
  5
293
102
{ACAD_REACTORS
330
292
102
}
330
292
100
AcDbModelDocViewStyle
 70
     0
  3
Metric50
290
     1
300
Metric50
 90
        0
100
AcDbDetailViewStyle
 70
     0
 71
     0
 90
        3
 71
     1
340
11
 62
   256
 40
5.0
340
0
 62
   256
 40
5.0
300

 40
0.0
280
     1
 71
     2
340
16
 90
       25
 62
   256
 71
     3
340
11
 62
   256
 40
5.0
 90
        0
 40
15.0
 90
        1
300
%<\AcVar ViewDetailId>% (%<\AcVar ViewScale \f "%sn">%)
 71
     4
340
16
 90
       25
 62
   256
340
16
 90
       25
 62
   256
280
     0
  0
LAYOUT
  5
1E
102
{ACAD_REACTORS
330
1A
102
}
330
1A
100
AcDbPlotSettings
  1

  2
None
  4

  6

 40
0.0
 41
0.0
 42
0.0
 43
0.0
 44
0.0
 45
0.0
 46
0.0
 47
0.0
 48
0.0
 49
0.0
140
0.0
141
0.0
142
1.0
143
1.0
 70
   688
 72
     0
 73
     0
 74
     5
  7
Normale.ctb
 75
    16
147
1.0
 76
     0
 77
     2
 78
   300
148
0.0
149
0.0
100
AcDbLayout
  1
Layout1
 70
     1
 71
     1
 10
0.0
 20
0.0
 11
420.0
 21
297.0
 12
0.0
 22
0.0
 32
0.0
 14
1.000000000000000E+20
 24
1.000000000000000E+20
 34
1.000000000000000E+20
 15
-1.000000000000000E+20
 25
-1.000000000000000E+20
 35
-1.000000000000000E+20
146
0.0
 13
0.0
 23
0.0
 33
0.0
 16
1.0
 26
0.0
 36
0.0
 17
0.0
 27
1.0
 37
0.0
 76
     0
330
1B
  0
LAYOUT
  5
26
102
{ACAD_REACTORS
330
1A
102
}
330
1A
100
AcDbPlotSettings
  1

  2
None
  4

  6

 40
0.0
 41
0.0
 42
0.0
 43
0.0
 44
0.0
 45
0.0
 46
0.0
 47
0.0
 48
0.0
 49
0.0
140
0.0
141
0.0
142
1.0
143
1.0
 70
   688
 72
     0
 73
     0
 74
     5
  7
Normale.ctb
 75
    16
147
1.0
 76
     0
 77
     2
 78
   300
148
0.0
149
0.0
100
AcDbLayout
  1
Layout2
 70
     1
 71
     2
 10
0.0
 20
0.0
 11
12.0
 21
9.0
 12
0.0
 22
0.0
 32
0.0
 14
0.0
 24
0.0
 34
0.0
 15
0.0
 25
0.0
 35
0.0
146
0.0
 13
0.0
 23
0.0
 33
0.0
 16
1.0
 26
0.0
 36
0.0
 17
0.0
 27
1.0
 37
0.0
 76
     0
330
23
  0
LAYOUT
  5
22
102
{ACAD_REACTORS
330
1A
102
}
330
1A
100
AcDbPlotSettings
  1

  2
\\PC-COCA\Brother HL-1450
  4
A4
  6

 40
6.720416545867919
 41
5.027085304260253
 42
6.889755249023437
 43
5.027069091796875
 44
209.9733276367187
 45
296.9259948730469
 46
-6.82
 47
-5.059999999999999
 48
250.7117068658617
 49
3.755836042580426
140
460.7117068658617
141
300.7558360425804
142
1.0
143
1.0
 70
 11956
 72
     1
 73
     0
 74
     4
  7
Normale.ctb
 75
    16
147
1.0
 76
     0
 77
     2
 78
   300
148
-250.7117068658617
149
-3.755836042580426
100
AcDbLayout
  1
Model
 70
     1
 71
     0
 10
0.0
 20
0.0
 11
12.0
 21
9.0
 12
0.0
 22
0.0
 32
0.0
 14
0.0
 24
0.0
 34
0.0
 15
0.0
 25
0.0
 35
0.0
146
0.0
 13
0.0
 23
0.0
 33
0.0
 16
1.0
 26
0.0
 36
0.0
 17
0.0
 27
1.0
 37
0.0
 76
     0
330
1F
331
245
  0
MATERIAL
  5
250
102
{ACAD_XDICTIONARY
360
251
102
}
102
{ACAD_REACTORS
330
247
102
}
330
247
100
AcDbMaterial
  1
ByBlock
 72
     0
 43
0.0008202099737533
 43
0.0
 43
0.0
 43
0.0
 43
0.0
 43
0.0008202099737533
 43
0.0
 43
0.0
 43
0.0
 43
0.0
 43
1.0
 43
0.0
 43
0.0
 43
0.0
 43
0.0
 43
1.0
 77
     0
 47
0.0008202099737533
 47
0.0
 47
0.0
 47
0.0
 47
0.0
 47
0.0008202099737533
 47
0.0
 47
0.0
 47
0.0
 47
0.0
 47
1.0
 47
0.0
 47
0.0
 47
0.0
 47
0.0
 47
1.0
171
     0
 49
0.0008202099737533
 49
0.0
 49
0.0
 49
0.0
 49
0.0
 49
0.0008202099737533
 49
0.0
 49
0.0
 49
0.0
 49
0.0
 49
1.0
 49
0.0
 49
0.0
 49
0.0
 49
0.0
 49
1.0
175
     0
142
0.0008202099737533
142
0.0
142
0.0
142
0.0
142
0.0
142
0.0008202099737533
142
0.0
142
0.0
142
0.0
142
0.0
142
1.0
142
0.0
142
0.0
142
0.0
142
0.0
142
1.0
179
     0
144
0.0008202099737533
144
0.0
144
0.0
144
0.0
144
0.0
144
0.0008202099737533
144
0.0
144
0.0
144
0.0
144
0.0
144
1.0
144
0.0
144
0.0
144
0.0
144
0.0
144
1.0
147
0.0008202099737533
147
0.0
147
0.0
147
0.0
147
0.0
147
0.0008202099737533
147
0.0
147
0.0
147
0.0
147
0.0
147
1.0
147
0.0
147
0.0
147
0.0
147
0.0
147
1.0
  0
MATERIAL
  5
248
102
{ACAD_XDICTIONARY
360
249
102
}
102
{ACAD_REACTORS
330
247
102
}
330
247
100
AcDbMaterial
  1
ByLayer
 72
     0
 43
0.0008202099737533
 43
0.0
 43
0.0
 43
0.0
 43
0.0
 43
0.0008202099737533
 43
0.0
 43
0.0
 43
0.0
 43
0.0
 43
1.0
 43
0.0
 43
0.0
 43
0.0
 43
0.0
 43
1.0
 77
     0
 47
0.0008202099737533
 47
0.0
 47
0.0
 47
0.0
 47
0.0
 47
0.0008202099737533
 47
0.0
 47
0.0
 47
0.0
 47
0.0
 47
1.0
 47
0.0
 47
0.0
 47
0.0
 47
0.0
 47
1.0
171
     0
 49
0.0008202099737533
 49
0.0
 49
0.0
 49
0.0
 49
0.0
 49
0.0008202099737533
 49
0.0
 49
0.0
 49
0.0
 49
0.0
 49
1.0
 49
0.0
 49
0.0
 49
0.0
 49
0.0
 49
1.0
175
     0
142
0.0008202099737533
142
0.0
142
0.0
142
0.0
142
0.0
142
0.0008202099737533
142
0.0
142
0.0
142
0.0
142
0.0
142
1.0
142
0.0
142
0.0
142
0.0
142
0.0
142
1.0
179
     0
144
0.0008202099737533
144
0.0
144
0.0
144
0.0
144
0.0
144
0.0008202099737533
144
0.0
144
0.0
144
0.0
144
0.0
144
1.0
144
0.0
144
0.0
144
0.0
144
0.0
144
1.0
147
0.0008202099737533
147
0.0
147
0.0
147
0.0
147
0.0
147
0.0008202099737533
147
0.0
147
0.0
147
0.0
147
0.0
147
1.0
147
0.0
147
0.0
147
0.0
147
0.0
147
1.0
  0
MATERIAL
  5
258
102
{ACAD_XDICTIONARY
360
259
102
}
102
{ACAD_REACTORS
330
247
102
}
330
247
100
AcDbMaterial
  1
Global
 72
     0
 43
0.0008202099737533
 43
0.0
 43
0.0
 43
0.0
 43
0.0
 43
0.0008202099737533
 43
0.0
 43
0.0
 43
0.0
 43
0.0
 43
1.0
 43
0.0
 43
0.0
 43
0.0
 43
0.0
 43
1.0
 77
     0
 47
0.0008202099737533
 47
0.0
 47
0.0
 47
0.0
 47
0.0
 47
0.0008202099737533
 47
0.0
 47
0.0
 47
0.0
 47
0.0
 47
1.0
 47
0.0
 47
0.0
 47
0.0
 47
0.0
 47
1.0
171
     0
 49
0.0008202099737533
 49
0.0
 49
0.0
 49
0.0
 49
0.0
 49
0.0008202099737533
 49
0.0
 49
0.0
 49
0.0
 49
0.0
 49
1.0
 49
0.0
 49
0.0
 49
0.0
 49
0.0
 49
1.0
175
     0
142
0.0008202099737533
142
0.0
142
0.0
142
0.0
142
0.0
142
0.0008202099737533
142
0.0
142
0.0
142
0.0
142
0.0
142
1.0
142
0.0
142
0.0
142
0.0
142
0.0
142
1.0
179
     0
144
0.0008202099737533
144
0.0
144
0.0
144
0.0
144
0.0
144
0.0008202099737533
144
0.0
144
0.0
144
0.0
144
0.0
144
1.0
144
0.0
144
0.0
144
0.0
144
0.0
144
1.0
147
0.0008202099737533
147
0.0
147
0.0
147
0.0
147
0.0
147
0.0008202099737533
147
0.0
147
0.0
147
0.0
147
0.0
147
1.0
147
0.0
147
0.0
147
0.0
147
0.0
147
1.0
  0
MLEADERSTYLE
  5
28F
102
{ACAD_REACTORS
330
28E
102
}
330
28E
100
AcDbMLeaderStyle
179
     2
170
     2
171
     1
172
     0
 90
        2
 40
0.0
 41
0.0
173
     1
 91
-1056964608
340
14
 92
       -2
290
     1
 42
2.0
291
     1
 43
0.36
  3
Standard
 44
4.0
300

342
11
174
     1
178
     6
175
     1
176
     0
 93
-1056964608
 45
4.0
292
     0
297
     0
 46
4.0
 94
-1056964608
 47
1.0
 49
1.0
140
1.0
293
     1
141
0.0
294
     1
177
     0
142
1.0
295
     1
296
     0
143
0.125
271
     0
272
     9
273
     9
298
     1
  0
MLINESTYLE
  5
18
102
{ACAD_REACTORS
330
17
102
}
330
17
100
AcDbMlineStyle
  2
STANDARD
 70
     0
  3

 62
   256
 51
90.0
 52
90.0
 71
     2
 49
0.5
 62
   256
  6
BYLAYER
 49
-0.5
 62
   256
  6
BYLAYER
  0
ACDBPLACEHOLDER
  5
F
102
{ACAD_REACTORS
330
E
102
}
330
E
  0
SCALE
  5
27D
102
{ACAD_REACTORS
330
27C
102
}
330
27C
100
AcDbScale
 70
     0
300
1:1
140
1.0
141
1.0
290
     1
  0
SCALE
  5
27E
102
{ACAD_REACTORS
330
27C
102
}
330
27C
100
AcDbScale
 70
     0
300
1:2
140
1.0
141
2.0
290
     0
  0
SCALE
  5
27F
102
{ACAD_REACTORS
330
27C
102
}
330
27C
100
AcDbScale
 70
     0
300
1:4
140
1.0
141
4.0
290
     0
  0
SCALE
  5
280
102
{ACAD_REACTORS
330
27C
102
}
330
27C
100
AcDbScale
 70
     0
300
1:5
140
1.0
141
5.0
290
     0
  0
SCALE
  5
281
102
{ACAD_REACTORS
330
27C
102
}
330
27C
100
AcDbScale
 70
     0
300
1:8
140
1.0
141
8.0
290
     0
  0
SCALE
  5
282
102
{ACAD_REACTORS
330
27C
102
}
330
27C
100
AcDbScale
 70
     0
300
1:10
140
1.0
141
10.0
290
     0
  0
SCALE
  5
283
102
{ACAD_REACTORS
330
27C
102
}
330
27C
100
AcDbScale
 70
     0
300
1:16
140
1.0
141
16.0
290
     0
  0
SCALE
  5
284
102
{ACAD_REACTORS
330
27C
102
}
330
27C
100
AcDbScale
 70
     0
300
1:20
140
1.0
141
20.0
290
     0
  0
SCALE
  5
285
102
{ACAD_REACTORS
330
27C
102
}
330
27C
100
AcDbScale
 70
     0
300
1:30
140
1.0
141
30.0
290
     0
  0
SCALE
  5
286
102
{ACAD_REACTORS
330
27C
102
}
330
27C
100
AcDbScale
 70
     0
300
1:40
140
1.0
141
40.0
290
     0
  0
SCALE
  5
287
102
{ACAD_REACTORS
330
27C
102
}
330
27C
100
AcDbScale
 70
     0
300
1:50
140
1.0
141
50.0
290
     0
  0
SCALE
  5
288
102
{ACAD_REACTORS
330
27C
102
}
330
27C
100
AcDbScale
 70
     0
300
1:100
140
1.0
141
100.0
290
     0
  0
SCALE
  5
289
102
{ACAD_REACTORS
330
27C
102
}
330
27C
100
AcDbScale
 70
     0
300
2:1
140
2.0
141
1.0
290
     0
  0
SCALE
  5
28A
102
{ACAD_REACTORS
330
27C
102
}
330
27C
100
AcDbScale
 70
     0
300
4:1
140
4.0
141
1.0
290
     0
  0
SCALE
  5
28B
102
{ACAD_REACTORS
330
27C
102
}
330
27C
100
AcDbScale
 70
     0
300
8:1
140
8.0
141
1.0
290
     0
  0
SCALE
  5
28C
102
{ACAD_REACTORS
330
27C
102
}
330
27C
100
AcDbScale
 70
     0
300
10:1
140
10.0
141
1.0
290
     0
  0
SCALE
  5
28D
102
{ACAD_REACTORS
330
27C
102
}
330
27C
100
AcDbScale
 70
     0
300
100:1
140
100.0
141
1.0
290
     0
  0
ACDBSECTIONVIEWSTYLE
  5
291
102
{ACAD_REACTORS
330
290
102
}
330
290
100
AcDbModelDocViewStyle
 70
     0
  3
Metric50
290
     1
300
Metric50
 90
        0
100
AcDbSectionViewStyle
 70
     0
 71
     0
 90
      102
 71
     1
340
11
 62
   256
 40
5.0
340
0
340
0
 62
   256
 40
5.0
300
I, O, Q, S, X, Z
 40
10.0
 90
        0
 40
2.5
 90
        0
 71
     2
340
16
 90
       25
 62
   256
340
16
 90
       50
 62
   256
 40
5.0
 40
2.5
 40
5.0
 71
     3
340
11
 62
   256
 40
5.0
 90
        0
 40
15.0
 90
        1
300
%<\AcVar ViewSectionStartId>%-%<\AcVar ViewSectionEndId>% (%<\AcVar ViewScale \f "%sn">%)
 71
     4
 62
   256
 62
   257
300
ANSI31
 40
1.0
 90
        0
290
     0
290
     0
 90
        6
 40
0.0
 40
1.570796326794896
 40
0.2617993877991494
 40
1.308996938995747
 40
-0.2617993877991494
 40
1.832595714594046
  0
TABLESTYLE
  5
27B
102
{ACAD_XDICTIONARY
360
2BA
102
}
102
{ACAD_REACTORS
330
27A
102
}
330
27A
100
AcDbTableStyle
280
     0
  3
Standard
 70
     0
 71
     0
 40
1.5
 41
1.5
280
     0
281
     0
  7
Standard
140
4.5
170
     2
 62
     0
 63
     7
283
     0
 90
      512
 91
        0
  1

274
    -2
284
     1
 64
     0
275
    -2
285
     1
 65
     0
276
    -2
286
     1
 66
     0
277
    -2
287
     1
 67
     0
278
    -2
288
     1
 68
     0
279
    -2
289
     1
 69
     0
  7
Standard
140
6.0
170
     5
 62
     0
 63
     7
283
     0
 90
      512
 91
        0
  1

274
    -2
284
     1
 64
     0
275
    -2
285
     1
 65
     0
276
    -2
286
     1
 66
     0
277
    -2
287
     1
 67
     0
278
    -2
288
     1
 68
     0
279
    -2
289
     1
 69
     0
  7
Standard
140
4.5
170
     5
 62
     0
 63
     7
283
     0
 90
      512
 91
        0
  1

274
    -2
284
     1
 64
     0
275
    -2
285
     1
 65
     0
276
    -2
286
     1
 66
     0
277
    -2
287
     1
 67
     0
278
    -2
288
     1
 68
     0
279
    -2
289
     1
 69
     0
  0
VISUALSTYLE
  5
266
102
{ACAD_REACTORS
330
260
102
}
330
260
100
AcDbVisualStyle
  2
2dWireframe
 70
     4
177
     3
291
     0
 70
    58
 90
        0
176
     1
 90
        2
176
     1
 90
        0
176
     1
 90
        0
176
     1
 40
0.6
176
     1
 40
30.0
176
     1
 62
     7
420
 16777215
176
     1
 90
        1
176
     1
 90
        4
176
     1
 62
     7
176
     1
 62
   257
176
     1
 90
        1
176
     1
 90
        1
176
     1
 40
1.0
176
     1
 90
        0
176
     1
 62
   257
176
     1
 40
1.0
176
     1
 90
        1
176
     1
 90
        6
176
     1
 90
        2
176
     1
 62
     7
176
     1
 90
        5
176
     1
 90
        0
176
     1
 90
        0
176
     1
290
     0
176
     1
 90
        1
176
     1
 40
0.0
176
     1
 90
        0
176
     1
290
     1
176
     1
290
     1
176
     1
290
     0
176
     1
290
     0
176
     1
290
     0
176
     1
290
     0
176
     1
290
     0
176
     1
290
     0
176
     1
290
     0
176
     1
 90
       50
176
     1
 40
0.0
176
     1
 40
1.0
176
     1
 90
        0
176
     1
 62
    18
420
        0
176
     1
 90
       50
176
     1
 90
        3
176
     1
 62
     5
420
      255
176
     1
290
     0
176
     1
 90
       50
176
     1
 90
       50
176
     1
 90
       50
176
     1
290
     0
176
     1
 90
       50
176
     1
 62
   256
176
     0
 40
1.0
176
     0
 90
        2
176
     1
  1
strokes_ogs.tif
176
     1
290
     0
176
     1
 40
1.0
176
     1
 40
1.0
176
     1
  0
VISUALSTYLE
  5
265
102
{ACAD_REACTORS
330
260
102
}
330
260
100
AcDbVisualStyle
  2
Basic
 70
     7
177
     3
291
     1
 70
    58
 90
        1
176
     1
 90
        0
176
     1
 90
        1
176
     1
 90
        0
176
     1
 40
0.6
176
     1
 40
30.0
176
     1
 62
     7
420
 16777215
176
     1
 90
        0
176
     1
 90
        4
176
     1
 62
     7
176
     1
 62
   257
176
     1
 90
        1
176
     1
 90
        1
176
     1
 40
1.0
176
     1
 90
        8
176
     1
 62
     7
176
     1
 40
1.0
176
     1
 90
        1
176
     1
 90
        6
176
     1
 90
        2
176
     1
 62
     7
176
     1
 90
        5
176
     1
 90
        0
176
     1
 90
        0
176
     1
290
     0
176
     1
 90
        1
176
     1
 40
0.0
176
     1
 90
        0
176
     1
290
     0
176
     1
290
     1
176
     1
290
     1
176
     1
290
     0
176
     1
290
     0
176
     1
290
     0
176
     1
290
     0
176
     1
290
     0
176
     1
290
     0
176
     1
 90
       50
176
     1
 40
0.0
176
     1
 40
1.0
176
     1
 90
        0
176
     1
 62
    18
420
        0
176
     1
 90
       50
176
     1
 90
        3
176
     1
 62
     5
420
      255
176
     1
290
     0
176
     1
 90
       50
176
     1
 90
       50
176
     1
 90
       50
176
     1
290
     0
176
     1
 90
       50
176
     1
 62
   256
176
     0
 40
1.0
176
     0
 90
        2
176
     1
  1
strokes_ogs.tif
176
     1
290
     0
176
     1
 40
1.0
176
     1
 40
1.0
176
     1
  0
VISUALSTYLE
  5
26C
102
{ACAD_REACTORS
330
260
102
}
330
260
100
AcDbVisualStyle
  2
Brighten
 70
    12
177
     3
291
     1
 70
    58
 90
        2
176
     1
 90
        2
176
     1
 90
        0
176
     1
 90
        0
176
     1
 40
0.6
176
     1
 40
30.0
176
     1
 62
     7
420
 16777215
176
     1
 90
        1
176
     1
 90
        4
176
     1
 62
     7
176
     1
 62
   257
176
     1
 90
        1
176
     1
 90
        1
176
     1
 40
1.0
176
     1
 90
        8
176
     1
 62
     7
176
     1
 40
1.0
176
     1
 90
        1
176
     1
 90
        6
176
     1
 90
        2
176
     1
 62
     7
176
     1
 90
        5
176
     1
 90
        0
176
     1
 90
        0
176
     1
290
     0
176
     1
 90
        1
176
     1
 40
50.0
176
     1
 90
        0
176
     1
290
     0
176
     1
290
     1
176
     1
290
     1
176
     1
290
     0
176
     1
290
     0
176
     1
290
     0
176
     1
290
     0
176
     1
290
     0
176
     1
290
     0
176
     1
 90
       50
176
     1
 40
0.0
176
     1
 40
1.0
176
     1
 90
        0
176
     1
 62
    18
420
        0
176
     1
 90
       50
176
     1
 90
        3
176
     1
 62
     5
420
      255
176
     1
290
     0
176
     1
 90
       50
176
     1
 90
       50
176
     1
 90
       50
176
     1
290
     0
176
     1
 90
       50
176
     1
 62
   256
176
     0
 40
1.0
176
     0
 90
        2
176
     1
  1
strokes_ogs.tif
176
     1
290
     0
176
     1
 40
1.0
176
     1
 40
1.0
176
     1
  0
VISUALSTYLE
  5
270
102
{ACAD_REACTORS
330
260
102
}
330
260
100
AcDbVisualStyle
  2
ColorChange
 70
    16
177
     3
291
     1
 70
    58
 90
        2
176
     1
 90
        2
176
     1
 90
        3
176
     1
 90
        0
176
     1
 40
0.6
176
     1
 40
30.0
176
     1
 62
     8
420
  8421504
176
     1
 90
        1
176
     1
 90
        4
176
     1
 62
     7
176
     1
 62
   257
176
     1
 90
        1
176
     1
 90
        1
176
     1
 40
1.0
176
     1
 90
        8
176
     1
 62
     8
420
  8421504
176
     1
 40
1.0
176
     1
 90
        1
176
     1
 90
        6
176
     1
 90
        2
176
     1
 62
     7
176
     1
 90
        5
176
     1
 90
        0
176
     1
 90
        0
176
     1
290
     0
176
     1
 90
        1
176
     1
 40
0.0
176
     1
 90
        0
176
     1
290
     0
176
     1
290
     1
176
     1
290
     1
176
     1
290
     0
176
     1
290
     0
176
     1
290
     0
176
     1
290
     0
176
     1
290
     0
176
     1
290
     0
176
     1
 90
       50
176
     1
 40
0.0
176
     1
 40
1.0
176
     1
 90
        0
176
     1
 62
    18
420
        0
176
     1
 90
       50
176
     1
 90
        3
176
     1
 62
     5
420
      255
176
     1
290
     0
176
     1
 90
       50
176
     1
 90
       50
176
     1
 90
       50
176
     1
290
     0
176
     1
 90
       50
176
     1
 62
   256
176
     0
 40
1.0
176
     0
 90
        2
176
     1
  1
strokes_ogs.tif
176
     1
290
     0
176
     1
 40
1.0
176
     1
 40
1.0
176
     1
  0
VISUALSTYLE
  5
269
102
{ACAD_REACTORS
330
260
102
}
330
260
100
AcDbVisualStyle
  2
Conceptual
 70
     9
177
     3
291
     0
 70
    58
 90
        3
176
     1
 90
        2
176
     1
 90
        0
176
     1
 90
        0
176
     1
 40
0.6
176
     1
 40
30.0
176
     1
 62
     7
420
 16777215
176
     1
 90
        2
176
     1
 90
        2
176
     1
 62
     7
176
     1
 62
   257
176
     1
 90
        1
176
     1
 90
        1
176
     1
 40
179.0
176
     1
 90
        8
176
     1
 62
     7
176
     1
 40
1.0
176
     1
 90
        1
176
     1
 90
        6
176
     1
 90
        2
176
     1
 62
     7
176
     1
 90
        3
176
     1
 90
        0
176
     1
 90
        0
176
     1
290
     0
176
     1
 90
        1
176
     1
 40
0.0
176
     1
 90
        0
176
     1
290
     0
176
     1
290
     1
176
     1
290
     1
176
     1
290
     0
176
     1
290
     0
176
     1
290
     0
176
     1
290
     0
176
     1
290
     0
176
     1
290
     0
176
     1
 90
       50
176
     1
 40
0.0
176
     1
 40
1.0
176
     1
 90
        0
176
     1
 62
    18
420
        0
176
     1
 90
       50
176
     1
 90
        3
176
     1
 62
     5
420
      255
176
     1
290
     0
176
     1
 90
       50
176
     1
 90
       50
176
     1
 90
       50
176
     1
290
     0
176
     1
 90
       50
176
     1
 62
   256
176
     0
 40
1.0
176
     0
 90
        2
176
     1
  1
strokes_ogs.tif
176
     1
290
     0
176
     1
 40
1.0
176
     1
 40
1.0
176
     1
  0
VISUALSTYLE
  5
26B
102
{ACAD_REACTORS
330
260
102
}
330
260
100
AcDbVisualStyle
  2
Dim
 70
    11
177
     3
291
     1
 70
    58
 90
        2
176
     1
 90
        2
176
     1
 90
        0
176
     1
 90
        0
176
     1
 40
0.6
176
     1
 40
30.0
176
     1
 62
     7
420
 16777215
176
     1
 90
        1
176
     1
 90
        4
176
     1
 62
     7
176
     1
 62
   257
176
     1
 90
        1
176
     1
 90
        1
176
     1
 40
1.0
176
     1
 90
        8
176
     1
 62
     7
176
     1
 40
1.0
176
     1
 90
        1
176
     1
 90
        6
176
     1
 90
        2
176
     1
 62
     7
176
     1
 90
        5
176
     1
 90
        0
176
     1
 90
        0
176
     1
290
     0
176
     1
 90
        1
176
     1
 40
-50.0
176
     1
 90
        0
176
     1
290
     0
176
     1
290
     1
176
     1
290
     1
176
     1
290
     0
176
     1
290
     0
176
     1
290
     0
176
     1
290
     0
176
     1
290
     0
176
     1
290
     0
176
     1
 90
       50
176
     1
 40
0.0
176
     1
 40
1.0
176
     1
 90
        0
176
     1
 62
    18
420
        0
176
     1
 90
       50
176
     1
 90
        3
176
     1
 62
     5
420
      255
176
     1
290
     0
176
     1
 90
       50
176
     1
 90
       50
176
     1
 90
       50
176
     1
290
     0
176
     1
 90
       50
176
     1
 62
   256
176
     0
 40
1.0
176
     0
 90
        2
176
     1
  1
strokes_ogs.tif
176
     1
290
     0
176
     1
 40
1.0
176
     1
 40
1.0
176
     1
  0
VISUALSTYLE
  5
278
102
{ACAD_REACTORS
330
260
102
}
330
260
100
AcDbVisualStyle
  2
EdgeColorOff
 70
    22
177
     3
291
     1
 70
    58
 90
        2
176
     0
 90
        2
176
     0
 90
        0
176
     0
 90
        0
176
     0
 40
0.6
176
     0
 40
30.0
176
     0
 62
     7
420
 16777215
176
     0
 90
        1
176
     0
 90
        4
176
     0
 62
     7
176
     0
 62
   257
176
     0
 90
        1
176
     0
 90
        1
176
     0
 40
1.0
176
     0
 90
        8
176
     2
 62
     7
176
     0
 40
1.0
176
     0
 90
        1
176
     0
 90
        6
176
     0
 90
        2
176
     0
 62
     7
176
     0
 90
        5
176
     0
 90
        0
176
     0
 90
        0
176
     0
290
     0
176
     0
 90
        1
176
     0
 40
0.0
176
     0
 90
        0
176
     0
290
     0
176
     0
290
     1
176
     0
290
     1
176
     0
290
     0
176
     0
290
     0
176
     0
290
     0
176
     0
290
     0
176
     0
290
     0
176
     0
290
     0
176
     0
 90
       50
176
     0
 40
0.0
176
     0
 40
1.0
176
     0
 90
        0
176
     0
 62
    18
420
        0
176
     0
 90
       50
176
     0
 90
        3
176
     0
 62
     5
420
      255
176
     0
290
     0
176
     0
 90
       50
176
     0
 90
       50
176
     0
 90
       50
176
     0
290
     0
176
     0
 90
       50
176
     0
 62
   256
176
     0
 40
1.0
176
     0
 90
        2
176
     0
  1
strokes_ogs.tif
176
     0
290
     0
176
     0
 40
1.0
176
     0
 40
1.0
176
     0
  0
VISUALSTYLE
  5
26F
102
{ACAD_REACTORS
330
260
102
}
330
260
100
AcDbVisualStyle
  2
Facepattern
 70
    15
177
     3
291
     1
 70
    58
 90
        2
176
     1
 90
        2
176
     1
 90
        0
176
     1
 90
        0
176
     1
 40
0.6
176
     1
 40
30.0
176
     1
 62
     7
420
 16777215
176
     1
 90
        1
176
     1
 90
        4
176
     1
 62
     7
176
     1
 62
   257
176
     1
 90
        1
176
     1
 90
        1
176
     1
 40
1.0
176
     1
 90
        8
176
     1
 62
     7
176
     1
 40
1.0
176
     1
 90
        1
176
     1
 90
        6
176
     1
 90
        2
176
     1
 62
     7
176
     1
 90
        5
176
     1
 90
        0
176
     1
 90
        0
176
     1
290
     0
176
     1
 90
        1
176
     1
 40
0.0
176
     1
 90
        0
176
     1
290
     0
176
     1
290
     1
176
     1
290
     1
176
     1
290
     0
176
     1
290
     0
176
     1
290
     0
176
     1
290
     0
176
     1
290
     0
176
     1
290
     0
176
     1
 90
       50
176
     1
 40
0.0
176
     1
 40
1.0
176
     1
 90
        0
176
     1
 62
    18
420
        0
176
     1
 90
       50
176
     1
 90
        3
176
     1
 62
     5
420
      255
176
     1
290
     0
176
     1
 90
       50
176
     1
 90
       50
176
     1
 90
       50
176
     1
290
     0
176
     1
 90
       50
176
     1
 62
   256
176
     0
 40
1.0
176
     0
 90
        2
176
     1
  1
strokes_ogs.tif
176
     1
290
     0
176
     1
 40
1.0
176
     1
 40
1.0
176
     1
  0
VISUALSTYLE
  5
261
102
{ACAD_REACTORS
330
260
102
}
330
260
100
AcDbVisualStyle
  2
Flat
 70
     0
177
     3
291
     1
 70
    58
 90
        2
176
     1
 90
        1
176
     1
 90
        1
176
     1
 90
        2
176
     1
 40
0.6
176
     1
 40
30.0
176
     1
 62
     7
420
 16777215
176
     1
 90
        0
176
     1
 90
        0
176
     1
 62
     7
176
     1
 62
   257
176
     1
 90
        1
176
     1
 90
        1
176
     1
 40
1.0
176
     1
 90
        8
176
     1
 62
     7
176
     1
 40
1.0
176
     1
 90
        1
176
     1
 90
        6
176
     1
 90
        2
176
     1
 62
     7
176
     1
 90
        5
176
     1
 90
        0
176
     1
 90
        0
176
     1
290
     0
176
     1
 90
       13
176
     1
 40
0.0
176
     1
 90
        0
176
     1
290
     0
176
     1
290
     1
176
     1
290
     1
176
     1
290
     0
176
     1
290
     0
176
     1
290
     0
176
     1
290
     0
176
     1
290
     0
176
     1
290
     0
176
     1
 90
       50
176
     1
 40
0.0
176
     1
 40
1.0
176
     1
 90
        0
176
     1
 62
    18
420
        0
176
     1
 90
       50
176
     1
 90
        3
176
     1
 62
     5
420
      255
176
     1
290
     0
176
     1
 90
       50
176
     1
 90
       50
176
     1
 90
       50
176
     1
290
     0
176
     1
 90
       50
176
     1
 62
   256
176
     0
 40
1.0
176
     0
 90
        2
176
     1
  1
strokes_ogs.tif
176
     1
290
     0
176
     1
 40
1.0
176
     1
 40
1.0
176
     1
  0
VISUALSTYLE
  5
262
102
{ACAD_REACTORS
330
260
102
}
330
260
100
AcDbVisualStyle
  2
FlatWithEdges
 70
     1
177
     3
291
     1
 70
    58
 90
        2
176
     1
 90
        1
176
     1
 90
        1
176
     1
 90
        2
176
     1
 40
0.6
176
     1
 40
30.0
176
     1
 62
     7
420
 16777215
176
     1
 90
        1
176
     1
 90
        0
176
     1
 62
     7
176
     1
 62
   257
176
     1
 90
        1
176
     1
 90
        1
176
     1
 40
1.0
176
     1
 90
        0
176
     1
 62
   257
176
     1
 40
1.0
176
     1
 90
        1
176
     1
 90
        6
176
     1
 90
        2
176
     1
 62
     7
176
     1
 90
        5
176
     1
 90
        0
176
     1
 90
        0
176
     1
290
     0
176
     1
 90
       13
176
     1
 40
0.0
176
     1
 90
        0
176
     1
290
     0
176
     1
290
     1
176
     1
290
     1
176
     1
290
     0
176
     1
290
     0
176
     1
290
     0
176
     1
290
     0
176
     1
290
     0
176
     1
290
     0
176
     1
 90
       50
176
     1
 40
0.0
176
     1
 40
1.0
176
     1
 90
        0
176
     1
 62
    18
420
        0
176
     1
 90
       50
176
     1
 90
        3
176
     1
 62
     5
420
      255
176
     1
290
     0
176
     1
 90
       50
176
     1
 90
       50
176
     1
 90
       50
176
     1
290
     0
176
     1
 90
       50
176
     1
 62
   256
176
     0
 40
1.0
176
     0
 90
        2
176
     1
  1
strokes_ogs.tif
176
     1
290
     0
176
     1
 40
1.0
176
     1
 40
1.0
176
     1
  0
VISUALSTYLE
  5
263
102
{ACAD_REACTORS
330
260
102
}
330
260
100
AcDbVisualStyle
  2
Gouraud
 70
     2
177
     3
291
     1
 70
    58
 90
        2
176
     1
 90
        2
176
     1
 90
        1
176
     1
 90
        2
176
     1
 40
0.6
176
     1
 40
30.0
176
     1
 62
     7
420
 16777215
176
     1
 90
        0
176
     1
 90
        0
176
     1
 62
     7
176
     1
 62
   257
176
     1
 90
        1
176
     1
 90
        1
176
     1
 40
1.0
176
     1
 90
        0
176
     1
 62
     7
176
     1
 40
1.0
176
     1
 90
        1
176
     1
 90
        6
176
     1
 90
        2
176
     1
 62
     7
176
     1
 90
        5
176
     1
 90
        0
176
     1
 90
        0
176
     1
290
     0
176
     1
 90
       13
176
     1
 40
0.0
176
     1
 90
        0
176
     1
290
     0
176
     1
290
     1
176
     1
290
     1
176
     1
290
     0
176
     1
290
     0
176
     1
290
     0
176
     1
290
     0
176
     1
290
     0
176
     1
290
     0
176
     1
 90
       50
176
     1
 40
0.0
176
     1
 40
1.0
176
     1
 90
        0
176
     1
 62
    18
420
        0
176
     1
 90
       50
176
     1
 90
        3
176
     1
 62
     5
420
      255
176
     1
290
     0
176
     1
 90
       50
176
     1
 90
       50
176
     1
 90
       50
176
     1
290
     0
176
     1
 90
       50
176
     1
 62
   256
176
     0
 40
1.0
176
     0
 90
        2
176
     1
  1
strokes_ogs.tif
176
     1
290
     0
176
     1
 40
1.0
176
     1
 40
1.0
176
     1
  0
VISUALSTYLE
  5
264
102
{ACAD_REACTORS
330
260
102
}
330
260
100
AcDbVisualStyle
  2
GouraudWithEdges
 70
     3
177
     3
291
     1
 70
    58
 90
        2
176
     1
 90
        2
176
     1
 90
        1
176
     1
 90
        2
176
     1
 40
0.6
176
     1
 40
30.0
176
     1
 62
     7
420
 16777215
176
     1
 90
        1
176
     1
 90
        0
176
     1
 62
     7
176
     1
 62
   257
176
     1
 90
        1
176
     1
 90
        1
176
     1
 40
1.0
176
     1
 90
        0
176
     1
 62
   257
176
     1
 40
1.0
176
     1
 90
        1
176
     1
 90
        6
176
     1
 90
        2
176
     1
 62
     7
176
     1
 90
        5
176
     1
 90
        0
176
     1
 90
        0
176
     1
290
     0
176
     1
 90
       13
176
     1
 40
0.0
176
     1
 90
        0
176
     1
290
     0
176
     1
290
     1
176
     1
290
     1
176
     1
290
     0
176
     1
290
     0
176
     1
290
     0
176
     1
290
     0
176
     1
290
     0
176
     1
290
     0
176
     1
 90
       50
176
     1
 40
0.0
176
     1
 40
1.0
176
     1
 90
        0
176
     1
 62
    18
420
        0
176
     1
 90
       50
176
     1
 90
        3
176
     1
 62
     5
420
      255
176
     1
290
     0
176
     1
 90
       50
176
     1
 90
       50
176
     1
 90
       50
176
     1
290
     0
176
     1
 90
       50
176
     1
 62
   256
176
     0
 40
1.0
176
     0
 90
        2
176
     1
  1
strokes_ogs.tif
176
     1
290
     0
176
     1
 40
1.0
176
     1
 40
1.0
176
     1
  0
VISUALSTYLE
  5
268
102
{ACAD_REACTORS
330
260
102
}
330
260
100
AcDbVisualStyle
  2
Hidden
 70
     6
177
     3
291
     0
 70
    58
 90
        1
176
     1
 90
        2
176
     1
 90
        2
176
     1
 90
        0
176
     1
 40
0.6
176
     1
 40
30.0
176
     1
 62
     7
420
 16777215
176
     1
 90
        2
176
     1
 90
        2
176
     1
 62
     7
176
     1
 62
   257
176
     1
 90
        2
176
     1
 90
        1
176
     1
 40
40.0
176
     1
 90
        0
176
     1
 62
   257
176
     1
 40
1.0
176
     1
 90
        1
176
     1
 90
        6
176
     1
 90
        2
176
     1
 62
     7
176
     1
 90
        3
176
     1
 90
        0
176
     1
 90
        0
176
     1
290
     0
176
     1
 90
        1
176
     1
 40
0.0
176
     1
 90
        0
176
     1
290
     0
176
     1
290
     1
176
     1
290
     1
176
     1
290
     0
176
     1
290
     0
176
     1
290
     0
176
     1
290
     0
176
     1
290
     0
176
     1
290
     0
176
     1
 90
       50
176
     1
 40
0.0
176
     1
 40
1.0
176
     1
 90
        0
176
     1
 62
    18
420
        0
176
     1
 90
       50
176
     1
 90
        3
176
     1
 62
     5
420
      255
176
     1
290
     0
176
     1
 90
       50
176
     1
 90
       50
176
     1
 90
       50
176
     1
290
     0
176
     1
 90
       50
176
     1
 62
   256
176
     0
 40
1.0
176
     0
 90
        2
176
     1
  1
strokes_ogs.tif
176
     1
290
     0
176
     1
 40
1.0
176
     1
 40
1.0
176
     1
  0
VISUALSTYLE
  5
276
102
{ACAD_REACTORS
330
260
102
}
330
260
100
AcDbVisualStyle
  2
JitterOff
 70
    20
177
     3
291
     1
 70
    58
 90
        2
176
     0
 90
        2
176
     0
 90
        0
176
     0
 90
        0
176
     0
 40
0.6
176
     0
 40
30.0
176
     0
 62
     7
420
 16777215
176
     0
 90
        1
176
     0
 90
        4
176
     0
 62
     7
176
     0
 62
   257
176
     0
 90
        1
176
     0
 90
        1
176
     0
 40
1.0
176
     0
 90
       10
176
     2
 62
     7
176
     0
 40
1.0
176
     0
 90
        1
176
     0
 90
        6
176
     0
 90
        2
176
     0
 62
     7
176
     0
 90
        5
176
     0
 90
        0
176
     0
 90
        0
176
     0
290
     0
176
     0
 90
        1
176
     0
 40
0.0
176
     0
 90
        0
176
     0
290
     0
176
     0
290
     1
176
     0
290
     1
176
     0
290
     0
176
     0
290
     0
176
     0
290
     0
176
     0
290
     0
176
     0
290
     0
176
     0
290
     0
176
     0
 90
       50
176
     0
 40
0.0
176
     0
 40
1.0
176
     0
 90
        0
176
     0
 62
    18
420
        0
176
     0
 90
       50
176
     0
 90
        3
176
     0
 62
     5
420
      255
176
     0
290
     0
176
     0
 90
       50
176
     0
 90
       50
176
     0
 90
       50
176
     0
290
     0
176
     0
 90
       50
176
     0
 62
   256
176
     0
 40
1.0
176
     0
 90
        2
176
     0
  1
strokes_ogs.tif
176
     0
290
     0
176
     0
 40
1.0
176
     0
 40
1.0
176
     0
  0
VISUALSTYLE
  5
26E
102
{ACAD_REACTORS
330
260
102
}
330
260
100
AcDbVisualStyle
  2
Linepattern
 70
    14
177
     3
291
     1
 70
    58
 90
        2
176
     1
 90
        2
176
     1
 90
        0
176
     1
 90
        0
176
     1
 40
0.6
176
     1
 40
30.0
176
     1
 62
     7
420
 16777215
176
     1
 90
        1
176
     1
 90
        4
176
     1
 62
     7
176
     1
 62
   257
176
     1
 90
        7
176
     1
 90
        7
176
     1
 40
1.0
176
     1
 90
        8
176
     1
 62
     7
176
     1
 40
1.0
176
     1
 90
        1
176
     1
 90
        6
176
     1
 90
        2
176
     1
 62
     7
176
     1
 90
        5
176
     1
 90
        0
176
     1
 90
        0
176
     1
290
     0
176
     1
 90
        1
176
     1
 40
0.0
176
     1
 90
        0
176
     1
290
     0
176
     1
290
     1
176
     1
290
     1
176
     1
290
     0
176
     1
290
     0
176
     1
290
     0
176
     1
290
     0
176
     1
290
     0
176
     1
290
     0
176
     1
 90
       50
176
     1
 40
0.0
176
     1
 40
1.0
176
     1
 90
        0
176
     1
 62
    18
420
        0
176
     1
 90
       50
176
     1
 90
        3
176
     1
 62
     5
420
      255
176
     1
290
     0
176
     1
 90
       50
176
     1
 90
       50
176
     1
 90
       50
176
     1
290
     0
176
     1
 90
       50
176
     1
 62
   256
176
     0
 40
1.0
176
     0
 90
        2
176
     1
  1
strokes_ogs.tif
176
     1
290
     0
176
     1
 40
1.0
176
     1
 40
1.0
176
     1
  0
VISUALSTYLE
  5
277
102
{ACAD_REACTORS
330
260
102
}
330
260
100
AcDbVisualStyle
  2
OverhangOff
 70
    21
177
     3
291
     1
 70
    58
 90
        2
176
     0
 90
        2
176
     0
 90
        0
176
     0
 90
        0
176
     0
 40
0.6
176
     0
 40
30.0
176
     0
 62
     7
420
 16777215
176
     0
 90
        1
176
     0
 90
        4
176
     0
 62
     7
176
     0
 62
   257
176
     0
 90
        1
176
     0
 90
        1
176
     0
 40
1.0
176
     0
 90
        9
176
     2
 62
     7
176
     0
 40
1.0
176
     0
 90
        1
176
     0
 90
        6
176
     0
 90
        2
176
     0
 62
     7
176
     0
 90
        5
176
     0
 90
        0
176
     0
 90
        0
176
     0
290
     0
176
     0
 90
        1
176
     0
 40
0.0
176
     0
 90
        0
176
     0
290
     0
176
     0
290
     1
176
     0
290
     1
176
     0
290
     0
176
     0
290
     0
176
     0
290
     0
176
     0
290
     0
176
     0
290
     0
176
     0
290
     0
176
     0
 90
       50
176
     0
 40
0.0
176
     0
 40
1.0
176
     0
 90
        0
176
     0
 62
    18
420
        0
176
     0
 90
       50
176
     0
 90
        3
176
     0
 62
     5
420
      255
176
     0
290
     0
176
     0
 90
       50
176
     0
 90
       50
176
     0
 90
       50
176
     0
290
     0
176
     0
 90
       50
176
     0
 62
   256
176
     0
 40
1.0
176
     0
 90
        2
176
     0
  1
strokes_ogs.tif
176
     0
290
     0
176
     0
 40
1.0
176
     0
 40
1.0
176
     0
  0
VISUALSTYLE
  5
26A
102
{ACAD_REACTORS
330
260
102
}
330
260
100
AcDbVisualStyle
  2
Realistic
 70
     8
177
     3
291
     0
 70
    58
 90
        2
176
     1
 90
        3
176
     1
 90
        0
176
     1
 90
        2
176
     1
 40
0.6
176
     1
 40
30.0
176
     1
 62
     7
420
 16777215
176
     1
 90
        0
176
     1
 90
        0
176
     1
 62
     7
176
     1
 62
   257
176
     1
 90
        1
176
     1
 90
        1
176
     1
 40
1.0
176
     1
 90
        8
176
     1
 62
   257
176
     1
 40
1.0
176
     1
 90
        1
176
     1
 90
        6
176
     1
 90
        2
176
     1
 62
     7
176
     1
 90
        3
176
     1
 90
        0
176
     1
 90
        0
176
     1
290
     0
176
     1
 90
       13
176
     1
 40
0.0
176
     1
 90
        0
176
     1
290
     0
176
     1
290
     1
176
     1
290
     1
176
     1
290
     0
176
     1
290
     0
176
     1
290
     0
176
     1
290
     0
176
     1
290
     0
176
     1
290
     0
176
     1
 90
       50
176
     1
 40
0.0
176
     1
 40
1.0
176
     1
 90
        0
176
     1
 62
    18
420
        0
176
     1
 90
       50
176
     1
 90
        3
176
     1
 62
     5
420
      255
176
     1
290
     0
176
     1
 90
       50
176
     1
 90
       50
176
     1
 90
       50
176
     1
290
     0
176
     1
 90
       50
176
     1
 62
   256
176
     0
 40
1.0
176
     0
 90
        2
176
     1
  1
strokes_ogs.tif
176
     1
290
     0
176
     1
 40
1.0
176
     1
 40
1.0
176
     1
  0
VISUALSTYLE
  5
275
102
{ACAD_REACTORS
330
260
102
}
330
260
100
AcDbVisualStyle
  2
Shaded
 70
    27
177
     3
291
     0
 70
    58
 90
        2
176
     1
 90
        2
176
     1
 90
        1
176
     1
 90
        2
176
     1
 40
0.6
176
     1
 40
30.0
176
     1
 62
     7
420
 16777215
176
     1
 90
        0
176
     1
 90
        4
176
     1
 62
     7
176
     1
 62
   257
176
     1
 90
        1
176
     1
 90
        1
176
     1
 40
1.0
176
     1
 90
        8
176
     1
 62
   257
176
     1
 40
1.0
176
     1
 90
        1
176
     1
 90
        6
176
     1
 90
        2
176
     1
 62
     8
420
  7895160
176
     1
 90
        3
176
     1
 90
        0
176
     1
 90
        0
176
     1
290
     0
176
     1
 90
        5
176
     1
 40
0.0
176
     1
 90
        0
176
     1
290
     0
176
     1
290
     1
176
     1
290
     1
176
     1
290
     0
176
     1
290
     0
176
     1
290
     0
176
     1
290
     0
176
     1
290
     0
176
     1
290
     0
176
     1
 90
       50
176
     1
 40
0.0
176
     1
 40
1.0
176
     1
 90
        0
176
     1
 62
    18
420
        0
176
     1
 90
       50
176
     1
 90
        3
176
     1
 62
     5
420
      255
176
     1
290
     0
176
     1
 90
       50
176
     1
 90
       50
176
     1
 90
       50
176
     1
290
     0
176
     1
 90
       50
176
     1
 62
   256
176
     0
 40
1.0
176
     0
 90
        2
176
     1
  1
strokes_ogs.tif
176
     1
290
     0
176
     1
 40
1.0
176
     1
 40
1.0
176
     1
  0
VISUALSTYLE
  5
274
102
{ACAD_REACTORS
330
260
102
}
330
260
100
AcDbVisualStyle
  2
Shaded with edges
 70
    26
177
     3
291
     0
 70
    58
 90
        2
176
     1
 90
        2
176
     1
 90
        1
176
     1
 90
        2
176
     1
 40
0.6
176
     1
 40
30.0
176
     1
 62
     7
420
 16777215
176
     1
 90
        1
176
     1
 90
        2
176
     1
 62
     7
176
     1
 62
   257
176
     1
 90
        2
176
     1
 90
        1
176
     1
 40
1.0
176
     1
 90
        8
176
     1
 62
   257
176
     1
 40
1.0
176
     1
 90
        1
176
     1
 90
        6
176
     1
 90
        2
176
     1
 62
     7
176
     1
 90
        3
176
     1
 90
        0
176
     1
 90
        0
176
     1
290
     0
176
     1
 90
        5
176
     1
 40
0.0
176
     1
 90
        0
176
     1
290
     0
176
     1
290
     1
176
     1
290
     1
176
     1
290
     0
176
     1
290
     0
176
     1
290
     0
176
     1
290
     0
176
     1
290
     0
176
     1
290
     0
176
     1
 90
       50
176
     1
 40
0.0
176
     1
 40
1.0
176
     1
 90
        0
176
     1
 62
    18
420
        0
176
     1
 90
       50
176
     1
 90
        3
176
     1
 62
     5
420
      255
176
     1
290
     0
176
     1
 90
       50
176
     1
 90
       50
176
     1
 90
       50
176
     1
290
     0
176
     1
 90
       50
176
     1
 62
   256
176
     0
 40
1.0
176
     0
 90
        2
176
     1
  1
strokes_ogs.tif
176
     1
290
     0
176
     1
 40
1.0
176
     1
 40
1.0
176
     1
  0
VISUALSTYLE
  5
271
102
{ACAD_REACTORS
330
260
102
}
330
260
100
AcDbVisualStyle
  2
Shades of Gray
 70
    23
177
     3
291
     0
 70
    58
 90
        2
176
     1
 90
        2
176
     1
 90
        3
176
     1
 90
        0
176
     1
 40
0.6
176
     1
 40
30.0
176
     1
 62
     7
420
 16777215
176
     1
 90
        2
176
     1
 90
        2
176
     1
 62
     7
176
     1
 62
     7
176
     1
 90
        1
176
     1
 90
        1
176
     1
 40
40.0
176
     1
 90
        8
176
     1
 62
     7
176
     1
 40
1.0
176
     1
 90
        1
176
     1
 90
        6
176
     1
 90
        2
176
     1
 62
     7
176
     1
 90
        3
176
     1
 90
        0
176
     1
 90
        0
176
     1
290
     0
176
     1
 90
        1
176
     1
 40
0.0
176
     1
 90
        0
176
     1
290
     0
176
     1
290
     1
176
     1
290
     1
176
     1
290
     0
176
     1
290
     0
176
     1
290
     0
176
     1
290
     0
176
     1
290
     0
176
     1
290
     0
176
     1
 90
       50
176
     1
 40
0.0
176
     1
 40
1.0
176
     1
 90
        0
176
     1
 62
    18
420
        0
176
     1
 90
       50
176
     1
 90
        3
176
     1
 62
     5
420
      255
176
     1
290
     0
176
     1
 90
       50
176
     1
 90
       50
176
     1
 90
       50
176
     1
290
     0
176
     1
 90
       50
176
     1
 62
   256
176
     0
 40
1.0
176
     0
 90
        2
176
     1
  1
strokes_ogs.tif
176
     1
290
     0
176
     1
 40
1.0
176
     1
 40
1.0
176
     1
  0
VISUALSTYLE
  5
272
102
{ACAD_REACTORS
330
260
102
}
330
260
100
AcDbVisualStyle
  2
Sketchy
 70
    24
177
     3
291
     0
 70
    58
 90
        1
176
     1
 90
        2
176
     1
 90
        2
176
     1
 90
        0
176
     1
 40
0.6
176
     1
 40
30.0
176
     1
 62
     7
420
 16777215
176
     1
 90
        2
176
     1
 90
        2
176
     1
 62
     7
176
     1
 62
     7
176
     1
 90
        1
176
     1
 90
        1
176
     1
 40
40.0
176
     1
 90
       11
176
     1
 62
     7
176
     1
 40
1.0
176
     1
 90
        1
176
     1
 90
        6
176
     1
 90
        2
176
     1
 62
     7
176
     1
 90
        6
176
     1
 90
        0
176
     1
 90
        0
176
     1
290
     0
176
     1
 90
        1
176
     1
 40
0.0
176
     1
 90
        0
176
     1
290
     0
176
     1
290
     1
176
     1
290
     1
176
     1
290
     0
176
     1
290
     0
176
     1
290
     0
176
     1
290
     0
176
     1
290
     0
176
     1
290
     0
176
     1
 90
       50
176
     1
 40
0.0
176
     1
 40
1.0
176
     1
 90
        0
176
     1
 62
    18
420
        0
176
     1
 90
       50
176
     1
 90
        3
176
     1
 62
     5
420
      255
176
     1
290
     0
176
     1
 90
       50
176
     1
 90
       50
176
     1
 90
       50
176
     1
290
     0
176
     1
 90
       50
176
     1
 62
   256
176
     0
 40
1.0
176
     0
 90
        2
176
     1
  1
strokes_ogs.tif
176
     1
290
     0
176
     1
 40
1.0
176
     1
 40
1.0
176
     1
  0
VISUALSTYLE
  5
26D
102
{ACAD_REACTORS
330
260
102
}
330
260
100
AcDbVisualStyle
  2
Thicken
 70
    13
177
     3
291
     1
 70
    58
 90
        2
176
     1
 90
        2
176
     1
 90
        0
176
     1
 90
        0
176
     1
 40
0.6
176
     1
 40
30.0
176
     1
 62
     7
420
 16777215
176
     1
 90
        1
176
     1
 90
        4
176
     1
 62
     7
176
     1
 62
   257
176
     1
 90
        1
176
     1
 90
        1
176
     1
 40
1.0
176
     1
 90
       12
176
     1
 62
     7
176
     1
 40
1.0
176
     1
 90
        1
176
     1
 90
        6
176
     1
 90
        2
176
     1
 62
     7
176
     1
 90
        5
176
     1
 90
        0
176
     1
 90
        0
176
     1
290
     0
176
     1
 90
        1
176
     1
 40
0.0
176
     1
 90
        0
176
     1
290
     0
176
     1
290
     1
176
     1
290
     1
176
     1
290
     0
176
     1
290
     0
176
     1
290
     0
176
     1
290
     0
176
     1
290
     0
176
     1
290
     0
176
     1
 90
       50
176
     1
 40
0.0
176
     1
 40
1.0
176
     1
 90
        0
176
     1
 62
    18
420
        0
176
     1
 90
       50
176
     1
 90
        3
176
     1
 62
     5
420
      255
176
     1
290
     0
176
     1
 90
       50
176
     1
 90
       50
176
     1
 90
       50
176
     1
290
     0
176
     1
 90
       50
176
     1
 62
   256
176
     0
 40
1.0
176
     0
 90
        2
176
     1
  1
strokes_ogs.tif
176
     1
290
     0
176
     1
 40
1.0
176
     1
 40
1.0
176
     1
  0
VISUALSTYLE
  5
267
102
{ACAD_REACTORS
330
260
102
}
330
260
100
AcDbVisualStyle
  2
Wireframe
 70
     5
177
     3
291
     0
 70
    58
 90
        0
176
     1
 90
        2
176
     1
 90
        0
176
     1
 90
        0
176
     1
 40
0.6
176
     1
 40
30.0
176
     1
 62
     7
420
 16777215
176
     1
 90
        1
176
     1
 90
        4
176
     1
 62
     7
176
     1
 62
   257
176
     1
 90
        1
176
     1
 90
        1
176
     1
 40
1.0
176
     1
 90
        0
176
     1
 62
   257
176
     1
 40
1.0
176
     1
 90
        1
176
     1
 90
        6
176
     1
 90
        2
176
     1
 62
     7
176
     1
 90
        3
176
     1
 90
        0
176
     1
 90
        0
176
     1
290
     0
176
     1
 90
        1
176
     1
 40
0.0
176
     1
 90
        0
176
     1
290
     0
176
     1
290
     1
176
     1
290
     1
176
     1
290
     0
176
     1
290
     0
176
     1
290
     0
176
     1
290
     0
176
     1
290
     0
176
     1
290
     0
176
     1
 90
       50
176
     1
 40
0.0
176
     1
 40
1.0
176
     1
 90
        0
176
     1
 62
    18
420
        0
176
     1
 90
       50
176
     1
 90
        3
176
     1
 62
     5
420
      255
176
     1
290
     0
176
     1
 90
       50
176
     1
 90
       50
176
     1
 90
       50
176
     1
290
     0
176
     1
 90
       50
176
     1
 62
   256
176
     0
 40
1.0
176
     0
 90
        2
176
     1
  1
strokes_ogs.tif
176
     1
290
     0
176
     1
 40
1.0
176
     1
 40
1.0
176
     1
  0
VISUALSTYLE
  5
273
102
{ACAD_REACTORS
330
260
102
}
330
260
100
AcDbVisualStyle
  2
X-Ray
 70
    25
177
     3
291
     0
 70
    58
 90
        2
176
     1
 90
        2
176
     1
 90
        1
176
     1
 90
        1
176
     1
 40
0.5
176
     1
 40
30.0
176
     1
 62
     7
420
 16777215
176
     1
 90
        1
176
     1
 90
        0
176
     1
 62
     7
176
     1
 62
   257
176
     1
 90
        1
176
     1
 90
        1
176
     1
 40
1.0
176
     1
 90
        8
176
     1
 62
     7
176
     1
 40
1.0
176
     1
 90
        1
176
     1
 90
        6
176
     1
 90
        2
176
     1
 62
     7
176
     1
 90
        3
176
     1
 90
        0
176
     1
 90
        0
176
     1
290
     0
176
     1
 90
       13
176
     1
 40
0.0
176
     1
 90
        0
176
     1
290
     0
176
     1
290
     1
176
     1
290
     1
176
     1
290
     0
176
     1
290
     0
176
     1
290
     0
176
     1
290
     0
176
     1
290
     0
176
     1
290
     0
176
     1
 90
       50
176
     1
 40
0.0
176
     1
 40
1.0
176
     1
 90
        0
176
     1
 62
    18
420
        0
176
     1
 90
       50
176
     1
 90
        3
176
     1
 62
     5
420
      255
176
     1
290
     0
176
     1
 90
       50
176
     1
 90
       50
176
     1
 90
       50
176
     1
290
     0
176
     1
 90
       50
176
     1
 62
   256
176
     0
 40
1.0
176
     0
 90
        2
176
     1
  1
strokes_ogs.tif
176
     1
290
     0
176
     1
 40
1.0
176
     1
 40
1.0
176
     1
  0
DICTIONARYVAR
  5
2B6
102
{ACAD_REACTORS
330
6E
102
}
330
6E
100
DictionaryVariables
280
     0
  1
1:1
  0
DICTIONARYVAR
  5
2B2
102
{ACAD_REACTORS
330
6E
102
}
330
6E
100
DictionaryVariables
280
     0
  1
STANDARD
  0
DICTIONARYVAR
  5
2B1
102
{ACAD_REACTORS
330
6E
102
}
330
6E
100
DictionaryVariables
280
     0
  1
STANDARD
  0
DICTIONARYVAR
  5
2B3
102
{ACAD_REACTORS
330
6E
102
}
330
6E
100
DictionaryVariables
280
     0
  1
Metric50
  0
DICTIONARYVAR
  5
2B4
102
{ACAD_REACTORS
330
6E
102
}
330
6E
100
DictionaryVariables
280
     0
  1
Metric50
  0
DICTIONARYVAR
  5
70
102
{ACAD_REACTORS
330
6E
102
}
330
6E
100
DictionaryVariables
280
     0
  1
2
  0
DICTIONARYVAR
  5
6F
102
{ACAD_REACTORS
330
6E
102
}
330
6E
100
DictionaryVariables
280
     0
  1
1
  0
DICTIONARYVAR
  5
2B8
102
{ACAD_REACTORS
330
6E
102
}
330
6E
100
DictionaryVariables
280
     0
  1
1
  0
DICTIONARYVAR
  5
2B9
102
{ACAD_REACTORS
330
6E
102
}
330
6E
100
DictionaryVariables
280
     0
  1
15
  0
DICTIONARYVAR
  5
2B7
102
{ACAD_REACTORS
330
6E
102
}
330
6E
100
DictionaryVariables
280
     0
  1
0
  0
DICTIONARYVAR
  5
2B5
102
{ACAD_REACTORS
330
6E
102
}
330
6E
100
DictionaryVariables
280
     0
  1
0
  0
DICTIONARY
  5
251
330
250
100
AcDbDictionary
280
     1
281
     1
  3
BUMPTILE
360
253
  3
DIFFUSETILE
360
252
  3
OPACITYTILE
360
256
  3
REFLECTIONTILE
360
255
  3
REFRACTIONTILE
360
257
  3
SPECULARTILE
360
254
  0
DICTIONARY
  5
249
330
248
100
AcDbDictionary
280
     1
281
     1
  3
BUMPTILE
360
24B
  3
DIFFUSETILE
360
24A
  3
OPACITYTILE
360
24E
  3
REFLECTIONTILE
360
24D
  3
REFRACTIONTILE
360
24F
  3
SPECULARTILE
360
24C
  0
DICTIONARY
  5
259
330
258
100
AcDbDictionary
280
     1
281
     1
  3
BUMPTILE
360
25B
  3
DIFFUSETILE
360
25A
  3
OPACITYTILE
360
25E
  3
REFLECTIONTILE
360
25D
  3
REFRACTIONTILE
360
25F
  3
SPECULARTILE
360
25C
  0
DICTIONARY
  5
2BA
330
27B
100
AcDbDictionary
280
     1
281
     1
  3
ACAD_ROUNDTRIP_2008_TABLESTYLE_CELLSTYLEMAP
360
2BB
  0
XRECORD
  5
253
102
{ACAD_REACTORS
330
251
102
}
330
251
100
AcDbXrecord
280
     1
270
     1
271
     1
  0
XRECORD
  5
252
102
{ACAD_REACTORS
330
251
102
}
330
251
100
AcDbXrecord
280
     1
270
     1
271
     1
  0
XRECORD
  5
256
102
{ACAD_REACTORS
330
251
102
}
330
251
100
AcDbXrecord
280
     1
270
     1
271
     1
  0
XRECORD
  5
255
102
{ACAD_REACTORS
330
251
102
}
330
251
100
AcDbXrecord
280
     1
270
     1
271
     1
  0
XRECORD
  5
257
102
{ACAD_REACTORS
330
251
102
}
330
251
100
AcDbXrecord
280
     1
270
     1
271
     1
  0
XRECORD
  5
254
102
{ACAD_REACTORS
330
251
102
}
330
251
100
AcDbXrecord
280
     1
270
     1
271
     1
  0
XRECORD
  5
24B
102
{ACAD_REACTORS
330
249
102
}
330
249
100
AcDbXrecord
280
     1
270
     1
271
     1
  0
XRECORD
  5
24A
102
{ACAD_REACTORS
330
249
102
}
330
249
100
AcDbXrecord
280
     1
270
     1
271
     1
  0
XRECORD
  5
24E
102
{ACAD_REACTORS
330
249
102
}
330
249
100
AcDbXrecord
280
     1
270
     1
271
     1
  0
XRECORD
  5
24D
102
{ACAD_REACTORS
330
249
102
}
330
249
100
AcDbXrecord
280
     1
270
     1
271
     1
  0
XRECORD
  5
24F
102
{ACAD_REACTORS
330
249
102
}
330
249
100
AcDbXrecord
280
     1
270
     1
271
     1
  0
XRECORD
  5
24C
102
{ACAD_REACTORS
330
249
102
}
330
249
100
AcDbXrecord
280
     1
270
     1
271
     1
  0
XRECORD
  5
25B
102
{ACAD_REACTORS
330
259
102
}
330
259
100
AcDbXrecord
280
     1
270
     1
271
     1
  0
XRECORD
  5
25A
102
{ACAD_REACTORS
330
259
102
}
330
259
100
AcDbXrecord
280
     1
270
     1
271
     1
  0
XRECORD
  5
25E
102
{ACAD_REACTORS
330
259
102
}
330
259
100
AcDbXrecord
280
     1
270
     1
271
     1
  0
XRECORD
  5
25D
102
{ACAD_REACTORS
330
259
102
}
330
259
100
AcDbXrecord
280
     1
270
     1
271
     1
  0
XRECORD
  5
25F
102
{ACAD_REACTORS
330
259
102
}
330
259
100
AcDbXrecord
280
     1
270
     1
271
     1
  0
XRECORD
  5
25C
102
{ACAD_REACTORS
330
259
102
}
330
259
100
AcDbXrecord
280
     1
270
     1
271
     1
  0
CELLSTYLEMAP
  5
2BB
102
{ACAD_REACTORS
330
2BA
102
}
330
2BA
100
AcDbCellStyleMap
 90
        3
300
CELLSTYLE
  1
TABLEFORMAT_BEGIN
 90
        5
170
     1
 91
        0
 92
    32768
 62
   257
 93
        1
300
CONTENTFORMAT
  1
CONTENTFORMAT_BEGIN
 90
        0
 91
        0
 92
      512
 93
        0
300

 40
0.0
140
1.0
 94
        5
 62
     0
340
11
144
6.0
309
CONTENTFORMAT_END
171
     1
301
MARGIN
  1
CELLMARGIN_BEGIN
 40
1.5
 40
1.5
 40
1.5
 40
1.5
 40
4.5
 40
4.5
309
CELLMARGIN_END
 94
        6
 95
        1
302
GRIDFORMAT
  1
GRIDFORMAT_BEGIN
 90
        0
 91
        1
 62
     0
 92
       -2
340
0
 93
        0
 40
1.125
309
GRIDFORMAT_END
 95
        2
302
GRIDFORMAT
  1
GRIDFORMAT_BEGIN
 90
        0
 91
        1
 62
     0
 92
       -2
340
0
 93
        0
 40
1.125
309
GRIDFORMAT_END
 95
        4
302
GRIDFORMAT
  1
GRIDFORMAT_BEGIN
 90
        0
 91
        1
 62
     0
 92
       -2
340
0
 93
        0
 40
1.125
309
GRIDFORMAT_END
 95
        8
302
GRIDFORMAT
  1
GRIDFORMAT_BEGIN
 90
        0
 91
        1
 62
     0
 92
       -2
340
0
 93
        0
 40
1.125
309
GRIDFORMAT_END
 95
       16
302
GRIDFORMAT
  1
GRIDFORMAT_BEGIN
 90
        0
 91
        1
 62
     0
 92
       -2
340
0
 93
        0
 40
1.125
309
GRIDFORMAT_END
 95
       32
302
GRIDFORMAT
  1
GRIDFORMAT_BEGIN
 90
        0
 91
        1
 62
     0
 92
       -2
340
0
 93
        0
 40
1.125
309
GRIDFORMAT_END
309
TABLEFORMAT_END
  1
CELLSTYLE_BEGIN
 90
        1
 91
        1
300
_TITLE
309
CELLSTYLE_END
300
CELLSTYLE
  1
TABLEFORMAT_BEGIN
 90
        5
170
     1
 91
        0
 92
        0
 62
   257
 93
        1
300
CONTENTFORMAT
  1
CONTENTFORMAT_BEGIN
 90
        0
 91
        0
 92
      512
 93
        0
300

 40
0.0
140
1.0
 94
        5
 62
     0
340
11
144
4.5
309
CONTENTFORMAT_END
171
     1
301
MARGIN
  1
CELLMARGIN_BEGIN
 40
1.5
 40
1.5
 40
1.5
 40
1.5
 40
4.5
 40
4.5
309
CELLMARGIN_END
 94
        6
 95
        1
302
GRIDFORMAT
  1
GRIDFORMAT_BEGIN
 90
        0
 91
        1
 62
     0
 92
       -2
340
0
 93
        0
 40
1.125
309
GRIDFORMAT_END
 95
        2
302
GRIDFORMAT
  1
GRIDFORMAT_BEGIN
 90
        0
 91
        1
 62
     0
 92
       -2
340
0
 93
        0
 40
1.125
309
GRIDFORMAT_END
 95
        4
302
GRIDFORMAT
  1
GRIDFORMAT_BEGIN
 90
        0
 91
        1
 62
     0
 92
       -2
340
0
 93
        0
 40
1.125
309
GRIDFORMAT_END
 95
        8
302
GRIDFORMAT
  1
GRIDFORMAT_BEGIN
 90
        0
 91
        1
 62
     0
 92
       -2
340
0
 93
        0
 40
1.125
309
GRIDFORMAT_END
 95
       16
302
GRIDFORMAT
  1
GRIDFORMAT_BEGIN
 90
        0
 91
        1
 62
     0
 92
       -2
340
0
 93
        0
 40
1.125
309
GRIDFORMAT_END
 95
       32
302
GRIDFORMAT
  1
GRIDFORMAT_BEGIN
 90
        0
 91
        1
 62
     0
 92
       -2
340
0
 93
        0
 40
1.125
309
GRIDFORMAT_END
309
TABLEFORMAT_END
  1
CELLSTYLE_BEGIN
 90
        2
 91
        1
300
_HEADER
309
CELLSTYLE_END
300
CELLSTYLE
  1
TABLEFORMAT_BEGIN
 90
        5
170
     1
 91
        0
 92
        0
 62
   257
 93
        1
300
CONTENTFORMAT
  1
CONTENTFORMAT_BEGIN
 90
        0
 91
        0
 92
      512
 93
        0
300

 40
0.0
140
1.0
 94
        2
 62
     0
340
11
144
4.5
309
CONTENTFORMAT_END
171
     1
301
MARGIN
  1
CELLMARGIN_BEGIN
 40
1.5
 40
1.5
 40
1.5
 40
1.5
 40
4.5
 40
4.5
309
CELLMARGIN_END
 94
        6
 95
        1
302
GRIDFORMAT
  1
GRIDFORMAT_BEGIN
 90
        0
 91
        1
 62
     0
 92
       -2
340
0
 93
        0
 40
1.125
309
GRIDFORMAT_END
 95
        2
302
GRIDFORMAT
  1
GRIDFORMAT_BEGIN
 90
        0
 91
        1
 62
     0
 92
       -2
340
0
 93
        0
 40
1.125
309
GRIDFORMAT_END
 95
        4
302
GRIDFORMAT
  1
GRIDFORMAT_BEGIN
 90
        0
 91
        1
 62
     0
 92
       -2
340
0
 93
        0
 40
1.125
309
GRIDFORMAT_END
 95
        8
302
GRIDFORMAT
  1
GRIDFORMAT_BEGIN
 90
        0
 91
        1
 62
     0
 92
       -2
340
0
 93
        0
 40
1.125
309
GRIDFORMAT_END
 95
       16
302
GRIDFORMAT
  1
GRIDFORMAT_BEGIN
 90
        0
 91
        1
 62
     0
 92
       -2
340
0
 93
        0
 40
1.125
309
GRIDFORMAT_END
 95
       32
302
GRIDFORMAT
  1
GRIDFORMAT_BEGIN
 90
        0
 91
        1
 62
     0
 92
       -2
340
0
 93
        0
 40
1.125
309
GRIDFORMAT_END
309
TABLEFORMAT_END
  1
CELLSTYLE_BEGIN
 90
        3
 91
        2
300
_DATA
309
CELLSTYLE_END
  0
ENDSEC
  0
SECTION
  2
ACDSDATA
 70
     2
 71
     8
  0
ACDSSCHEMA
 90
        0
  1
AcDb_Thumbnail_Schema
  2
AcDbDs::ID
280
    10
 91
        8
  2
Thumbnail_Data
280
    15
 91
        0
101
ACDSRECORD
 95
        0
 90
        1
  2
AcDbDs::TreatedAsObjectData
280
     1
291
     1
101
ACDSRECORD
 95
        0
 90
        2
  2
AcDbDs::Legacy
280
     1
291
     1
101
ACDSRECORD
  1
AcDbDs::ID
 90
        3
  2
AcDs:Indexable
280
     1
291
     1
101
ACDSRECORD
  1
AcDbDs::ID
 90
        4
  2
AcDbDs::HandleAttribute
280
     7
282
     1
  0
ACDSSCHEMA
 90
        1
  1
AcDbDs::TreatedAsObjectDataSchema
  2
AcDbDs::TreatedAsObjectData
280
     1
 91
        0
  0
ACDSSCHEMA
 90
        2
  1
AcDbDs::LegacySchema
  2
AcDbDs::Legacy
280
     1
 91
        0
  0
ACDSSCHEMA
 90
        3
  1
AcDbDs::IndexedPropertySchema
  2
AcDs:Indexable
280
     1
 91
        0
  0
ACDSSCHEMA
 90
        4
  1
AcDbDs::HandleAttributeSchema
  2
AcDbDs::HandleAttribute
280
     7
 91
        1
284
     1
  0
ACDSRECORD
 90
        0
  2
AcDbDs::ID
280
    10
320
22
  2
Thumbnail_Data
280
    15
 94
     2029
310
89504E470D0A1A0A0000000D49484452000001000000006F08030000003479EE6F00000300504C5445212830FFFFFF2128300000000000000000000000000000000000000000000000000000330000660000990000CC0000FF0033000033330033660033990033CC0033FF0066000066330066660066990066CC0066FF0099
310
000099330099660099990099CC0099FF00CC0000CC3300CC6600CC9900CCCC00CCFF00FF0000FF3300FF6600FF9900FFCC00FFFF3300003300333300663300993300CC3300FF3333003333333333663333993333CC3333FF3366003366333366663366993366CC3366FF3399003399333399663399993399CC3399FF33CC00
310
33CC3333CC6633CC9933CCCC33CCFF33FF0033FF3333FF6633FF9933FFCC33FFFF6600006600336600666600996600CC6600FF6633006633336633666633996633CC6633FF6666006666336666666666996666CC6666FF6699006699336699666699996699CC6699FF66CC0066CC3366CC6666CC9966CCCC66CCFF66FF0066
310
FF3366FF6666FF9966FFCC66FFFF9900009900339900669900999900CC9900FF9933009933339933669933999933CC9933FF9966009966339966669966999966CC9966FF9999009999339999669999999999CC9999FF99CC0099CC3399CC6699CC9999CCCC99CCFF99FF0099FF3399FF6699FF9999FFCC99FFFFCC0000CC00
310
33CC0066CC0099CC00CCCC00FFCC3300CC3333CC3366CC3399CC33CCCC33FFCC6600CC6633CC6666CC6699CC66CCCC66FFCC9900CC9933CC9966CC9999CC99CCCC99FFCCCC00CCCC33CCCC66CCCC99CCCCCCCCCCFFCCFF00CCFF33CCFF66CCFF99CCFFCCCCFFFFFF0000FF0033FF0066FF0099FF00CCFF00FFFF3300FF3333
310
FF3366FF3399FF33CCFF33FFFF6600FF6633FF6666FF6699FF66CCFF66FFFF9900FF9933FF9966FF9999FF99CCFF99FFFFCC00FFCC33FFCC66FFCC99FFCCCCFFCCFFFFFF00FFFF33FFFF66FFFF99FFFFCCFFFFFF0000000D0D0D1A1A1A2828283535354343435050505D5D5D6B6B6B787878868686939393A1A1A1AEAEAEBB
310
BBBBC9C9C9D6D6D6E4E4E4F1F1F1FFFFFF0000000000000000000000000000000000000000000000000000000000002E4550F1000004A84944415478DAED5C0972E34008EC27EB87F9088FD92496A5398081D1A0281BA8DA5A5B87895A34F4806C202D2D2D2D2D2D2D2D2D2D2D2D2D2D2D2D2D2DED8FD9C77F6C36006E451B
310
CFF39600B424A0F2CD56EEA0F1F66A47FD515F21F901CD9BE9437DDE6C00D41BA87CB3953B48DA4EE3130E578AB7CDB2834C3BB80BD300D80AA38DB7CFEB94766CD229E59B13801BBD9901F0D2CB7D024A00EEF3960024004100E05600703700741ABA1754EE3EDE541BCF6D1600883FB5F8109337E2BCAD04E0AB323100A0
310
FC1FC53FE14F3202207823C51BE8511468CB722C05246F0E0028D45A00829DCD02B0EBAF1D4E2A0519759897B8137B57F6EB7CBDEC01A8BC112E7A3B2883790040EF3F89CB77EC9FD430D303C0626F2B00E03E56669DE70889020BBD9D87F801A05B7200ED00D02D39805C00D0F60A58D4155709C9A3FA5587F6479C0CFF5C
310
C5EC00BCBD358A417685834B87377435BA8980DD9B87020C001A029C1861EB3B4F0130F51D0A0018DEF40B14C83278DC1341EFF6F24FD46FD31160A04070048800802D51044B0E20ACA4409B03AA739202B11468571B525AB2EA002502BA85E420095ED7011901FB3D01C93A4048714D0EA88E1A4680B0E8672340D101AB22
310
A0A74073A36C95F90A059014F8110ABCDAE8421284B4FE227226C12F2FFB50408800E1138DD75C47C0EEED0A05D0E702AD32F781EBA300A4AB462D466A1DF03E312910A603FABA1094043168AE0CAE38A00A40E886EB14B80C008E98B64BE1AC02AB2800BD0A98B2F3120AB8FA01A903C2922048EB088D5B625E254872DF97
310
97C26B73C000004B5EBE020074006EA8027F9802679FD61301E48C80A32B6CA480B925C626415757D8D4161F55663B0064A3805907AC02207C305201103E18A1A549D0D8A97726C15E77766A524D8282F0CC241852065117DD281D200582A803F6CD77E8801680C53AA07F6196C2DC6C3029301701E4ED0A0728C1FE811F51
310
0754872EA18007002CC901E80190AB409103F03E27AB401005C416A59E966629005304A8426031054818DDA9149800E09C21FB2900940A7D1E80BD531F4D817A2E104D81C9B900BF3E631BB601A33145080C47279904237480FA1C9F982B162941F45298643540CB9220CC00B44910530040E830836B89B53A60ED33424901
310
B05F8F90A281861C98EE0A335CD0C37F2505B82200B62DDEE980560B5CA64095E29302B78CC6E4F9BCD0A6343DB16092C2449A1494C773B9185A3A17606FBBD014655B624A19D4DBE2A3A628D712D39AA2737301312D7B9EDF9E9C0B4C7485692D003917102380BD29A349D57C4B4CA4C09DFD0003008C0EB82285275B6239
310
18095A0DC2D0F31DCD6B9D14803FE56604842C86B82F3F5A7580BF23F43EAA783C1B361D503CCEFD3A7DE9686C5E074C0F46A0B9D3964B67624C0AC42541FBF7B866E702D52F0158BC55C7B7CB7037009BBC1650C569AF032C006C3205D407254B4FDD02F2DA5CE0FB877B026DFF719FE347846E70E6990B6C4A0478A6C3F5
310
8152047C4F46826D39052CD36174A31399028F03E0EE2AF044008614A085523823E0F7448024D02429FC7B232029F05C0A14DFC247F15CE039A8EF7E65E5F152D80B40396E905645613960BD14BE02000500F0035DE1F01CB0782E30D5A9D7E6024F04E04F46C03FAE1A047B81EFC0290000000049454E44AE426082
  0
ENDSEC
  0
EOF
